<?xml version="1.0" encoding="UTF-8"?>
<svg id="Lager_1" data-name="Lager 1" xmlns="http://www.w3.org/2000/svg" viewBox="0 0 1136.32 2079">
  <defs>
    <style>
      .cls-1, .cls-2 {
        fill: none;
      }

      .cls-3 {
        fill: #f6e4cf;
      }

      .cls-4 {
        fill: #f7f6f7;
      }

      .cls-5 {
        fill: #002d62;
      }

      .cls-6 {
        fill: #695861;
      }

      .cls-7, .cls-8 {
        fill: #eaeaea;
      }

      .cls-9 {
        fill: #f5dbbe;
      }

      .cls-10 {
        fill: #f78d84;
      }

      .cls-11 {
        fill: #e3dacf;
      }

      .cls-12 {
        fill: #e3dad0;
      }

      .cls-13 {
        fill: #e6f5de;
      }

      .cls-14 {
        fill: #e4dad2;
      }

      .cls-15 {
        fill: #f3dbbb;
      }

      .cls-16 {
        fill: #e3c9a6;
      }

      .cls-17 {
        fill: #fffbee;
      }

      .cls-18 {
        fill: #fffcf5;
      }

      .cls-19, .cls-20, .cls-21 {
        fill: #fff;
      }

      .cls-22 {
        fill: #fff5e0;
      }

      .cls-23 {
        fill: #ffe7c1;
      }

      .cls-24 {
        fill: #e85050;
      }

      .cls-25 {
        fill: #e77849;
      }

      .cls-26 {
        fill: #e47748;
      }

      .cls-27 {
        fill: #faf0e3;
      }

      .cls-28 {
        fill: #fdfdfd;
      }

      .cls-29 {
        fill: #919191;
      }

      .cls-30 {
        fill: #815330;
      }

      .cls-31 {
        fill: #68472e;
      }

      .cls-32 {
        fill: #7e6e6a;
      }

      .cls-33 {
        fill: #b7b7b7;
      }

      .cls-34 {
        fill: #8c644b;
      }

      .cls-35 {
        fill: #bb9680;
      }

      .cls-36 {
        fill: #8e889e;
      }

      .cls-37 {
        fill: #d06428;
      }

      .cls-38 {
        fill: #cdc8b8;
      }

      .cls-39 {
        fill: #b19b87;
      }

      .cls-40 {
        fill: #dac4a7;
      }

      .cls-41 {
        fill: #aaa;
      }

      .cls-42 {
        fill: #b38870;
      }

      .cls-43 {
        fill: #a66a50;
      }

      .cls-44 {
        fill: #aedee4;
      }

      .cls-45 {
        fill: #af9e8a;
      }

      .cls-46, .cls-47 {
        fill: #bc9680;
      }

      .cls-48 {
        fill: #bfbeb0;
      }

      .cls-49 {
        fill: #bfe6e4;
      }

      .cls-50 {
        fill: #aa7d60;
      }

      .cls-51 {
        fill: #ce6430;
      }

      .cls-52 {
        fill: #cb672a;
      }

      .cls-53 {
        fill: #d0d0d0;
      }

      .cls-54 {
        fill: #ddd;
      }

      .cls-55 {
        fill: #cbc6bb;
      }

      .cls-56 {
        fill: #d9c3a7;
      }

      .cls-57 {
        fill: #af9985;
      }

      .cls-58 {
        fill: #e37546;
      }

      .cls-59 {
        fill: #d6bfb2;
      }

      .cls-60 {
        fill: #212023;
      }

      .cls-61 {
        fill: #0b0706;
      }

      .cls-62 {
        fill: #1b415c;
      }

      .cls-63, .cls-64 {
        fill: #494349;
      }

      .cls-65 {
        fill: #605352;
      }

      .cls-66 {
        fill: #754c33;
      }

      .cls-67 {
        fill: #716871;
      }

      .cls-68 {
        fill: #7b5540;
      }

      .cls-8, .cls-21, .cls-47, .cls-64 {
        stroke-width: .25px;
      }

      .cls-8, .cls-21, .cls-47, .cls-64, .cls-2 {
        stroke-miterlimit: 10;
      }

      .cls-8, .cls-64 {
        stroke: #fff;
      }

      .cls-20 {
        stroke-miterlimit: 10;
        stroke-width: .25px;
      }

      .cls-20, .cls-21, .cls-2 {
        stroke: #000;
      }

      .cls-47 {
        stroke: #b38870;
      }

      .cls-69 {
        opacity: .49;
      }

      .cls-70 {
        fill: #1e2d57;
        opacity: .85;
      }
    </style>
  </defs>
  <path class="cls-49" d="M3.75,1211.94c-1.05-.31-2.09-.61-3.13-.92-.02,.12-.06,.21-.08,.26-.04,.07-.09,.12-.11,.15-.08,.08-.16,.14-.2,.16-.1,.06-.23,.1-.23,.1H0s.05,.06,.05,.07c.06,.07,.17,.14,.23,.18l.23,.15c.51,.29,.77,.44,.8,.46,.71,.36,1.23,.47,1.39,.5,.37,.07,.54,.05,.67-.05s.2-.29,.25-.42,.07-.25,.09-.36c.02-.11,.03-.21,.04-.28h0Z"/>
  <rect class="cls-70" x="54.32" width="1082" height="1920"/>
  <polygon class="cls-51" points="398.65 835.06 386.44 835.06 362.01 856.68 423.08 856.68 398.65 835.06"/>
  <rect class="cls-3" x="362.48" y="857.47" width="60.59" height="160.06"/>
  <rect class="cls-65" x="362.48" y="856.25" width="60.59" height="1.22"/>
  <path class="cls-25" d="M536.96,861.85h-62.94s0-23.76,0-23.76c13.25,0,26.49,0,39.74,0,7.73,7.92,15.47,15.84,23.2,23.76Z"/>
  <polygon class="cls-11" points="498.97 861.92 473.89 838.09 448.81 861.92 448.81 926.77 499.24 926.77 499.24 861.92 498.97 861.92"/>
  <rect class="cls-56" x="499.05" y="861.92" width="37.91" height="64.85"/>
  <polygon class="cls-3" points="469.48 868.28 469.48 908.86 469.74 908.86 469.74 1021.18 469.48 1021.18 427.32 1021.18 420.48 1021.18 420.48 868.28 469.48 868.28"/>
  <polygon class="cls-52" points="444.64 843.36 420.48 868.23 468.79 868.23 444.64 843.36"/>
  <rect class="cls-19" x="418.52" y="867.34" width="51.49" height="1.78" rx=".32" ry=".32"/>
  <path class="cls-5" d="M1071.32,1920H54.32v-825c218.12-32.9,383-54.51,456-63.13,65.01-7.68,122.03-12.72,186.47-15.23,12.86-.5,21.76-.7,27.01-.88,156.52-5.43,285.89,4.75,375.52,15.24-9.33,296.33-18.67,592.67-28,889Z"/>
  <path class="cls-5" d="M81.32,1920c46.83-26.49,67.64-56.04,78-78,15.94-33.79,26.01-89.12,48-125,25.07-40.89,34.95-35.76,64-79,38.07-56.65,27.23-74.56,62-136,24.03-42.46,47.01-83.07,93-114,0,0,93.61-62.97,115.77-86.42,4.14-4.38,7.91-9.02,7.91-9.02,35.22-43.47,20.05-62.67,61.53-110.75,37.81-43.83,89.84-73.59,127.79-91.84,63.1,.9,126.21,1.8,189.31,2.7,6.9,275.44,13.8,550.88,20.7,826.32-193.33,.33-386.67,.67-580,1H81.32Z"/>
  <path class="cls-5" d="M378.32,1877c4.12-38.44-4.69-52.3,3-81,5.67-21.15,16.12-35.64,24.17-46.08,26.11-33.81,55.83-37.9,78.83-101.92,9.23-25.68,39.83-123.56,72.21-149.72,.6-.48,4.02-3.22,7.41-5.92,9.14-7.3,26.04-20.71,47.01-36.89,10.22-7.89,22.87-17.97,39.76-32.14,64.13-53.81,75.17-70.33,82.64-86.49,14.3-30.93,8.14-44.59,24.99-78.8,15.35-31.19,36.48-52.36,51.89-65.35,25.63,.64,51.25,1.28,76.88,1.92,2.07,241.46,4.14,482.93,6.21,724.39-174.67,.33-349.33,.67-524,1,2.85-9.04,6.97-24.05,9-43Z"/>
  <path class="cls-15" d="M543.81,1099.17c15.72-.11,38.09-.3,64.94-.59,23.8-.26,55.75-.66,129.84-1.88,74.46-1.23,111.68-1.84,124.22-2.29,33.23-1.18,64.7-2.78,122.92-5.74,24.23-1.23,44.3-2.3,58.09-3.04,.43-6.12,.85-12.23,1.28-18.35-29.67,2.57-74.59,5.97-129.51,8.19-54.37,2.2-88.12,2-183.57,2.59-37.95,.23-93.87,.64-162.66,1.39-2.49,.04-9.78,.35-16.3,3.77-11.32,5.93-9.35,15.5-9.25,15.95Z"/>
  <path class="cls-37" d="M1094.56,875.06c-7.34-.09-14.68-.17-22.03-.26v-18.14h18.33c1.23,6.13,2.46,12.27,3.69,18.4Z"/>
  <polygon class="cls-38" points="1072.53 856.66 1069.37 874.68 1075.69 874.68 1072.53 856.66"/>
  <rect class="cls-39" x="1073.95" y="874.68" width="20.61" height="64.92"/>
  <rect class="cls-38" x="1069.37" y="874.68" width="6.32" height="64.92"/>
  <polygon class="cls-15" points="1078.84 885.86 1078.84 917.89 1078.58 917.89 1078.58 1006.54 1078.84 1006.54 1121 1006.54 1127.84 1006.54 1127.84 885.86 1078.84 885.86"/>
  <polygon class="cls-52" points="1103.68 860.94 1127.84 885.82 1079.53 885.82 1103.68 860.94"/>
  <rect class="cls-19" x="1077.47" y="884.93" width="51.49" height="1.78" rx=".32" ry=".32" transform="translate(2206.42 1771.64) rotate(-180)"/>
  <rect class="cls-16" x="1002.31" y="890.13" width="67.06" height="140.87"/>
  <path class="cls-43" d="M1073.56,890.13h-75.43c2.87-4.81,5.75-9.62,8.62-14.42h59.61c2.4,4.81,4.8,9.62,7.2,14.42Z"/>
  <path class="cls-57" d="M1134.32,947c-53.82,61.18-87.53,89.43-108.78,103.84-6.38,4.33-29.75,21.09-59.33,46.06-6.23,5.26-12.95,11.52-21.07,20.03-43.25,45.25-68.93,93.73-87.71,129.73-9.58,18.37-9.43,31.11-22.48,48.16-13.33,17.41-22.7,20.13-37.32,36.45-20.21,22.56-20.19,37.31-31.57,58.41-17.03,31.61-47.64,34.62-75.27,68.85-28.83,35.71-6.43,56.02-30.46,103.54-25.49,50.42-57.92,41.83-91,86.64-37.32,50.56-1.58,109.42-40,186.62-11.92,23.94-35.08,55.35-85,82.66,230.67,.67,461.33,1.33,692,2-.67-324.33-1.33-648.67-2-973Z"/>
  <rect class="cls-39" x="1054.1" y="939.84" width="31.22" height="70.76" transform="translate(2139.41 1950.43) rotate(-180)"/>
  <path class="cls-11" d="M1038,1010.59h17.04s0-90.05,0-90.05c-2.68,0-5.35,0-8.03,0-3,6.32-6,12.64-9.01,18.96,0,23.7,0,47.4,0,71.1Z"/>
  <path class="cls-26" d="M1054.1,939.84h31.22c-2.87-6.43-5.74-12.87-8.61-19.3-9.9,0-19.8,0-29.7,0,2.36,6.43,4.73,12.87,7.09,19.3Z"/>
  <rect class="cls-27" x="1066.16" y="951.39" width="8.4" height="12.55" transform="translate(2140.72 1915.33) rotate(-180)"/>
  <rect class="cls-3" x="1087" y="947.83" width="31.22" height="70.76"/>
  <path class="cls-40" d="M1134.32,1018.58h-17.04v-90.05h8.03c3,6.32,6,12.64,9.01,18.96,0,23.7,0,47.4,0,71.1Z"/>
  <path class="cls-26" d="M1118.22,947.83h-31.22c2.87-6.43,5.74-12.87,8.61-19.3h29.7c-2.36,6.43-4.73,12.87-7.09,19.3Z"/>
  <rect class="cls-45" x="1097.76" y="959.38" width="8.4" height="12.55"/>
  <path class="cls-25" d="M901.48,850.07h62.94s0-23.76,0-23.76c-13.25,0-26.49,0-39.74,0-7.73,7.92-15.47,15.84-23.2,23.76Z"/>
  <polygon class="cls-11" points="939.47 850.14 964.55 826.31 989.63 850.14 989.63 914.99 939.21 914.99 939.21 850.14 939.47 850.14"/>
  <rect class="cls-56" x="901.48" y="850.14" width="37.91" height="64.85" transform="translate(1840.88 1765.13) rotate(-180)"/>
  <polygon class="cls-15" points="953.19 869.19 953.19 909.77 952.94 909.77 952.94 1022.09 953.19 1022.09 995.36 1022.09 1002.2 1022.09 1002.2 869.19 953.19 869.19"/>
  <polygon class="cls-52" points="978.04 844.27 1002.2 869.14 953.88 869.14 978.04 844.27"/>
  <rect class="cls-19" x="951.82" y="868.25" width="51.49" height="1.78" rx=".32" ry=".32" transform="translate(1955.13 1738.29) rotate(-180)"/>
  <rect class="cls-39" x="340.78" y="858.72" width="31.22" height="76.28" transform="translate(712.77 1793.72) rotate(-180)"/>
  <path class="cls-40" d="M324.68,929.47h17.04s0-90.05,0-90.05c-2.68,0-5.35,0-8.03,0-3,6.32-6,12.64-9.01,18.96,0,23.7,0,47.4,0,71.1Z"/>
  <path class="cls-26" d="M340.78,858.72h31.22c-2.87-6.43-5.74-12.87-8.61-19.3-9.9,0-19.8,0-29.7,0,2.36,6.43,4.73,12.87,7.09,19.3Z"/>
  <rect class="cls-27" x="352.84" y="865.27" width="8.4" height="12.55" transform="translate(714.08 1743.09) rotate(-180)"/>
  <rect class="cls-16" x="869.5" y="866.84" width="43.89" height="170.5"/>
  <path class="cls-43" d="M916.14,866.84h-49.37c1.88-4.81,3.76-9.62,5.64-14.42h39.02c1.57,4.81,3.14,9.62,4.72,14.42Z"/>
  <path class="cls-37" d="M675.43,818.64c-7.34-.07-14.68-.15-22.03-.22v-15.42h18.33c1.23,5.21,2.46,10.42,3.69,15.64Z"/>
  <polygon class="cls-38" points="653.4 803 650.25 818.31 656.56 818.31 653.4 803"/>
  <rect class="cls-39" x="654.82" y="818.31" width="20.61" height="58.89"/>
  <rect class="cls-38" x="650.25" y="818.31" width="6.32" height="58.89"/>
  <polygon class="cls-39" points="276.93 877.38 276.93 915.5 276.68 915.5 276.68 1021 276.93 1021 319.1 1021 325.94 1021 325.94 877.38 276.93 877.38"/>
  <polygon class="cls-52" points="301.31 852.51 325.94 877.38 276.68 877.38 301.31 852.51"/>
  <rect class="cls-3" x="239.62" y="914.76" width="31.22" height="70.76"/>
  <path class="cls-40" d="M286.93,985.51h-17.04v-90.05h8.03c3,6.32,6,12.64,9.01,18.96,0,23.7,0,47.4,0,71.1Z"/>
  <path class="cls-26" d="M270.84,914.76h-31.22c2.87-6.43,5.74-12.87,8.61-19.3h29.7c-2.36,6.43-4.73,12.87-7.09,19.3Z"/>
  <rect class="cls-45" x="250.37" y="926.31" width="8.4" height="12.55"/>
  <path class="cls-40" d="M231.14,945.66c6.94-.43,13.01-.31,17.97,0,7.56,.47,13.3,1.42,21.97,2.89,6.69,1.13,12.57,2.31,17.47,3.37,.83,31.01,1.66,62.01,2.5,93.02-.57,2.02-1.76,5.1-4.49,7.71-3.72,3.56-8.34,4.38-10.98,4.82-16.02,2.64-40.59,4.71-41.94,4.82-.83-38.88-1.66-77.76-2.5-116.63Z"/>
  <path class="cls-9" d="M180.79,1062.29c2.28-18.03,4.87-32.1,6.85-41.73,1.85-9,4-18.21,4.98-31.76,.31-4.27,.35-6.9,.63-16.91,.36-13,.7-23.58,.94-30.73h7.53v10.98c3.26-.57,6.72-1.28,10.35-2.2,3.11-.78,6.04-1.63,8.78-2.51,.42-3.97,.84-7.94,1.25-11.92,3.76-.21,7.53-.42,11.29-.63,.02,1.27,.16,10.27,.18,11.55,.32,20.28,.35,21.33,.44,27.65,.24,16.44,.38,24.67,.31,31.36-.12,11.88-.42,13.38-.31,23.21,.09,7.76,.39,17.1,.63,24.46,.12,3.81,.24,6.96,.31,9.09-18.06,.03-36.11,.05-54.17,.08Z"/>
  <rect class="cls-40" x="678.42" y="839.25" width="40.87" height="143.43"/>
  <path class="cls-26" d="M698.61,820.06c-11.42,0-20.67,6.71-20.67,14.99h41.34c0-8.28-9.26-14.99-20.67-14.99Z"/>
  <rect class="cls-39" x="675.51" y="835.05" width="46.67" height="4.71" rx=".84" ry=".84"/>
  <rect class="cls-16" x="581.45" y="826.49" width="67.06" height="170.5"/>
  <path class="cls-43" d="M652.7,826.49h-75.43c2.87-4.81,5.75-9.62,8.62-14.42h59.61c2.4,4.81,4.8,9.62,7.2,14.42Z"/>
  <polygon class="cls-15" points="833.03 904.32 833.03 936.34 832.77 936.34 832.77 1024.99 833.03 1024.99 875.19 1024.99 882.03 1024.99 882.03 904.32 833.03 904.32"/>
  <polygon class="cls-52" points="857.87 879.4 882.03 904.27 833.72 904.27 857.87 879.4"/>
  <rect class="cls-19" x="831.66" y="903.38" width="51.49" height="1.78" rx=".32" ry=".32" transform="translate(1714.8 1808.54) rotate(-180)"/>
  <rect class="cls-16" x="735.29" y="854.49" width="107.67" height="170.5"/>
  <path class="cls-43" d="M849.68,854.49h-121.11c4.61-4.81,9.22-9.62,13.84-14.42h95.7c3.86,4.81,7.71,9.62,11.57,14.42Z"/>
  <rect class="cls-39" x="719.46" y="897.74" width="31.22" height="83.27"/>
  <path class="cls-40" d="M766.77,981.01h-17.04v-105.99h8.03c3,7.44,6,14.88,9.01,22.31,0,27.89,0,55.78,0,83.67Z"/>
  <path class="cls-26" d="M750.68,897.74h-31.22c2.87-7.57,5.74-15.14,8.61-22.71h29.7c-2.36,7.57-4.73,15.14-7.09,22.71Z"/>
  <rect class="cls-27" x="730.22" y="911.33" width="8.4" height="14.77"/>
  <path class="cls-37" d="M719.46,898.51c-7.34-.09-14.68-.17-22.03-.26v-18.14h18.33c1.23,6.13,2.46,12.27,3.69,18.4Z"/>
  <polygon class="cls-38" points="697.44 880.11 694.28 898.13 700.6 898.13 697.44 880.11"/>
  <rect class="cls-3" x="698.85" y="898.13" width="20.61" height="64.92"/>
  <rect class="cls-38" x="694.28" y="898.13" width="6.32" height="64.92"/>
  <polygon class="cls-39" points="640.33 885.6 640.33 906.87 640.08 906.87 640.08 965.75 640.33 965.75 682.5 965.75 689.34 965.75 689.34 885.6 640.33 885.6"/>
  <polygon class="cls-52" points="665.18 859.83 689.34 884.71 641.02 884.71 665.18 859.83"/>
  <rect class="cls-19" x="639.19" y="883.81" width="51.49" height="1.78" rx=".32" ry=".32" transform="translate(1329.87 1769.41) rotate(180)"/>
  <rect class="cls-19" x="655.87" y="895.88" width="18.61" height="10.27" transform="translate(-235.83 1566.19) rotate(-90)"/>
  <rect class="cls-45" x="657.26" y="897" width="15.83" height="8.03" transform="translate(-235.83 1566.19) rotate(-90)"/>
  <path class="cls-12" d="M664.08,937.99h21.65c1.56,0,2.83,1.27,2.83,2.83v10.25c0,1.56-1.27,2.83-2.83,2.83h-21.65v-15.91h0Z" transform="translate(-269.63 1622.27) rotate(-90)"/>
  <rect class="cls-11" x="468.32" y="926" width="60.67" height="98.99"/>
  <rect class="cls-39" x="572.11" y="914.99" width="31.22" height="70.76" transform="translate(1175.44 1900.73) rotate(-180)"/>
  <path class="cls-40" d="M556.02,985.74h17.04s0-90.05,0-90.05h-8.03c-3,6.32-6,12.64-9.01,18.96,0,23.7,0,47.4,0,71.1Z"/>
  <path class="cls-26" d="M572.11,914.99h31.22c-2.87-6.43-5.74-12.87-8.61-19.3-9.9,0-19.8,0-29.7,0,2.36,6.43,4.73,12.87,7.09,19.3Z"/>
  <rect class="cls-27" x="584.18" y="926.54" width="8.4" height="12.55" transform="translate(1176.75 1865.63) rotate(-180)"/>
  <rect class="cls-15" x="449.87" y="941.87" width="127.2" height="31.05" transform="translate(-443.94 1470.87) rotate(-90)"/>
  <polygon class="cls-58" points="513.46 877.36 497.94 893.8 528.99 893.8 513.46 877.36"/>
  <rect class="cls-3" x="603.02" y="922.97" width="31.22" height="70.76"/>
  <path class="cls-40" d="M650.33,993.73h-17.04v-90.05h8.03c3,6.32,6,12.64,9.01,18.96,0,23.7,0,47.4,0,71.1Z"/>
  <path class="cls-26" d="M634.24,922.97h-31.22c2.87-6.43,5.74-12.87,8.61-19.3h29.7c-2.36,6.43-4.73,12.87-7.09,19.3Z"/>
  <rect class="cls-45" x="613.77" y="934.53" width="8.4" height="12.55"/>
  <rect class="cls-48" x="525.75" y="881.3" width="40.87" height="143.43"/>
  <polygon class="cls-6" points="546 816.39 553.76 838.96 538.23 838.96 546 816.39"/>
  <rect class="cls-19" x="545.63" y="805.64" width=".74" height="13.88"/>
  <rect class="cls-19" x="545.63" y="805.84" width=".74" height="6.94" transform="translate(1355.31 263.32) rotate(90)"/>
  <rect class="cls-55" x="525.59" y="884.39" width="7.23" height="140.35"/>
  <rect class="cls-14" x="534.14" y="884.39" width="11.22" height="140.35"/>
  <rect class="cls-14" x="546.82" y="884.39" width="11.22" height="140.35"/>
  <rect class="cls-55" x="559.55" y="884.39" width="7.23" height="140.35"/>
  <polygon class="cls-36" points="546 815.58 547.87 838.96 544.13 838.96 546 815.58"/>
  <circle class="cls-23" cx="546.06" cy="817.55" r="1.97"/>
  <g>
    <path class="cls-55" d="M545.92,842.32c.29,0,.52,.24,.52,.54h.32c0-.48-.37-.88-.84-.88s-.84,.39-.84,.88h.32c0-.3,.23-.54,.52-.54Z"/>
    <path class="cls-14" d="M549.27,848.07c-.35-.36-.58-.71-.73-.96-.32-.55-.45-1.03-.53-1.35-.11-.45-.17-.95-.17-.95-.04-.29-.03-.36-.08-.57-.05-.25-.11-.52-.31-.81-.21-.3-.45-.46-.53-.51-.22-.14-.43-.19-.57-.23-.17-.05-.32-.07-.43-.08,0,0,0,.01,0,.02,0,0,0-.01,0-.02-.11,.01-.26,.03-.43,.08-.15,.04-.35,.09-.57,.23-.08,.05-.32,.21-.53,.51-.2,.29-.26,.56-.31,.81-.05,.21-.04,.28-.08,.57,0,0-.06,.5-.17,.95-.08,.32-.21,.8-.53,1.35-.15,.25-.38,.6-.73,.96,1.12-.02,2.23-.04,3.35-.06,1.12,.02,2.23,.04,3.35,.06Z"/>
    <path class="cls-14" d="M550.01,848.29s-.1-.18-.29-.34c-.18-.14-.35-.21-.53-.28-.41-.15-.61-.23-.9-.29-.53-.12-.94-.14-1.6-.17-.32-.01-.59-.02-.78-.02-.19,0-.46,0-.78,.02-.66,.03-1.07,.05-1.6,.17-.29,.07-.49,.14-.9,.29-.18,.07-.35,.13-.53,.28-.19,.16-.27,.3-.29,.34-.07,.14-.1,.27-.11,.36,.47,.09,3.77,.72,4.21-.18,.44,.89,3.73,.27,4.21,.18,0-.09-.03-.22-.11-.36Z"/>
    <ellipse class="cls-55" cx="545.92" cy="848.68" rx="4.21" ry=".82"/>
    <ellipse class="cls-14" cx="546.06" cy="848.35" rx=".76" ry=".5"/>
  </g>
  <path class="cls-19" d="M537.01,890.6h5.49c.84,0,1.51,.68,1.51,1.51v14.23h-8.52v-14.23c0-.84,.68-1.51,1.51-1.51Z"/>
  <rect class="cls-61" x="540.17" y="897.51" width="2.91" height="3.42"/>
  <rect class="cls-61" x="536.42" y="897.51" width="2.91" height="3.42"/>
  <rect class="cls-61" x="536.42" y="901.88" width="2.91" height="3.7"/>
  <rect class="cls-61" x="540.17" y="901.88" width="2.91" height="3.7"/>
  <path class="cls-19" d="M549.69,890.6h5.49c.84,0,1.51,.68,1.51,1.51v14.23h-8.52v-14.23c0-.84,.68-1.51,1.51-1.51Z"/>
  <rect class="cls-61" x="552.87" y="897.51" width="2.91" height="3.42"/>
  <rect class="cls-61" x="549.13" y="897.51" width="2.91" height="3.42"/>
  <rect class="cls-61" x="549.13" y="901.88" width="2.91" height="3.7"/>
  <rect class="cls-61" x="552.87" y="901.88" width="2.91" height="3.7"/>
  <path class="cls-19" d="M566.25,904.57c-2.06,.59-4.12,1.18-6.18,1.77v-13.66c0-1.71,1.38-3.09,3.09-3.09h0c1.71,0,3.09,1.38,3.09,3.09v11.89Z"/>
  <rect class="cls-60" x="563.49" y="896.63" width="2.1" height="3.68"/>
  <path class="cls-60" d="M562.83,900.31h-2.09c0-1.23,0-2.46,0-3.68h2.09v3.68Z"/>
  <path class="cls-60" d="M563.49,901.04h2.1v2.77c-.7,.22-1.4,.44-2.1,.67v-3.44Z"/>
  <path class="cls-60" d="M562.83,901.04v3.65c-.7,.22-1.4,.44-2.1,.67,0-1.44,0-2.87,0-4.31h2.09Z"/>
  <path class="cls-19" d="M526.11,904.63c2.06,.59,4.12,1.18,6.18,1.77,0-4.55,0-9.11,0-13.66,0-1.71-1.38-3.09-3.09-3.09h0c-1.71,0-3.09,1.38-3.09,3.09v11.89Z"/>
  <rect class="cls-60" x="526.78" y="896.68" width="2.1" height="3.68"/>
  <path class="cls-60" d="M529.53,900.37h2.09c0-1.23,0-2.46,0-3.68h-2.09s0,3.68,0,3.68Z"/>
  <path class="cls-60" d="M528.88,901.09h-2.1s0,2.77,0,2.77c.7,.22,1.4,.44,2.1,.67v-3.44Z"/>
  <path class="cls-60" d="M529.53,901.09v3.65c.7,.22,1.4,.44,2.1,.67,0-1.44,0-2.87,0-4.31h-2.09Z"/>
  <path d="M537.88,892.72c-.8,0-1.46,.51-1.46,1.14h0v2.7h2.91v-2.7c0-.63-.65-1.14-1.46-1.14Z"/>
  <path d="M543.08,893.86c0-.63-.65-1.14-1.46-1.14s-1.46,.51-1.46,1.14h0v2.7h2.91v-2.7h0Z"/>
  <path d="M550.56,892.84c-.8,0-1.46,.51-1.46,1.14h0v2.7h2.91v-2.7c0-.63-.65-1.14-1.46-1.14Z"/>
  <path d="M555.76,893.98c0-.63-.65-1.14-1.46-1.14s-1.46,.51-1.46,1.14h0v2.7h2.91v-2.7h0Z"/>
  <path d="M527.83,891.91c-.58,0-1.05,.36-1.05,.81,0,0,0,0,0,.01v3.22s2.09,0,2.09,0v-3.24c0-.45-.47-.81-1.05-.81Z"/>
  <path d="M531.63,892.72c0-.45-.47-.81-1.05-.81s-1.05,.36-1.05,.81h0v3.24h2.1v-3.24h0Z"/>
  <path d="M561.79,891.91c-.58,0-1.05,.36-1.05,.81,0,0,0,0,0,.01v3.22s2.09,0,2.09,0v-3.24c0-.45-.47-.81-1.05-.81Z"/>
  <path d="M565.58,892.72c0-.45-.47-.81-1.05-.81s-1.05,.36-1.05,.81h0v3.24h2.1v-3.24h0Z"/>
  <path class="cls-14" d="M538.23,838.96v31.48h2.04v-22.64c0-3.7,2.58-6.7,5.76-6.7h0c3.18,0,5.76,3,5.76,6.7v22.64h1.96v-31.48h-15.53Z"/>
  <path class="cls-6" d="M546.18,851.28c-10.77,0-19.5,10.63-19.5,23.75h38.99c0-13.12-8.73-23.75-19.5-23.75Z"/>
  <rect class="cls-19" x="522.85" y="873.75" width="46.67" height="8.06" rx="1.43" ry="1.43"/>
  <path class="cls-15" d="M82.32,1076c14.05-4.08,19.48-4.77,34.86-9.15,9.56-2.72,10.93-3.4,26.27-6.86,46.26-10.44,87.08-16.27,112.47-22.23,34.29-8.05,30.55-8.52,49.99-12.26,40.54-7.8,73.62-8.96,106.22-9.96,18.12-.56,20.46-.18,78.1,0,29.99,.1,30.44,0,87.48,0,166.35,0,249.52,0,343.66,1.53,24.76,.4,62.66,1.1,109.34,2.3,6.25,.77,12.5,1.53,18.74,2.3,.35,3.58,.69,7.15,1.04,10.73-6.17,.82-15.57,1.98-27.08,3.07-36.95,3.48-62.66,3.02-101.01,3.07-8.27,.01-31.55,.26-78.1,.77-55.04,.6-56.84,1.01-103.1,1.53-65.34,.74-74.72,.05-127.05,.77-42.29,.58-76.46,1.58-97.89,2.3-7.87,3.03-19.99,6.88-35.41,8.43-15.4,1.55-25.83-.01-36.45-.77-17.77-1.26-34.41,.95-67.69,5.37-20.99,2.79-48.13,7.38-79.14,15.33-48.6,8.94-97.2,17.89-145.79,26.83-76.75-5.89-93.47-10.68-93.46-14.08,0-2.04,8-4.36,24-9Z"/>
  <rect class="cls-40" x="395.82" y="897" width="12.58" height="11.66"/>
  <rect class="cls-40" x="416.82" y="897" width="12.58" height="11.66"/>
  <rect class="cls-40" x="437.82" y="897" width="12.58" height="11.66"/>
  <rect class="cls-40" x="458.83" y="897" width="12.58" height="11.66"/>
  <path class="cls-40" d="M487.9,1028.87l-16.73-101.06h-75.12l-16.73,101.06c-.18,1.11,.67,2.13,1.8,2.13h104.97c1.13,0,1.99-1.01,1.8-2.13Z"/>
  <path class="cls-40" d="M471.41,928.91c-10.24,2.02-22.98,3.69-37.64,3.7-14.8,.01-27.64-1.66-37.94-3.7v-23.2c11.22,1.17,23.63,1.93,37.07,1.96,14,.03,26.9-.75,38.52-1.96v23.2Z"/>
  <path class="cls-39" d="M471.41,928.98c-10.84,1.52-23.35,2.6-37.22,2.63-14.34,.03-27.24-1.07-38.37-2.63v-4.98c11.04,1.47,23.72,2.51,37.76,2.51,14.06,0,26.77-1.04,37.83-2.51v4.98Z"/>
  <polygon class="cls-52" points="691.68 919.07 667.52 943.95 715.84 943.95 691.68 919.07"/>
  <path class="cls-11" d="M667.52,1024.99h-31.13v-47.85c10.38-9.59,20.75-19.17,31.13-28.76v76.61Z"/>
  <path class="cls-30" d="M636.4,977.03c12.18-10.82,24.36-21.64,36.54-32.45-1.64-.37-3.27-.73-4.91-1.1-10.54,11.18-21.09,22.37-31.63,33.55Z"/>
  <path class="cls-11" d="M743.93,944.84h-76.4v80.15h75.59v-58.88c.27-7.09,.54-14.18,.81-21.27Z"/>
  <rect class="cls-19" x="666.18" y="943.06" width="51.49" height="1.78" rx=".32" ry=".32"/>
  <rect class="cls-39" x="640.38" y="978.66" width="10.32" height="8.03"/>
  <rect class="cls-19" x="687.78" y="999.77" width="23.44" height="11.89" transform="translate(-306.21 1705.21) rotate(-90)"/>
  <rect class="cls-39" x="689.53" y="1000.65" width="19.94" height="9.22" transform="translate(-305.76 1704.76) rotate(-90)"/>
  <rect class="cls-19" x="682.38" y="955.12" width="18.61" height="10.27" transform="translate(-268.57 1651.94) rotate(-90)"/>
  <rect class="cls-39" x="683.77" y="956.24" width="15.83" height="8.03" transform="translate(-268.57 1651.94) rotate(-90)"/>
  <rect class="cls-19" x="704.12" y="999.77" width="23.44" height="11.89" transform="translate(-289.87 1721.55) rotate(-90)"/>
  <rect class="cls-39" x="705.87" y="1000.65" width="19.94" height="9.22" transform="translate(-289.42 1721.1) rotate(-90)"/>
  <rect class="cls-19" x="720.46" y="999.77" width="23.44" height="11.89" transform="translate(-273.53 1737.89) rotate(-90)"/>
  <rect class="cls-39" x="722.21" y="1000.65" width="19.94" height="9.22" transform="translate(-273.08 1737.44) rotate(-90)"/>
  <path class="cls-12" d="M668.3,997.24h21.65c1.56,0,2.83,1.27,2.83,2.83v10.25c0,1.56-1.27,2.83-2.83,2.83h-21.65v-15.91h0Z" transform="translate(-324.65 1685.73) rotate(-90)"/>
  <path class="cls-25" d="M638.27,986.78h-62.94v-13.99h39.74c7.73,4.66,15.47,9.32,23.2,13.99Z"/>
  <polygon class="cls-3" points="600.28 986.82 575.2 972.79 550.12 986.82 550.12 1024.99 600.55 1024.99 600.55 986.82 600.28 986.82"/>
  <rect class="cls-56" x="600.36" y="986.82" width="37.91" height="38.17"/>
  <rect class="cls-27" x="577.76" y="990.41" width="5.01" height="8.49"/>
  <rect class="cls-27" x="609.97" y="997.42" width="5.01" height="8.49"/>
  <rect class="cls-27" x="627.37" y="997.42" width="5.01" height="8.49"/>
  <polygon class="cls-51" points="939.59 889.47 920.16 889.47 881.28 923.88 978.47 923.88 939.59 889.47"/>
  <rect class="cls-45" x="882.03" y="925.14" width="96.44" height="100.32"/>
  <rect class="cls-65" x="882.03" y="923.2" width="96.44" height="1.94"/>
  <ellipse class="cls-55" cx="95.67" cy="1071.93" rx="8.41" ry="5.19" transform="translate(-483.87 165.11) rotate(-27.48)"/>
  <ellipse class="cls-55" cx="73.05" cy="1079.25" rx="8.41" ry="5.19" transform="translate(-489.8 155.5) rotate(-27.48)"/>
  <rect class="cls-11" x="1007.89" y="944.84" width="31.09" height="80.62"/>
  <rect class="cls-11" x="740.75" y="944.84" width="25.47" height="80.62"/>
  <path class="cls-25" d="M494.67,997.25h44.94s0-9.99,0-9.99c-9.46,0-18.91,0-28.37,0-5.52,3.33-11.04,6.66-16.56,9.99Z"/>
  <polygon class="cls-56" points="521.79 997.29 539.7 987.27 557.61 997.29 557.61 1024.54 521.61 1024.54 521.61 997.29 521.79 997.29"/>
  <rect class="cls-3" x="494.67" y="997.29" width="27.07" height="27.26" transform="translate(1016.41 2021.83) rotate(-180)"/>
  <path class="cls-57" d="M968.91,1200.11c-94.13,9.07-141.64,6.42-165.38,3.52-23.23-2.83-26.6-6.24-26.65-8.22-.17-6.5,32.74-14.6,35.54-15.27,23.54-5.7,29.76-2.11,43.05-11.75,12.57-9.12,10.19-14.65,21.18-22.32,16.1-11.25,22.23-.11,54.67-1.17,20.65-.68,26.95-5.48,32.8,3.52,8.12,12.49,6.39,37.7,4.78,51.7Z"/>
  <path class="cls-40" d="M1066.28,1150.56c-49.43-1.11-98.87-2.21-148.3-3.32,1.97-21.03,3.94-42.06,5.9-63.08h142.4v66.4Z"/>
  <rect class="cls-40" x="1066.28" y="1072.72" width="68.04" height="77.84"/>
  <rect class="cls-32" x="1072.32" y="1072.72" width="10.84" height="77.84"/>
  <path class="cls-25" d="M1110.36,1020.53h-62.94v-13.99h39.74c7.73,4.66,15.47,9.32,23.2,13.99Z"/>
  <polygon class="cls-3" points="1072.37 1020.57 1047.29 1006.54 1022.21 1020.57 1022.21 1058.74 1072.63 1058.74 1072.63 1020.57 1072.37 1020.57"/>
  <rect class="cls-56" x="1072.45" y="1020.57" width="37.91" height="38.17"/>
  <rect class="cls-27" x="1049.84" y="1024.16" width="5.01" height="8.49"/>
  <rect class="cls-27" x="1082.06" y="1031.17" width="5.01" height="8.49"/>
  <rect class="cls-27" x="1099.45" y="1031.17" width="5.01" height="8.49"/>
  <path class="cls-39" d="M1134.32,1056.86h-54.66c-37.72-.25-75.44-.49-113.15-.74-16.79,9.47-33.58,18.94-50.37,28.41,52.32,1.23,104.64,2.46,156.96,3.69,.93-4.43,1.86-8.85,2.78-13.28h58.45v-18.08Z"/>
  <ellipse class="cls-55" cx="545.64" cy="1097.75" rx="5.3" ry="2.66" transform="translate(-64.15 34.29) rotate(-3.4)"/>
  <ellipse class="cls-55" cx="552.22" cy="1097.75" rx="3.88" ry="2.66" transform="translate(-64.14 34.68) rotate(-3.4)"/>
  <ellipse class="cls-48" cx="557.28" cy="1097.9" rx="3.23" ry="2.22" transform="translate(-64.14 34.99) rotate(-3.4)"/>
  <ellipse class="cls-55" cx="563.05" cy="1097.9" rx="2.5" ry="3.64" transform="translate(-602.87 1501.69) rotate(-81.95)"/>
  <ellipse class="cls-48" cx="568.89" cy="1097.9" rx="3.64" ry="2.5" transform="translate(-258.48 178.94) rotate(-14.61)"/>
  <ellipse class="cls-48" cx="576.22" cy="1097.9" rx="5.3" ry="2.66" transform="translate(-64.1 36.11) rotate(-3.4)"/>
  <ellipse class="cls-55" cx="583.19" cy="1097.75" rx="3.23" ry="2.22" transform="translate(-445 399.19) rotate(-27.83)"/>
  <ellipse class="cls-55" cx="590.54" cy="1097.75" rx="5.3" ry="2.66" transform="translate(-64.07 36.96) rotate(-3.4)"/>
  <ellipse class="cls-48" cx="596.66" cy="1097.75" rx="2.5" ry="3.64" transform="translate(-573.82 1534.83) rotate(-81.95)"/>
  <ellipse class="cls-55" cx="603.99" cy="1097.83" rx="5.3" ry="2.66" transform="translate(-64.05 37.76) rotate(-3.4)"/>
  <ellipse class="cls-55" cx="610.57" cy="1097.83" rx="3.88" ry="2.66" transform="translate(-64.04 38.15) rotate(-3.4)"/>
  <ellipse class="cls-48" cx="615.64" cy="1097.97" rx="3.23" ry="2.22" transform="translate(-64.04 38.45) rotate(-3.4)"/>
  <ellipse class="cls-55" cx="621.41" cy="1097.97" rx="2.5" ry="3.64" transform="translate(-552.75 1559.53) rotate(-81.95)"/>
  <ellipse class="cls-48" cx="627.25" cy="1097.97" rx="3.64" ry="2.5" transform="translate(-256.61 193.66) rotate(-14.61)"/>
  <ellipse class="cls-48" cx="634.58" cy="1097.97" rx="5.3" ry="2.66" transform="translate(-64 39.57) rotate(-3.4)"/>
  <ellipse class="cls-55" cx="641.54" cy="1097.83" rx="3.23" ry="2.22" transform="translate(-438.29 426.44) rotate(-27.83)"/>
  <ellipse class="cls-55" cx="648.9" cy="1097.83" rx="5.3" ry="2.66" transform="translate(-63.97 40.42) rotate(-3.4)"/>
  <ellipse class="cls-48" cx="655.01" cy="1097.83" rx="2.5" ry="3.64" transform="translate(-523.71 1592.68) rotate(-81.95)"/>
  <ellipse class="cls-55" cx="661.03" cy="1097.68" rx="5.3" ry="2.66" transform="translate(-63.94 41.14) rotate(-3.4)"/>
  <ellipse class="cls-55" cx="667.61" cy="1097.68" rx="3.88" ry="2.66" transform="translate(-63.93 41.53) rotate(-3.4)"/>
  <ellipse class="cls-48" cx="672.68" cy="1097.83" rx="3.23" ry="2.22" transform="translate(-63.93 41.83) rotate(-3.4)"/>
  <ellipse class="cls-55" cx="678.45" cy="1097.83" rx="2.5" ry="3.64" transform="translate(-503.56 1615.88) rotate(-81.95)"/>
  <ellipse class="cls-48" cx="684.29" cy="1097.83" rx="3.64" ry="2.5" transform="translate(-254.73 208.04) rotate(-14.61)"/>
  <ellipse class="cls-48" cx="691.62" cy="1097.83" rx="5.3" ry="2.66" transform="translate(-63.89 42.95) rotate(-3.4)"/>
  <ellipse class="cls-55" cx="698.58" cy="1097.68" rx="3.23" ry="2.22" transform="translate(-431.62 453.04) rotate(-27.83)"/>
  <ellipse class="cls-55" cx="705.94" cy="1097.68" rx="5.3" ry="2.66" transform="translate(-63.86 43.8) rotate(-3.4)"/>
  <ellipse class="cls-48" cx="712.05" cy="1097.68" rx="2.5" ry="3.64" transform="translate(-474.51 1649.03) rotate(-81.95)"/>
  <ellipse class="cls-55" cx="719.01" cy="1097.61" rx="5.3" ry="2.66" transform="translate(-63.83 44.58) rotate(-3.4)"/>
  <ellipse class="cls-55" cx="725.58" cy="1097.61" rx="3.88" ry="2.66" transform="translate(-63.82 44.97) rotate(-3.4)"/>
  <ellipse class="cls-48" cx="730.65" cy="1097.75" rx="3.23" ry="2.22" transform="translate(-63.82 45.27) rotate(-3.4)"/>
  <ellipse class="cls-55" cx="736.42" cy="1097.75" rx="2.5" ry="3.64" transform="translate(-453.63 1673.22) rotate(-81.95)"/>
  <ellipse class="cls-48" cx="742.26" cy="1097.75" rx="3.64" ry="2.5" transform="translate(-252.84 222.66) rotate(-14.61)"/>
  <ellipse class="cls-48" cx="749.59" cy="1097.75" rx="5.3" ry="2.66" transform="translate(-63.79 46.39) rotate(-3.4)"/>
  <ellipse class="cls-55" cx="756.56" cy="1097.61" rx="3.23" ry="2.22" transform="translate(-424.89 480.1) rotate(-27.83)"/>
  <ellipse class="cls-55" cx="763.91" cy="1097.61" rx="5.3" ry="2.66" transform="translate(-63.75 47.24) rotate(-3.4)"/>
  <ellipse class="cls-48" cx="770.02" cy="1097.61" rx="2.5" ry="3.64" transform="translate(-424.59 1706.37) rotate(-81.95)"/>
  <ellipse class="cls-55" cx="829.06" cy="1094.87" rx="5.3" ry="2.66" transform="translate(-63.48 51.1) rotate(-3.4)"/>
  <ellipse class="cls-55" cx="835.64" cy="1094.87" rx="3.88" ry="2.66" transform="translate(-63.47 51.49) rotate(-3.4)"/>
  <ellipse class="cls-48" cx="840.7" cy="1095.01" rx="3.23" ry="2.22" transform="translate(-63.47 51.79) rotate(-3.4)"/>
  <ellipse class="cls-55" cx="846.47" cy="1095.01" rx="2.5" ry="3.64" transform="translate(-356.27 1779.83) rotate(-81.95)"/>
  <ellipse class="cls-48" cx="852.31" cy="1095.01" rx="3.64" ry="2.5" transform="translate(-248.59 250.32) rotate(-14.61)"/>
  <ellipse class="cls-48" cx="859.64" cy="1095.01" rx="5.3" ry="2.66" transform="translate(-63.43 52.91) rotate(-3.4)"/>
  <ellipse class="cls-55" cx="866.61" cy="1094.87" rx="3.23" ry="2.22" transform="translate(-410.88 531.16) rotate(-27.83)"/>
  <ellipse class="cls-55" cx="873.96" cy="1094.87" rx="5.3" ry="2.66" transform="translate(-63.4 53.76) rotate(-3.4)"/>
  <ellipse class="cls-48" cx="880.08" cy="1094.87" rx="2.5" ry="3.64" transform="translate(-327.23 1812.98) rotate(-81.95)"/>
  <ellipse class="cls-55" cx="887.31" cy="1094.64" rx="5.3" ry="2.66" transform="translate(-123.38 112.77) rotate(-6.8)"/>
  <ellipse class="cls-55" cx="893.87" cy="1094.25" rx="3.88" ry="2.66" transform="translate(-123.28 113.54) rotate(-6.8)"/>
  <ellipse class="cls-48" cx="898.94" cy="1094.1" rx="3.23" ry="2.22" transform="translate(-123.23 114.14) rotate(-6.8)"/>
  <ellipse class="cls-55" cx="904.7" cy="1093.75" rx="2.5" ry="3.64" transform="translate(-258.78 1906.84) rotate(-85.35)"/>
  <ellipse class="cls-48" cx="910.53" cy="1093.41" rx="3.64" ry="2.5" transform="translate(-293.4 335.02) rotate(-18.01)"/>
  <ellipse class="cls-48" cx="917.84" cy="1092.97" rx="5.3" ry="2.66" transform="translate(-122.96 116.37) rotate(-6.8)"/>
  <ellipse class="cls-55" cx="799.79" cy="1095.75" rx="5.3" ry="2.66" transform="translate(-101.42 81.78) rotate(-5.5)"/>
  <ellipse class="cls-55" cx="806.37" cy="1095.51" rx="3.88" ry="2.66" transform="translate(-101.37 82.41) rotate(-5.5)"/>
  <ellipse class="cls-48" cx="811.43" cy="1095.47" rx="3.23" ry="2.22" transform="translate(-101.34 82.89) rotate(-5.5)"/>
  <ellipse class="cls-55" cx="817.2" cy="1095.26" rx="2.5" ry="3.64" transform="translate(-356.8 1794.64) rotate(-84.06)"/>
  <ellipse class="cls-48" cx="823.04" cy="1095.04" rx="3.64" ry="2.5" transform="translate(-280.11 282.9) rotate(-16.71)"/>
  <ellipse class="cls-48" cx="792.9" cy="1095.89" rx="3.23" ry="2.22" transform="translate(-101.47 81.11) rotate(-5.5)"/>
  <ellipse class="cls-55" cx="788.07" cy="1096.62" rx="3.88" ry="2.66" transform="translate(-101.56 80.66) rotate(-5.5)"/>
  <rect class="cls-68" x="809.67" y="1016.33" width=".59" height="12.45" rx=".11" ry=".11"/>
  <ellipse class="cls-47" cx="810.16" cy="1017.57" rx="8.71" ry="3.07"/>
  <rect class="cls-42" x="801.35" y="1014.93" width=".54" height="14.88" rx=".12" ry=".12" transform="translate(-374.47 470.43) rotate(-26.76)"/>
  <path class="cls-18" d="M797.45,1002.42c-.14,.31-.25,.67-.27,1.1-.02,.36-.03,.55,.1,.71,.19,.24,.55,.24,1.25,.21,.34-.01,.75-.03,1.29-.17,.69-.18,.88-.22,1.01-.38,.08-.11,.13-.24,.21-.52,.1-.35,.08-.49,.14-.83,.09-.45,.23-.79,.3-.93,.08-.17,.22-.44,.5-.81,1.13-1.5,2.47-2.4,2.47-2.4,.65-.42,1.64-.97,2.92-1.36,1.41-.42,2.56-.47,2.56-.51,0-.05-1.38-.02-3.01,.27-.75,.13-1.68,.34-2.75,.7-1.58,.53-3.05,1.02-4.45,2.19-.68,.57-1.13,1.12-1.57,1.66-.25,.3-.49,.63-.69,1.09h0Z"/>
  <path class="cls-18" d="M800.44,1003.58c.07,.15,.19,.29,.51,.49,.34,.21,.92,.49,1.97,.62,.88,.1,1.46,.01,2.41-.13,.36-.05,.87-.15,1.18-.51,.15-.17,.23-.38,.23-.38,.1-.24,.1-.43,.1-.64,0-.31,.05-.62,.05-.92,0-.84,.29-1.72,.41-2.07,.18-.55,.41-.99,.87-1.87,.34-.64,.47-.83,.67-1,0,0,.23-.2,1.08-.64,0,0-1.34,.04-2.56,.31-.37,.08-1.15,.27-2.07,.69-1.1,.5-1.84,1.08-2,1.2-.26,.21-.91,.75-1.56,1.61-.55,.72-.81,1.29-1,1.72-.43,.95-.4,1.3-.28,1.54h0Z"/>
  <path class="cls-18" d="M819.54,1003.61c.09,.17,.1,.25,.14,.32,.11,.21,.35,.31,.9,.43,.98,.22,1.61,.22,1.77,.22,.49,0,.74,0,.87-.14,.31-.32,.07-1-.07-1.41-.45-1.27-1.25-2.08-1.44-2.28-.52-.51-1.69-1.58-3.68-2.49-1.46-.67-2.65-.92-4.08-1.23-1.61-.35-3.02-.5-3.03-.43-.01,.07,1.21,.2,2.78,.83,.84,.34,2.14,.87,3.4,2.06,.84,.8,1.61,1.52,1.73,2.35,.02,.12,.13,.96,.43,1.34,.04,.04,.17,.2,.29,.43h0Z"/>
  <path class="cls-18" d="M814.25,1004.14c.5,.25,.74,.38,.94,.44,.42,.13,.74,.15,1.24,.18,.41,.02,.9,.04,1.54-.05,.6-.09,.97-.23,1.36-.39,.46-.18,.63-.31,.72-.49,.1-.21,.06-.43,0-.67-.18-.74-.27-1.11-.49-1.55-.51-1-1.12-1.68-1.34-1.91-.14-.15-.77-.78-1.76-1.37-.66-.39-1.24-.61-1.72-.79-.46-.18-.79-.27-1.32-.43-.56-.16-1.18-.32-1.93-.43-.48-.07-.87-.11-.91,0-.06,.14,.44,.39,.83,.73,.84,.73,.47,1.29,1.34,3.13,.38,.8,1.16,2.21,.97,2.79-.01,.04-.07,.19-.02,.35,.06,.2,.24,.3,.55,.46h0Z"/>
  <path class="cls-18" d="M806.53,1003.63c.08,.21,.21,.35,.29,.42,.23,.22,.48,.3,.75,.37,.7,.2,1.27,.26,1.31,.27,.56,.06,.98,.07,1.47,.07,.7,0,1.06,.01,1.47-.06,.25-.04,.58-.14,1.23-.35,.48-.15,.76-.26,.9-.53,.04-.08,.06-.16,.07-.28,.08-.61-.06-1.14-.07-1.21-.24-.96-.09-.77-.35-1.74-.2-.75-.33-1.23-.62-1.83-.22-.46-.49-.98-1.03-1.5-.31-.3-.71-.68-1.34-.79-.41-.07-.74,0-.81,.02-.47,.12-.81,.4-1.12,.75-.19,.21-.95,1.09-1.49,2.7-.23,.69-.17,.76-.53,2.2,0,0-.05,.19-.13,.75-.06,.41-.06,.56,0,.73h0Z"/>
  <path class="cls-68" d="M809.92,996.51c0-.27,0-.51,0-.72,0-.07,.01-.22,.09-.37,.04-.07,.1-.18,.18-.18,.09,0,.15,.1,.2,.17,.04,.07,.1,.19,.11,.37,0,.24,0,.48,0,.73h-.6s0,0,0,0Z"/>
  <path class="cls-18" d="M797.22,1003.13c-.01,.07-.03,.16-.04,.27-.01,.1-.02,.22-.01,.36,0,.13,.02,.33,.12,.46,.09,.13,.25,.19,.6,.23,.16,.02,.67,.06,1.42-.08,.04,0,.31-.07,.87-.2l.26-.07c.07-.02,.19-.05,.26-.1,0,0,.07-.05,.07-.05h0s-.1-.07-.18-.16c-.03-.03-.09-.1-.14-.2-.02-.04-.05-.09-.06-.17-.01-.06-.03-.15,0-.26-1.05,0-2.1-.01-3.15-.02h0Z"/>
  <path class="cls-17" d="M800.37,1003.15c-.01,.06-.02,.15,0,.26,.03,.15,.12,.38,.49,.64,.5,.34,1.01,.45,1.67,.58,.29,.06,.53,.1,.87,.12,.31,.02,.65-.01,1.33-.07,.23-.02,.61-.06,1.06-.17,.07-.02,.35-.09,.63-.29,.27-.2,.25-.31,.25-.34,0-.04-.03-.04-.07-.12-.08-.14-.09-.28-.1-.38,0-.06,0-.12,0-.17-2.04-.02-4.08-.04-6.12-.06h0Z"/>
  <path class="cls-17" d="M814.03,1003.28s0,.06,.01,.11c0,.08,0,.15,0,.2,0,.08,0,.12-.01,.18,0,.05-.02,.12-.06,.2,.04,.03,.09,.07,.15,.11,0,0,.18,.13,.4,.24,.45,.22,.95,.34,.95,.34,.26,.05,.71,.12,1.33,.12,.17,0,.73,0,1.45-.14,.07-.01,.67-.12,1.33-.43,.17-.08,.36-.18,.46-.4,.1-.21,.06-.42,.04-.51-2.02,0-4.03-.02-6.05-.02h0Z"/>
  <path class="cls-18" d="M820.08,1003.31s.03,.09,.03,.15c0,.1-.01,.17-.02,.22-.03,.13-.09,.21-.11,.24-.03,.04-.05,.08-.1,.11-.05,.04-.07,.04-.08,.05,0,.01,0,.06,.31,.15,.21,.07,.33,.09,.33,.09,.57,.11,.86,.17,.98,.19,.47,.06,.77,.06,1.19,.06s.56-.02,.66-.14c.11-.13,.11-.32,.1-.52,0-.26-.07-.46-.12-.59-1.06,0-2.12-.01-3.17-.02h0Z"/>
  <rect class="cls-46" x="796.8" y="1016.45" width=".54" height="13.55" rx=".12" ry=".12" transform="translate(-375.35 468.47) rotate(-26.76)"/>
  <rect class="cls-42" x="798.12" y="1025.1" width="5.18" height=".51"/>
  <rect class="cls-46" x="793.84" y="1021.38" width="7.65" height=".71"/>
  <path class="cls-17" d="M794.91,1021.36c3.27,0,6.55,.01,9.82,.02,0-.04,.02-.1,0-.16-.07-.29-.52-.41-1.22-.55-.79-.16-1.18-.25-1.65-.29-.59-.06-1-.07-1.63-.08-.9-.01-1.58,.02-1.94,.04-.29,.02-.52,.04-.97,.08-.76,.07-1.34,.13-1.75,.36-.26,.14-.46,.34-.46,.34-.09,.09-.16,.18-.21,.25h0Z"/>
  <rect class="cls-46" x="793.92" y="1025.04" width="8.41" height=".54" rx=".12" ry=".12" transform="translate(-495.72 1144.61) rotate(-57.37)"/>
  <rect class="cls-46" x="798.92" y="1025.14" width="8.77" height=".52" rx=".12" ry=".12" transform="translate(-480.8 1244.1) rotate(-61.59)"/>
  <rect class="cls-42" x="800.96" y="1021.38" width="4.91" height=".71"/>
  <path class="cls-46" d="M791.91,1014.38l1.92,3.84c.05,.1,.14,.15,.25,.15h6.41c.21,0,.34-.22,.25-.4l-1.87-3.84c-.05-.1-.14-.16-.25-.16h-6.46c-.21,0-.34,.22-.25,.41h0Z"/>
  <rect class="cls-42" x="810.81" y="1022.53" width="14.88" height=".54" rx=".12" ry=".12" transform="translate(-463.43 1292.9) rotate(-63.24)"/>
  <rect class="cls-46" x="816.03" y="1023.38" width="13.55" height=".54" rx=".12" ry=".12" transform="translate(-461.69 1297.43) rotate(-63.24)"/>
  <rect class="cls-42" x="816.56" y="1025.53" width="5.18" height=".51"/>
  <rect class="cls-46" x="818.38" y="1021.81" width="7.65" height=".71"/>
  <path class="cls-17" d="M824.96,1021.79c-3.27,0-6.55,.01-9.82,.02,0-.04-.02-.1,0-.16,.07-.29,.52-.41,1.22-.55,.79-.16,1.18-.25,1.65-.29,.59-.06,1-.07,1.63-.08,.9-.01,1.58,.02,1.94,.04,.29,.02,.52,.04,.97,.08,.76,.07,1.34,.13,1.75,.36,.26,.14,.46,.34,.46,.34,.09,.09,.16,.18,.21,.25h0Z"/>
  <rect class="cls-46" x="821.47" y="1021.54" width=".54" height="8.41" rx=".12" ry=".12" transform="translate(-423.4 604.99) rotate(-32.63)"/>
  <rect class="cls-46" x="816.31" y="1021.44" width=".52" height="8.77" rx=".12" ry=".12" transform="translate(-389.72 512.05) rotate(-28.41)"/>
  <rect class="cls-42" x="814" y="1021.81" width="4.91" height=".71"/>
  <path class="cls-46" d="M827.96,1014.81l-1.92,3.84c-.05,.1-.14,.15-.25,.15h-6.41c-.21,0-.34-.22-.25-.4l1.87-3.84c.05-.1,.14-.16,.25-.16h6.46c.21,0,.34,.22,.25,.41h0Z"/>
  <ellipse class="cls-8" cx="807.6" cy="1017.68" rx="1.34" ry=".55"/>
  <path class="cls-7" d="M806.68,1016.46s0,.05,0,.06c.01,.11,.05,.26,.05,.26,.06,.22,.08,.28,.1,.34,.03,.07,.05,.12,.05,.13,.11,.25,.16,.37,.25,.44,.11,.08,.24,.08,.49,.09,.24,0,.31-.04,.35-.08,.03-.03,.05-.06,.08-.11,.05-.09,.08-.16,.1-.19,.11-.28,.12-.26,.19-.46,.02-.07,.1-.3,.09-.49,0-.03-.01-.07-.04-.11-.04-.05-.09-.08-.2-.11-.16-.05-.28-.06-.28-.06-.27-.03-.48-.02-.52-.02-.07,0-.12,.01-.17,.02-.06,0-.12,.02-.19,.04-.19,.05-.32,.14-.33,.2,0,.03,0,.05,0,.05h0Z"/>
  <path class="cls-7" d="M808.1,1017.4c.18-.08,.33-.16,.43-.22,.08-.04,.15-.09,.21-.18,.03-.04,.07-.11,.06-.2,0-.02-.01-.11-.09-.17-.06-.05-.13-.05-.17-.05-.09,0-.15,.03-.18,.05-.08,.17-.1,.26-.08,.28,.01,0,.04,0,.09-.05,0-.02,0-.05,.02-.09,.04-.06,.11-.07,.13-.07,.03,0,.1-.01,.14,.03,.05,.06,.01,.16,0,.18-.02,.06-.07,.1-.16,.17-.08,.06-.14,.09-.21,.13-.07,.04-.13,.07-.18,.09-.04,0-.07,.04-.07,.07,0,.03,.03,.05,.04,.05h0Z"/>
  <path class="cls-53" d="M807.07,1017.63s.02,.05,.05,.07c.02,.02,.06,.05,.2,.07,.02,0,.07,0,.16,.01,.09,0,.16,0,.25,0,.13-.01,.18-.04,.21-.05,.04-.02,.07-.05,.08-.06,.03-.03,.05-.06,.06-.08,.06-.1,.1-.19,.1-.19,.04-.09,.06-.14,.09-.21,.05-.14,.09-.26,.1-.28,.05-.16,.06-.24,.06-.26,0-.07,.01-.13,.01-.17-.01,.02-.03,.04-.06,.06-.04,.03-.08,.05-.11,.06,0,.01,0,.03,0,.05,0,.05-.01,.09-.02,.13-.03,.11-.07,.23-.07,.23-.05,.13-.09,.24-.12,.29-.08,.16-.12,.22-.14,.24-.03,.04-.06,.07-.11,.1-.08,.05-.15,.06-.23,.06-.13,0-.23-.01-.3-.03-.08-.02-.15-.04-.19-.06h0Z"/>
  <ellipse class="cls-1" cx="807.56" cy="1016.43" rx=".87" ry=".28"/>
  <path class="cls-31" d="M806.74,1016.5c0-.09,.41-.19,.78-.2,.46-.01,.88,.12,.88,.19,0,.02-.03,.04-.08,.06-.06,.04-.12,.05-.14,.05-.19,.04-.29,.06-.32,.06-.1,.01-.25,.02-.43,.01-.16,0-.27-.01-.42-.06-.12-.04-.26-.08-.26-.13h0Z"/>
  <path class="cls-66" d="M806.7,1016.46s.01,.03,.03,.04c.02,.02,.04,.03,.05,.04,.06,.04,.14,.06,.17,.07,.02-.03,.06-.07,.11-.11,0,0,0,0,.02-.01,.12-.09,.33-.14,.33-.14,.16-.04,.26-.04,.26-.05,0,0-.17,0-.31,0-.15,0-.24,.02-.3,.04-.05,.01-.1,.02-.12,.03-.06,.02-.1,.03-.15,.05-.04,.01-.07,.03-.09,.04h0Z"/>
  <path class="cls-42" d="M801.48,1017.22c-.09,.02-.07,.52,0,.79,.07,.3,.37,1.14,2.94,1.95,.92,.29,2.37,.65,4.74,.73,1.04,.04,2.28,.02,3.68-.12,1.43-.08,2.57-.36,3.34-.62,1.4-.45,1.93-.9,2.26-1.32,.24-.3,.38-.6,.46-.81-.26,.2-.65,.49-1.15,.78-1.55,.88-2.95,1.07-4.57,1.27-1.89,.24-3.34,.18-4.16,.14-.84-.04-2.2-.15-3.78-.52,0,0-1.04-.25-2.38-.93-.53-.27-.82-.48-1.05-.81-.18-.26-.26-.54-.33-.52h0Z"/>
  <rect class="cls-68" x="809.67" y="1004.75" width=".59" height="12.61" rx=".11" ry=".11"/>
  <path class="cls-18" d="M806.49,1003.2c-.02,.11-.06,.36,.05,.65,.1,.28,.28,.45,.37,.53,.17,.15,.46,.35,1.24,.47,.35,.05,.58,.06,1.78,.05,1.12,0,.9,0,1.09,0,1.14,0,1.45,.05,1.99-.1,.26-.07,.58-.2,.8-.49,.02-.03,.13-.17,.19-.39,.08-.27,.06-.51,.04-.64-2.51-.03-5.03-.05-7.54-.08Z"/>
  <g>
    <path class="cls-33" d="M805.08,1018.21c-.1-.06-.14-.09-.21-.13-.08-.05-.21-.13-.36-.22-.03-.02-.05-.02-.06-.02-.07,0-.14,.09-.11,.16,.01,.03,.04,.05,.06,.06,.1,.05,.46,.21,.95,.44,.01,0,.03,.01,.04,.02,0,.02,0,.04,0,.07,0,.07,.03,.11,.04,.13,.04,.08,.11,.12,.18,.15,.06,.03,.15,.07,.27,.07,.05,0,.12,0,.18-.06,.05-.05,.05-.12,.05-.13,0-.1-.07-.16-.13-.22-.01-.01-.1-.1-.24-.15-.04-.01-.08-.02-.11-.02-.06,0-.1,.02-.12,.03-.04,.02-.06,.04-.08,.06-.02,0-.04-.02-.05-.03-.02,0-.03-.02-.05-.03-.06-.04-.15-.09-.25-.16h0Z"/>
    <ellipse class="cls-7" cx="805.89" cy="1018.81" rx=".08" ry=".11" transform="translate(-373.67 1562.95) rotate(-76.42)"/>
    <path class="cls-41" d="M805.92,1018.53c-.01-.05-.06-.08-.1-.1-.04-.02-.09-.05-.16-.05-.02,0-.07,0-.12,.03-.01,.01-.05,.04-.05,.07,0,0,0,.02,.02,.03,.02,0,.03,0,.05,0,.02,0,.03-.01,.03-.01,.03-.02,.09,0,.12,0,.04,0,.09,.02,.13,.06,0,0,.01,.02,.03,.02,0,0,.03,0,.04,0,.01-.01,0-.04,0-.05h0Z"/>
    <path class="cls-29" d="M804.38,1017.93s-.03,.03-.02,.05c0,.01,0,.02,.01,.03,0,0,.02,.01,.04,.02,.03,.01,.05,.02,.06,.03,0,0,.04,.02,.11,.05,.12,.06,.18,.09,.22,.1,.04,.02,.09,.04,.13,.07,.02,.01,.05,.03,.05,.02,0,0,0-.01-.01-.02-.01,0-.03-.01-.05-.03-.06-.03-.1-.05-.14-.07-.05-.03-.13-.07-.21-.11-.01,0-.06-.03-.11-.06-.01,0-.03-.01-.03-.01,0,0,0,0-.01-.01-.01-.02-.01-.04-.01-.04,0-.01,0-.02,0-.03,0,0-.02,0-.03,0h0Z"/>
  </g>
  <path class="cls-1" d="M812.3,1014.43s.12,.06,.18,.17c.07,.14,.04,.27,.03,.3"/>
  <path class="cls-22" d="M804.95,1014.41c.09-.31,.36-.52,.65-.52,.3,0,.57,.22,.65,.53"/>
  <path class="cls-34" d="M805.8,1013.67h.76c.05,0,.09,.04,.09,.09h0c0,.05-.04,.09-.09,.09h-.76c-.05,0-.09-.04-.09-.09h0c0-.05,.04-.09,.09-.09Z" transform="translate(-486.02 1102.38) rotate(-55.43)"/>
  <path class="cls-7" d="M804.47,1014.84c.07,.48,.13,.97,.2,1.45,.05,.01,.13,.03,.23,.04,.41,.06,.74,.04,1.02,.03,.14,0,.33-.02,.56-.05,.07-.49,.13-.98,.2-1.47-.41,.01-.82,.02-1.25,.02-.33,0-.65,0-.96-.01h0Z"/>
  <path class="cls-22" d="M805.36,1014.8c.09-.34,.38-.56,.68-.54,.27,.02,.5,.24,.58,.55"/>
  <path class="cls-22" d="M804.57,1014.83c.04-.27,.21-.49,.44-.56,.32-.1,.73,.12,.86,.54"/>
  <path class="cls-54" d="M804.43,1014.79h2.28s.04,.02,.04,.04h0s-.02,.04-.04,.04h-2.28s-.04-.02-.04-.04h0s.02-.04,.04-.04Z"/>
  <rect class="cls-19" x="806.14" y="1013.71" width=".04" height=".18" transform="translate(-480.99 1158.43) rotate(-57.92)"/>
  <rect class="cls-19" x="806.21" y="1013.61" width=".04" height=".18" transform="translate(-480.87 1158.44) rotate(-57.92)"/>
  <rect class="cls-19" x="806.28" y="1013.51" width=".04" height=".18" transform="translate(-480.76 1158.46) rotate(-57.92)"/>
  <rect class="cls-19" x="806.34" y="1013.42" width=".04" height=".18" transform="translate(-480.65 1158.47) rotate(-57.92)"/>
  <rect class="cls-19" x="806.4" y="1013.33" width=".04" height=".18" transform="translate(-480.55 1158.48) rotate(-57.92)"/>
  <rect class="cls-19" x="806.08" y="1013.79" width=".04" height=".18" transform="translate(-481.09 1158.42) rotate(-57.92)"/>
  <rect class="cls-19" x="806.01" y="1013.9" width=".04" height=".18" transform="translate(-481.21 1158.41) rotate(-57.92)"/>
  <rect class="cls-19" x="805.95" y="1013.99" width=".04" height=".18" transform="translate(-481.32 1158.4) rotate(-57.92)"/>
  <path class="cls-59" d="M814.85,1014.97c.15,1.08,.26,1.85,.27,2.05,0,.02,0,.09,.05,.15,.04,.06,.11,.11,.36,.15,.18,.03,.35,.03,.68,.03,.07,0,.17,0,.25-.07,.04-.04,.07-.09,.08-.12,.11-.72,.21-1.45,.32-2.17-.67,0-1.34-.01-2.01-.02h0Z"/>
  <path class="cls-50" d="M814.77,1014.7s-.01,.05-.02,.09c0,.04,0,.08,0,.11,0,.02,.02,.05,.04,.07,.02,.02,.05,.03,.07,.03,.41,.09,.92,.09,.92,.09,0,0,.24,0,.68-.03,0,0,.1,0,.23-.04,.1-.03,.15-.04,.19-.09,.07-.09,.05-.24,.02-.25-.01,0-.02,.02-.05,.05-.06,.07-.15,.08-.25,.08-.28,.02-.32,.03-.32,.03-.43,0-.36,.01-.49,.01-.1,0-.22,0-.46-.01-.34-.01-.43,0-.53-.09-.02-.02-.04-.04-.05-.05h0Z"/>
  <ellipse class="cls-35" cx="815.85" cy="1014.71" rx="1.09" ry=".22"/>
  <path class="cls-50" d="M815.04,1014.51s0,.04-.01,.07c0,.03,0,.06,0,.08,0,.01,.01,.04,.03,.05s.04,.02,.05,.02c.3,.07,.66,.07,.66,.07,0,0,.17,0,.5-.02,0,0,.07,0,.17-.03,.07-.02,.11-.03,.14-.07,.05-.07,.04-.18,.01-.18,0,0-.01,.02-.03,.04-.04,.05-.11,.05-.18,.06-.2,.02-.23,.02-.23,.02-.31,0-.26,0-.35,0-.07,0-.16,0-.33-.01-.25,0-.31,0-.39-.06-.02-.01-.03-.03-.04-.04h0Z"/>
  <ellipse class="cls-35" cx="815.83" cy="1014.51" rx=".79" ry=".16"/>
  <ellipse class="cls-50" cx="815.37" cy="1014.51" rx=".13" ry=".06"/>
  <path class="cls-19" d="M814.92,1015.57c.03,.28,.06,.57,.09,.85,.07,.04,.15,.07,.23,.1,.57,.19,1.1,.07,1.41-.04,.05-.3,.1-.61,.15-.91-.14,.04-.29,.08-.46,.11-.59,.09-1.09,0-1.42-.11h0Z"/>
  <ellipse class="cls-10" cx="815.97" cy="1016.18" rx=".16" ry=".1" transform="translate(-472.05 1214.74) rotate(-60)"/>
  <ellipse class="cls-10" cx="815.85" cy="1016.18" rx=".1" ry=".16" transform="translate(-398.78 544.07) rotate(-30)"/>
  <rect class="cls-68" x="889.1" y="1017.61" width=".59" height="12.48" rx=".11" ry=".11"/>
  <ellipse class="cls-47" cx="889.58" cy="1018.86" rx="8.73" ry="3.08"/>
  <rect class="cls-42" x="880.75" y="1016.21" width=".54" height="14.91" rx=".12" ry=".12" transform="translate(-366.55 506.32) rotate(-26.76)"/>
  <path class="cls-17" d="M876.84,1003.66c-.14,.31-.25,.68-.27,1.1-.02,.36-.03,.55,.1,.72,.19,.24,.55,.24,1.26,.21,.34-.01,.75-.03,1.29-.17,.69-.19,.89-.22,1.01-.38,.08-.11,.13-.24,.21-.52,.1-.36,.08-.49,.14-.83,.09-.45,.23-.79,.3-.94,.08-.17,.22-.45,.5-.82,1.14-1.5,2.48-2.41,2.48-2.41,.65-.42,1.64-.97,2.93-1.36,1.42-.43,2.57-.47,2.56-.51,0-.05-1.38-.02-3.02,.27-.75,.13-1.69,.34-2.76,.7-1.59,.53-3.06,1.02-4.46,2.2-.69,.57-1.13,1.13-1.57,1.66-.25,.3-.49,.63-.7,1.09h0Z"/>
  <path class="cls-18" d="M879.84,1004.83c.07,.15,.19,.29,.51,.49,.34,.21,.93,.5,1.98,.62,.88,.1,1.46,.01,2.41-.13,.36-.05,.87-.15,1.18-.51,.15-.17,.23-.39,.23-.39,.1-.24,.1-.43,.1-.64,0-.31,.05-.62,.05-.93,0-.84,.3-1.73,.41-2.08,.18-.55,.41-.99,.87-1.87,.34-.64,.47-.83,.67-1,0,0,.23-.2,1.08-.64,0,0-1.34,.04-2.57,.31-.37,.08-1.15,.27-2.08,.69-1.11,.5-1.84,1.08-2,1.21-.26,.21-.91,.75-1.57,1.62-.55,.73-.81,1.29-1,1.72-.43,.95-.4,1.3-.28,1.54h0Z"/>
  <path class="cls-17" d="M898.99,1004.86c.09,.17,.1,.25,.14,.33,.11,.21,.35,.31,.91,.43,.98,.22,1.61,.22,1.77,.22,.49,0,.74,0,.87-.14,.31-.32,.07-1.01-.07-1.41-.45-1.27-1.25-2.09-1.45-2.28-.52-.52-1.69-1.59-3.69-2.5-1.46-.67-2.66-.92-4.09-1.23-1.62-.35-3.03-.5-3.04-.43-.01,.07,1.21,.2,2.79,.83,.85,.34,2.14,.87,3.4,2.06,.85,.8,1.61,1.52,1.74,2.35,.02,.13,.13,.96,.43,1.34,.04,.04,.17,.2,.29,.43h0Z"/>
  <path class="cls-18" d="M893.69,1005.38c.5,.25,.75,.38,.94,.44,.42,.13,.74,.15,1.24,.18,.41,.02,.9,.04,1.54-.05,.6-.09,.97-.24,1.36-.39,.46-.18,.64-.31,.73-.5,.1-.22,.06-.43,0-.67-.18-.74-.27-1.11-.5-1.56-.51-1.01-1.12-1.68-1.35-1.91-.14-.15-.77-.79-1.76-1.37-.66-.39-1.24-.61-1.73-.79-.46-.18-.8-.27-1.32-.43-.56-.16-1.18-.33-1.93-.43-.48-.07-.87-.11-.91,0-.06,.14,.45,.39,.83,.73,.84,.73,.47,1.3,1.35,3.13,.38,.8,1.17,2.21,.97,2.8-.01,.04-.07,.19-.02,.35,.06,.2,.25,.3,.55,.46h0Z"/>
  <path class="cls-17" d="M885.95,1004.87c.08,.22,.21,.35,.29,.42,.23,.22,.48,.3,.75,.38,.7,.2,1.27,.26,1.31,.27,.56,.06,.98,.07,1.47,.07,.71,0,1.06,.01,1.47-.06,.25-.04,.58-.14,1.23-.35,.48-.15,.76-.26,.9-.53,.04-.08,.06-.16,.07-.28,.08-.61-.06-1.15-.07-1.21-.24-.97-.09-.78-.35-1.75-.2-.75-.33-1.23-.63-1.84-.22-.46-.49-.99-1.03-1.51-.31-.3-.72-.68-1.34-.79-.41-.07-.74,0-.81,.02-.47,.12-.81,.4-1.12,.75-.19,.21-.95,1.09-1.49,2.7-.23,.7-.17,.77-.53,2.21,0,0-.05,.19-.13,.75-.06,.41-.06,.56,0,.74h0Z"/>
  <path class="cls-68" d="M889.35,997.74c0-.27,0-.51,0-.72,0-.07,.01-.22,.09-.37,.04-.07,.1-.18,.19-.19,.09,0,.15,.1,.2,.17,.04,.07,.1,.19,.11,.38,0,.24,0,.48,0,.73h-.6s0,0,0,0Z"/>
  <path class="cls-18" d="M876.62,1004.37c-.01,.07-.03,.16-.04,.27-.01,.1-.02,.22-.01,.36,0,.13,.02,.33,.12,.46,.09,.13,.25,.19,.61,.23,.16,.02,.67,.06,1.43-.08,.04,0,.31-.07,.87-.2l.26-.07c.07-.02,.19-.05,.26-.1,0,0,.07-.05,.07-.05h0s-.1-.07-.18-.16c-.03-.03-.09-.1-.14-.2-.02-.04-.05-.09-.06-.17-.01-.06-.03-.15,0-.26-1.05,0-2.1-.01-3.16-.02h0Z"/>
  <path class="cls-17" d="M879.77,1004.39c-.01,.06-.02,.16,0,.26,.03,.16,.12,.38,.49,.64,.5,.34,1.01,.45,1.67,.58,.29,.06,.53,.1,.87,.12,.31,.02,.66-.01,1.33-.07,.23-.02,.61-.06,1.07-.17,.07-.02,.35-.09,.63-.3,.27-.2,.25-.32,.25-.34,0-.04-.03-.04-.07-.12-.08-.14-.09-.28-.1-.38,0-.06,0-.12,0-.17-2.04-.02-4.09-.04-6.13-.06h0Z"/>
  <path class="cls-17" d="M893.47,1004.53s0,.06,.01,.11c0,.08,0,.15,0,.2,0,.08,0,.12-.01,.18,0,.05-.02,.12-.06,.2,.04,.03,.09,.07,.15,.11,0,0,.18,.13,.4,.24,.45,.22,.95,.34,.95,.34,.26,.05,.71,.13,1.33,.13,.17,0,.73,0,1.46-.14,.07-.01,.67-.13,1.33-.43,.17-.08,.37-.18,.47-.4,.1-.21,.06-.42,.04-.51-2.02,0-4.04-.02-6.07-.02h0Z"/>
  <path class="cls-18" d="M899.53,1004.56s.03,.09,.03,.16c0,.1-.01,.17-.02,.22-.03,.13-.09,.21-.11,.24-.03,.04-.05,.08-.1,.11-.05,.04-.07,.04-.08,.05,0,.01,0,.06,.31,.16,.21,.07,.33,.09,.33,.09,.58,.11,.86,.17,.98,.19,.47,.06,.77,.06,1.19,.06s.56-.02,.67-.14c.11-.13,.11-.32,.1-.53,0-.26-.07-.46-.12-.59-1.06,0-2.12-.01-3.18-.02h0Z"/>
  <rect class="cls-46" x="876.19" y="1017.73" width=".55" height="13.58" rx=".12" ry=".12" transform="translate(-367.43 504.36) rotate(-26.76)"/>
  <rect class="cls-42" x="877.52" y="1026.4" width="5.2" height=".51"/>
  <rect class="cls-46" x="873.23" y="1022.68" width="7.67" height=".71"/>
  <path class="cls-17" d="M874.3,1022.66c3.28,0,6.57,.01,9.85,.02,0-.04,.02-.1,0-.16-.07-.29-.52-.41-1.22-.55-.79-.16-1.19-.25-1.66-.29-.59-.06-1.01-.07-1.64-.08-.9-.01-1.58,.02-1.94,.04-.3,.02-.52,.04-.97,.08-.77,.07-1.34,.13-1.75,.36-.26,.14-.46,.34-.46,.34-.09,.09-.16,.18-.21,.25h0Z"/>
  <rect class="cls-46" x="873.3" y="1026.34" width="8.43" height=".55" rx=".12" ry=".12" transform="translate(-460.23 1212.07) rotate(-57.37)"/>
  <rect class="cls-46" x="878.32" y="1026.44" width="8.79" height=".52" rx=".12" ry=".12" transform="translate(-440.31 1314.63) rotate(-61.59)"/>
  <rect class="cls-42" x="880.36" y="1022.68" width="4.93" height=".71"/>
  <path class="cls-46" d="M871.29,1015.66l1.92,3.85c.05,.1,.14,.16,.25,.16h6.43c.21,0,.34-.22,.25-.4l-1.87-3.85c-.05-.1-.14-.16-.25-.16h-6.48c-.21,0-.34,.22-.25,.41h0Z"/>
  <rect class="cls-42" x="890.24" y="1023.83" width="14.91" height=".54" rx=".12" ry=".12" transform="translate(-420.91 1364.54) rotate(-63.24)"/>
  <rect class="cls-46" x="895.47" y="1024.68" width="13.58" height=".55" rx=".12" ry=".12" transform="translate(-419.17 1369.09) rotate(-63.24)"/>
  <rect class="cls-42" x="896.01" y="1026.83" width="5.2" height=".51"/>
  <rect class="cls-46" x="897.82" y="1023.1" width="7.67" height=".71"/>
  <path class="cls-17" d="M904.42,1023.09c-3.28,0-6.57,.01-9.85,.02,0-.04-.02-.1,0-.16,.07-.29,.52-.41,1.22-.55,.79-.16,1.19-.25,1.66-.29,.59-.06,1.01-.07,1.64-.08,.9-.01,1.58,.02,1.94,.04,.3,.02,.52,.04,.97,.08,.77,.07,1.34,.13,1.75,.36,.26,.14,.46,.34,.46,.34,.09,.09,.16,.18,.21,.25h0Z"/>
  <rect class="cls-46" x="900.93" y="1022.84" width=".55" height="8.43" rx=".12" ry=".12" transform="translate(-411.56 648.04) rotate(-32.63)"/>
  <rect class="cls-46" x="895.75" y="1022.73" width=".52" height="8.79" rx=".12" ry=".12" transform="translate(-380.78 550) rotate(-28.41)"/>
  <rect class="cls-42" x="893.43" y="1023.1" width="4.93" height=".71"/>
  <path class="cls-46" d="M907.43,1016.09l-1.92,3.85c-.05,.1-.14,.16-.25,.16h-6.43c-.21,0-.34-.22-.25-.4l1.87-3.85c.05-.1,.14-.16,.25-.16h6.48c.21,0,.34,.22,.25,.41h0Z"/>
  <path class="cls-42" d="M880.88,1018.5c-.09,.02-.07,.52,0,.79,.07,.3,.37,1.15,2.95,1.95,.92,.29,2.37,.65,4.75,.73,1.05,.04,2.29,.02,3.69-.12,1.44-.08,2.57-.37,3.35-.62,1.4-.46,1.93-.9,2.27-1.33,.24-.3,.38-.6,.47-.81-.26,.2-.65,.49-1.15,.78-1.55,.88-2.95,1.07-4.58,1.28-1.9,.24-3.34,.18-4.17,.14-.85-.04-2.2-.15-3.79-.52,0,0-1.04-.25-2.39-.93-.53-.27-.83-.48-1.05-.82-.18-.27-.26-.54-.33-.52h0Z"/>
  <rect class="cls-68" x="889.1" y="1006" width=".59" height="12.64" rx=".11" ry=".11"/>
  <path class="cls-18" d="M885.91,1004.45c-.02,.11-.06,.36,.05,.66,.1,.28,.28,.45,.37,.53,.17,.15,.46,.35,1.24,.47,.35,.05,.58,.06,1.78,.05,1.12,0,.91,0,1.09,0,1.14,0,1.46,.05,2-.1,.26-.07,.58-.2,.8-.49,.02-.03,.13-.17,.19-.39,.08-.27,.06-.51,.04-.64-2.52-.03-5.04-.05-7.56-.08Z"/>
  <polyline class="cls-4" points="890.93 1015.41 890.92 1014.59 892.15 1014.57 892.17 1015.38"/>
  <rect class="cls-20" x="890.55" y="1015.22" width=".32" height=".15" rx=".07" ry=".07" transform="translate(-9.88 8.75) rotate(-.56)"/>
  <path class="cls-44" d="M890.35,1015.51c0,.4,.02,.79,.02,1.19,0,.01,0,.05,.04,.08,.05,.05,.12,.04,.14,.04,.12,0,.92-.02,2.05-.03,.01,0,.05,0,.08-.03,.04-.04,.04-.09,.04-.1,0-.4-.01-.81-.02-1.21,0-.02,0-.05-.02-.08-.04-.07-.13-.07-.14-.07-.2,0-.41,0-.61,0-.01,0-.02,0-.03,0,0-.01,0-.03-.01-.06-.01-.04-.03-.11-.09-.13,0,0-.03,0-.05,0h-.5s-.04,.02-.05,.03c-.07,.05-.05,.16-.05,.17-.23,0-.47,.01-.7,.02-.01,0-.04,0-.06,.02-.03,.02-.03,.05-.04,.07,0,.02,0,.04,0,.08h0Z"/>
  <circle class="cls-21" cx="891.57" cy="1016.06" r=".58"/>
  <circle class="cls-63" cx="891.57" cy="1016.06" r=".47"/>
  <circle class="cls-67" cx="891.36" cy="1015.93" r=".11"/>
  <circle class="cls-67" cx="891.28" cy="1016.16" r=".05"/>
  <circle class="cls-64" cx="890.65" cy="1015.6" r=".09"/>
  <circle class="cls-64" cx="892.46" cy="1015.57" r=".13"/>
  <rect class="cls-19" x="891.33" y="1015.2" width=".43" height=".13" rx=".06" ry=".06" transform="translate(-9.88 8.76) rotate(-.56)"/>
  <path class="cls-13" d="M892.36,1017.68c.09-.31,.36-.52,.65-.52,.3,0,.57,.22,.65,.54"/>
  <rect class="cls-34" x="893.13" y="1016.95" width=".95" height=".18" rx=".09" ry=".09" transform="translate(-450.9 1175.78) rotate(-55.43)"/>
  <path class="cls-7" d="M891.88,1018.11c.07,.48,.13,.97,.2,1.45,.05,.01,.13,.03,.23,.04,.41,.06,.74,.04,1.02,.03,.14,0,.34-.02,.56-.05,.07-.49,.13-.98,.2-1.48-.41,.01-.82,.02-1.25,.02-.33,0-.65,0-.97-.01h0Z"/>
  <path class="cls-13" d="M892.77,1018.08c.09-.34,.38-.57,.68-.54,.27,.02,.51,.24,.58,.55"/>
  <path class="cls-13" d="M891.98,1018.11c.04-.27,.22-.49,.44-.56,.32-.1,.74,.12,.86,.54"/>
  <path class="cls-54" d="M891.84,1018.07h2.29s.04,.02,.04,.04h0s-.02,.04-.04,.04h-2.29s-.04-.02-.04-.04h0s.02-.04,.04-.04Z"/>
  <rect class="cls-19" x="893.56" y="1016.98" width=".04" height=".18" transform="translate(-442.78 1234.04) rotate(-57.92)"/>
  <rect class="cls-19" x="893.63" y="1016.88" width=".04" height=".18" transform="translate(-442.66 1234.05) rotate(-57.92)"/>
  <rect class="cls-19" x="893.69" y="1016.78" width=".04" height=".18" transform="translate(-442.54 1234.06) rotate(-57.92)"/>
  <rect class="cls-19" x="893.76" y="1016.69" width=".04" height=".18" transform="translate(-442.44 1234.07) rotate(-57.92)"/>
  <rect class="cls-19" x="893.82" y="1016.61" width=".04" height=".18" transform="translate(-442.34 1234.08) rotate(-57.92)"/>
  <rect class="cls-19" x="893.49" y="1017.07" width=".04" height=".18" transform="translate(-442.88 1234.02) rotate(-57.92)"/>
  <rect class="cls-19" x="893.43" y="1017.17" width=".04" height=".18" transform="translate(-443 1234.01) rotate(-57.92)"/>
  <rect class="cls-19" x="893.36" y="1017.26" width=".04" height=".18" transform="translate(-443.11 1234) rotate(-57.92)"/>
  <ellipse class="cls-48" cx="67.11" cy="1093.76" rx="5.82" ry="8.48" transform="translate(-1027.85 1137.03) rotate(-88.75)"/>
  <ellipse class="cls-55" cx="81.21" cy="1095.99" rx="6.56" ry="9.56" transform="translate(-1005.83 934.31) rotate(-77.3)"/>
  <ellipse class="cls-48" cx="93.48" cy="1097.23" rx="9.56" ry="6.56" transform="translate(-188.33 32.7) rotate(-9.96)"/>
  <ellipse class="cls-48" cx="112.65" cy="1098.79" rx="6.99" ry="13.91" transform="translate(-988.33 1187.48) rotate(-88.75)"/>
  <ellipse class="cls-55" cx="130.91" cy="1099.89" rx="8.48" ry="5.82" transform="translate(-422.35 140.31) rotate(-23.18)"/>
  <ellipse class="cls-55" cx="150.14" cy="1101.45" rx="6.99" ry="13.91" transform="translate(-954.32 1227.56) rotate(-88.75)"/>
  <rect class="cls-45" x="587.04" y="851.57" width="15.83" height="8.03" transform="translate(-260.63 1450.54) rotate(-90)"/>
  <rect class="cls-45" x="607.76" y="851.57" width="15.83" height="8.03" transform="translate(-239.91 1471.26) rotate(-90)"/>
  <rect class="cls-45" x="628.48" y="851.57" width="15.83" height="8.03" transform="translate(-219.19 1491.98) rotate(-90)"/>
  <rect class="cls-32" x="846.23" y="1063.08" width="1.46" height="41.61"/>
  <path class="cls-19" d="M846.96,1060.26c-5.19,13.54-10.38,27.08-15.57,40.62,5.19,.05,10.38,.08,15.57,.13v-40.74h0Z"/>
  <polygon class="cls-19" points="847.92 1071.05 847.69 1101.3 862.62 1101.85 847.92 1071.05"/>
  <rect class="cls-32" x="609.98" y="1066.22" width="2.02" height="45.69"/>
  <path class="cls-19" d="M611.25,1067.55c-2.37,1.09-6.54,3.42-9.89,8.01-1.56,2.14-6.01,8.23-4.47,15.78,.28,1.37,1.37,6.7,6.36,9.89,3.71,2.37,7.53,2.24,8.95,2.12-1.3-4.05-2.38-8.8-2.83-14.13-.16-1.87-.46-6.62,.24-12.72,.41-3.56,1.04-6.59,1.65-8.95Z"/>
  <g>
    <rect class="cls-19" x="764.89" y="876.44" width="18.61" height="10.27" transform="translate(-107.38 1655.77) rotate(-90)"/>
    <rect class="cls-45" x="766.28" y="877.56" width="15.83" height="8.03" transform="translate(-107.38 1655.77) rotate(-90)"/>
  </g>
  <g>
    <rect class="cls-19" x="787.86" y="876.44" width="18.61" height="10.27" transform="translate(-84.41 1678.74) rotate(-90)"/>
    <rect class="cls-45" x="789.25" y="877.56" width="15.83" height="8.03" transform="translate(-84.41 1678.74) rotate(-90)"/>
  </g>
  <g>
    <rect class="cls-19" x="810.83" y="876.44" width="18.61" height="10.27" transform="translate(-61.44 1701.71) rotate(-90)"/>
    <rect class="cls-45" x="812.22" y="877.56" width="15.83" height="8.03" transform="translate(-61.44 1701.71) rotate(-90)"/>
  </g>
  <g>
    <rect class="cls-19" x="764.89" y="906.63" width="18.61" height="10.27" transform="translate(-137.58 1685.97) rotate(-90)"/>
    <rect class="cls-45" x="766.28" y="907.76" width="15.83" height="8.03" transform="translate(-137.58 1685.97) rotate(-90)"/>
  </g>
  <g>
    <rect class="cls-19" x="787.86" y="906.63" width="18.61" height="10.27" transform="translate(-114.61 1708.94) rotate(-90)"/>
    <rect class="cls-45" x="789.25" y="907.76" width="15.83" height="8.03" transform="translate(-114.61 1708.94) rotate(-90)"/>
  </g>
  <g>
    <rect class="cls-19" x="810.83" y="906.63" width="18.61" height="10.27" transform="translate(-91.64 1731.91) rotate(-90)"/>
    <rect class="cls-45" x="812.22" y="907.76" width="15.83" height="8.03" transform="translate(-91.64 1731.91) rotate(-90)"/>
  </g>
  <rect class="cls-27" x="848.11" y="925.43" width="8.4" height="14.77"/>
  <rect class="cls-27" x="868.04" y="925.43" width="8.4" height="14.77"/>
  <path class="cls-45" d="M696.31,849.99h7c1.07,0,1.93,.87,1.93,1.93v14.3h-10.86v-14.3c0-1.07,.87-1.93,1.93-1.93Z"/>
  <path class="cls-27" d="M288.43,891.69h8.4v11.06c0,.82-.67,1.49-1.49,1.49h-5.41c-.82,0-1.49-.67-1.49-1.49v-11.06h0Z" transform="translate(585.26 1795.93) rotate(-180)"/>
  <path class="cls-27" d="M308.27,891.69h8.4v11.06c0,.82-.67,1.49-1.49,1.49h-5.41c-.82,0-1.49-.67-1.49-1.49v-11.06h0Z" transform="translate(624.93 1795.93) rotate(-180)"/>
  <rect class="cls-27" x="903.26" y="936.78" width="8.4" height="8.06" transform="translate(1814.93 1881.62) rotate(-180)"/>
  <rect class="cls-27" x="928.91" y="936.78" width="8.4" height="8.06" transform="translate(1866.22 1881.62) rotate(-180)"/>
  <rect class="cls-27" x="954.56" y="936.78" width="8.4" height="8.06" transform="translate(1917.52 1881.62) rotate(-180)"/>
  <rect class="cls-27" x="903.26" y="977.09" width="8.4" height="12" transform="translate(1814.93 1966.19) rotate(-180)"/>
  <rect class="cls-27" x="928.91" y="977.09" width="8.4" height="12" transform="translate(1866.22 1966.19) rotate(-180)"/>
  <rect class="cls-27" x="954.56" y="977.09" width="8.4" height="12" transform="translate(1917.52 1966.19) rotate(-180)"/>
  <path class="cls-11" d="M765.97,944.84v80.62h9.32v-31.71c0-17.51,15.06-31.71,33.65-31.71h0c18.58,0,33.65,14.2,33.65,31.71v31.71h10.7v-31.71c0-17.51,15.06-31.71,33.65-31.71s33.65,14.2,33.65,31.71v31.71h10.7v-31.71c0-17.51,15.06-31.71,33.65-31.71s33.65,14.2,33.65,31.71v31.71h9.32v-80.62h-241.92Z"/>
  <rect class="cls-27" x="1018.01" y="904.69" width="8.4" height="12.55" transform="translate(2044.42 1821.94) rotate(-180)"/>
  <rect class="cls-27" x="1042.32" y="904.69" width="8.4" height="12.55" transform="translate(2093.04 1821.94) rotate(-180)"/>
  <rect class="cls-32" x="687.81" y="1036.14" width="1.22" height="34.83" transform="translate(1376.85 2107.12) rotate(-180)"/>
  <path class="cls-19" d="M688.43,1033.78v34.1c4.35-.04,8.68-.07,13.03-.11-4.35-11.33-8.68-22.67-13.03-34h0Z"/>
  <polygon class="cls-19" points="675.32 1068.6 687.81 1068.14 687.62 1042.81 675.32 1068.6"/>
  <path class="cls-32" d="M675.45,1075.27c9.61-.09,19.23-.18,28.84-.27,.86-1.63,1.72-3.27,2.59-4.9h-33.61c.73,1.72,1.45,3.45,2.18,5.17Z"/>
  <rect class="cls-32" x="648.52" y="1045.7" width="1" height="28.35" transform="translate(1298.03 2119.75) rotate(-180)"/>
  <path class="cls-19" d="M649.01,1043.78v27.76c3.54-.03,7.07-.05,10.61-.09-3.54-9.22-7.07-18.45-10.61-27.67h0Z"/>
  <polygon class="cls-19" points="638.35 1072.12 648.52 1071.74 648.36 1051.13 638.35 1072.12"/>
  <path class="cls-32" d="M638.46,1077.55c7.82-.07,15.65-.15,23.47-.22,.7-1.33,1.4-2.66,2.1-3.99h-27.35c.59,1.4,1.18,2.81,1.77,4.21Z"/>
  <rect class="cls-68" x="964.27" y="1019.08" width=".59" height="12.48" rx=".11" ry=".11"/>
  <ellipse class="cls-47" cx="964.76" cy="1020.33" rx="8.73" ry="3.08"/>
  <rect class="cls-42" x="955.93" y="1017.68" width=".54" height="14.91" rx=".12" ry=".12" transform="translate(-359.16 540.32) rotate(-26.76)"/>
  <path class="cls-17" d="M952.02,1005.13c-.14,.31-.25,.68-.27,1.1-.02,.36-.03,.55,.1,.72,.19,.24,.55,.24,1.26,.21,.34-.01,.75-.03,1.29-.17,.69-.19,.89-.22,1.01-.38,.08-.11,.13-.24,.21-.52,.1-.36,.08-.49,.14-.83,.09-.45,.23-.79,.3-.94,.08-.17,.22-.45,.5-.82,1.14-1.5,2.48-2.41,2.48-2.41,.65-.42,1.64-.97,2.93-1.36,1.42-.43,2.57-.47,2.56-.51,0-.05-1.38-.02-3.02,.27-.75,.13-1.69,.34-2.76,.7-1.59,.53-3.06,1.02-4.46,2.2-.69,.57-1.13,1.13-1.57,1.66-.25,.3-.49,.63-.7,1.09h0Z"/>
  <path class="cls-18" d="M955.02,1006.3c.07,.15,.19,.29,.51,.49,.34,.21,.93,.5,1.98,.62,.88,.1,1.46,.01,2.41-.13,.36-.05,.87-.15,1.18-.51,.15-.17,.23-.39,.23-.39,.1-.24,.1-.43,.1-.64,0-.31,.05-.62,.05-.93,0-.84,.3-1.73,.41-2.08,.18-.55,.41-.99,.87-1.87,.34-.64,.47-.83,.67-1,0,0,.23-.2,1.08-.64,0,0-1.34,.04-2.57,.31-.37,.08-1.15,.27-2.08,.69-1.11,.5-1.84,1.08-2,1.21-.26,.21-.91,.75-1.57,1.62-.55,.73-.81,1.29-1,1.72-.43,.95-.4,1.3-.28,1.54h0Z"/>
  <path class="cls-17" d="M974.17,1006.33c.09,.17,.1,.25,.14,.33,.11,.21,.35,.31,.91,.43,.98,.22,1.61,.22,1.77,.22,.49,0,.74,0,.87-.14,.31-.32,.07-1.01-.07-1.41-.45-1.27-1.25-2.09-1.45-2.28-.52-.52-1.69-1.59-3.69-2.5-1.46-.67-2.66-.92-4.09-1.23-1.62-.35-3.03-.5-3.04-.43-.01,.07,1.21,.2,2.79,.83,.85,.34,2.14,.87,3.4,2.06,.85,.8,1.61,1.52,1.74,2.35,.02,.13,.13,.96,.43,1.34,.04,.04,.17,.2,.29,.43h0Z"/>
  <path class="cls-18" d="M968.86,1006.85c.5,.25,.75,.38,.94,.44,.42,.13,.74,.15,1.24,.18,.41,.02,.9,.04,1.54-.05,.6-.09,.97-.24,1.36-.39,.46-.18,.64-.31,.73-.5,.1-.22,.06-.43,0-.67-.18-.74-.27-1.11-.5-1.56-.51-1.01-1.12-1.68-1.35-1.91-.14-.15-.77-.79-1.76-1.37-.66-.39-1.24-.61-1.73-.79-.46-.18-.8-.27-1.32-.43-.56-.16-1.18-.33-1.93-.43-.48-.07-.87-.11-.91,0-.06,.14,.45,.39,.83,.73,.84,.73,.47,1.3,1.35,3.13,.38,.8,1.17,2.21,.97,2.8-.01,.04-.07,.19-.02,.35,.06,.2,.25,.3,.55,.46h0Z"/>
  <path class="cls-17" d="M961.12,1006.34c.08,.22,.21,.35,.29,.42,.23,.22,.48,.3,.75,.38,.7,.2,1.27,.26,1.31,.27,.56,.06,.98,.07,1.47,.07,.71,0,1.06,.01,1.47-.06,.25-.04,.58-.14,1.23-.35,.48-.15,.76-.26,.9-.53,.04-.08,.06-.16,.07-.28,.08-.61-.06-1.15-.07-1.21-.24-.97-.09-.78-.35-1.75-.2-.75-.33-1.23-.63-1.84-.22-.46-.49-.99-1.03-1.51-.31-.3-.72-.68-1.34-.79-.41-.07-.74,0-.81,.02-.47,.12-.81,.4-1.12,.75-.19,.21-.95,1.09-1.49,2.7-.23,.7-.17,.77-.53,2.21,0,0-.05,.19-.13,.75-.06,.41-.06,.56,0,.74h0Z"/>
  <path class="cls-68" d="M964.52,999.21c0-.27,0-.51,0-.72,0-.07,.01-.22,.09-.37,.04-.07,.1-.18,.19-.19,.09,0,.15,.1,.2,.17,.04,.07,.1,.19,.11,.38,0,.24,0,.48,0,.73h-.6s0,0,0,0Z"/>
  <path class="cls-18" d="M951.79,1005.84c-.01,.07-.03,.16-.04,.27-.01,.1-.02,.22-.01,.36,0,.13,.02,.33,.12,.46,.09,.13,.25,.19,.61,.23,.16,.02,.67,.06,1.43-.08,.04,0,.31-.07,.87-.2l.26-.07c.07-.02,.19-.05,.26-.1,0,0,.07-.05,.07-.05h0s-.1-.07-.18-.16c-.03-.03-.09-.1-.14-.2-.02-.04-.05-.09-.06-.17-.01-.06-.03-.15,0-.26-1.05,0-2.1-.01-3.16-.02h0Z"/>
  <path class="cls-17" d="M954.95,1005.86c-.01,.06-.02,.16,0,.26,.03,.16,.12,.38,.49,.64,.5,.34,1.01,.45,1.67,.58,.29,.06,.53,.1,.87,.12,.31,.02,.66-.01,1.33-.07,.23-.02,.61-.06,1.07-.17,.07-.02,.35-.09,.63-.3,.27-.2,.25-.32,.25-.34,0-.04-.03-.04-.07-.12-.08-.14-.09-.28-.1-.38,0-.06,0-.12,0-.17-2.04-.02-4.09-.04-6.13-.06h0Z"/>
  <path class="cls-17" d="M968.64,1006s0,.06,.01,.11c0,.08,0,.15,0,.2,0,.08,0,.12-.01,.18,0,.05-.02,.12-.06,.2,.04,.03,.09,.07,.15,.11,0,0,.18,.13,.4,.24,.45,.22,.95,.34,.95,.34,.26,.05,.71,.13,1.33,.13,.17,0,.73,0,1.46-.14,.07-.01,.67-.13,1.33-.43,.17-.08,.37-.18,.47-.4,.1-.21,.06-.42,.04-.51-2.02,0-4.04-.02-6.07-.02h0Z"/>
  <path class="cls-18" d="M974.71,1006.02s.03,.09,.03,.16c0,.1-.01,.17-.02,.22-.03,.13-.09,.21-.11,.24-.03,.04-.05,.08-.1,.11-.05,.04-.07,.04-.08,.05,0,.01,0,.06,.31,.16,.21,.07,.33,.09,.33,.09,.58,.11,.86,.17,.98,.19,.47,.06,.77,.06,1.19,.06s.56-.02,.67-.14c.11-.13,.11-.32,.1-.53,0-.26-.07-.46-.12-.59-1.06,0-2.12-.01-3.18-.02h0Z"/>
  <rect class="cls-46" x="951.36" y="1019.2" width=".55" height="13.58" rx=".12" ry=".12" transform="translate(-360.04 538.36) rotate(-26.76)"/>
  <rect class="cls-42" x="952.69" y="1027.87" width="5.2" height=".51"/>
  <rect class="cls-46" x="948.4" y="1024.15" width="7.67" height=".71"/>
  <path class="cls-17" d="M949.48,1024.13c3.28,0,6.57,.01,9.85,.02,0-.04,.02-.1,0-.16-.07-.29-.52-.41-1.22-.55-.79-.16-1.19-.25-1.66-.29-.59-.06-1.01-.07-1.64-.08-.9-.01-1.58,.02-1.94,.04-.3,.02-.52,.04-.97,.08-.77,.07-1.34,.13-1.75,.36-.26,.14-.46,.34-.46,.34-.09,.09-.16,.18-.21,.25h0Z"/>
  <rect class="cls-46" x="948.48" y="1027.81" width="8.43" height=".55" rx=".12" ry=".12" transform="translate(-426.83 1276.06) rotate(-57.37)"/>
  <rect class="cls-46" x="953.5" y="1027.91" width="8.79" height=".52" rx=".12" ry=".12" transform="translate(-402.2 1381.52) rotate(-61.59)"/>
  <rect class="cls-42" x="955.53" y="1024.15" width="4.93" height=".71"/>
  <path class="cls-46" d="M946.46,1017.13l1.92,3.85c.05,.1,.14,.16,.25,.16h6.43c.21,0,.34-.22,.25-.4l-1.87-3.85c-.05-.1-.14-.16-.25-.16h-6.48c-.21,0-.34,.22-.25,.41h0Z"/>
  <rect class="cls-42" x="965.41" y="1025.3" width="14.91" height=".54" rx=".12" ry=".12" transform="translate(-380.9 1432.48) rotate(-63.24)"/>
  <rect class="cls-46" x="970.64" y="1026.15" width="13.58" height=".55" rx=".12" ry=".12" transform="translate(-379.15 1437.02) rotate(-63.24)"/>
  <rect class="cls-42" x="971.18" y="1028.3" width="5.2" height=".51"/>
  <rect class="cls-46" x="973" y="1024.57" width="7.67" height=".71"/>
  <path class="cls-17" d="M979.59,1024.56c-3.28,0-6.57,.01-9.85,.02,0-.04-.02-.1,0-.16,.07-.29,.52-.41,1.22-.55,.79-.16,1.19-.25,1.66-.29,.59-.06,1.01-.07,1.64-.08,.9-.01,1.58,.02,1.94,.04,.3,.02,.52,.04,.97,.08,.77,.07,1.34,.13,1.75,.36,.26,.14,.46,.34,.46,.34,.09,.09,.16,.18,.21,.25h0Z"/>
  <rect class="cls-46" x="976.1" y="1024.3" width=".55" height="8.43" rx=".12" ry=".12" transform="translate(-400.49 688.8) rotate(-32.63)"/>
  <rect class="cls-46" x="970.92" y="1024.2" width=".52" height="8.79" rx=".12" ry=".12" transform="translate(-372.42 585.94) rotate(-28.41)"/>
  <rect class="cls-42" x="968.61" y="1024.57" width="4.93" height=".71"/>
  <path class="cls-46" d="M982.61,1017.56l-1.92,3.85c-.05,.1-.14,.16-.25,.16h-6.43c-.21,0-.34-.22-.25-.4l1.87-3.85c.05-.1,.14-.16,.25-.16h6.48c.21,0,.34,.22,.25,.41h0Z"/>
  <path class="cls-42" d="M956.06,1019.97c-.09,.02-.07,.52,0,.79,.07,.3,.37,1.15,2.95,1.95,.92,.29,2.37,.65,4.75,.73,1.05,.04,2.29,.02,3.69-.12,1.44-.08,2.57-.37,3.35-.62,1.4-.46,1.93-.9,2.27-1.33,.24-.3,.38-.6,.47-.81-.26,.2-.65,.49-1.15,.78-1.55,.88-2.95,1.07-4.58,1.28-1.9,.24-3.34,.18-4.17,.14-.85-.04-2.2-.15-3.79-.52,0,0-1.04-.25-2.39-.93-.53-.27-.83-.48-1.05-.82-.18-.27-.26-.54-.33-.52h0Z"/>
  <rect class="cls-68" x="964.27" y="1007.47" width=".59" height="12.64" rx=".11" ry=".11"/>
  <path class="cls-18" d="M961.08,1005.92c-.02,.11-.06,.36,.05,.66,.1,.28,.28,.45,.37,.53,.17,.15,.46,.35,1.24,.47,.35,.05,.58,.06,1.78,.05,1.12,0,.91,0,1.09,0,1.14,0,1.46,.05,2-.1,.26-.07,.58-.2,.8-.49,.02-.03,.13-.17,.19-.39,.08-.27,.06-.51,.04-.64-2.52-.03-5.04-.05-7.56-.08Z"/>
  <path class="cls-13" d="M967.53,1019.15c.09-.31,.36-.52,.65-.52,.3,0,.57,.22,.65,.54"/>
  <rect class="cls-34" x="968.3" y="1018.41" width=".95" height=".18" rx=".09" ry=".09" transform="translate(-419.59 1238.32) rotate(-55.43)"/>
  <path class="cls-7" d="M967.05,1019.58c.07,.48,.13,.97,.2,1.45,.05,.01,.13,.03,.23,.04,.41,.06,.74,.04,1.02,.03,.14,0,.34-.02,.56-.05,.07-.49,.13-.98,.2-1.48-.41,.01-.82,.02-1.25,.02-.33,0-.65,0-.97-.01h0Z"/>
  <path class="cls-13" d="M967.95,1019.55c.09-.34,.38-.57,.68-.54,.27,.02,.51,.24,.58,.55"/>
  <path class="cls-13" d="M967.15,1019.58c.04-.27,.22-.49,.44-.56,.32-.1,.74,.12,.86,.54"/>
  <path class="cls-54" d="M967.02,1019.54h2.29s.04,.02,.04,.04h0s-.02,.04-.04,.04h-2.29s-.04-.02-.04-.04h0s.02-.04,.04-.04Z"/>
  <rect class="cls-19" x="968.73" y="1018.45" width=".04" height=".18" transform="translate(-408.77 1298.42) rotate(-57.92)"/>
  <rect class="cls-19" x="968.8" y="1018.35" width=".04" height=".18" transform="translate(-408.65 1298.43) rotate(-57.92)"/>
  <rect class="cls-19" x="968.87" y="1018.25" width=".04" height=".18" transform="translate(-408.54 1298.45) rotate(-57.92)"/>
  <rect class="cls-19" x="968.93" y="1018.16" width=".04" height=".18" transform="translate(-408.43 1298.46) rotate(-57.92)"/>
  <rect class="cls-19" x="968.99" y="1018.08" width=".04" height=".18" transform="translate(-408.33 1298.47) rotate(-57.92)"/>
  <rect class="cls-19" x="968.67" y="1018.54" width=".04" height=".18" transform="translate(-408.88 1298.41) rotate(-57.92)"/>
  <rect class="cls-19" x="968.6" y="1018.64" width=".04" height=".18" transform="translate(-408.99 1298.4) rotate(-57.92)"/>
  <rect class="cls-19" x="968.54" y="1018.73" width=".04" height=".18" transform="translate(-409.1 1298.39) rotate(-57.92)"/>
  <path class="cls-59" d="M959.66,1018.34c.15,1.08,.26,1.85,.27,2.05,0,.02,0,.09,.05,.15,.04,.06,.11,.11,.36,.15,.18,.03,.35,.03,.68,.03,.07,0,.17,0,.25-.07,.04-.04,.07-.09,.08-.12,.11-.72,.21-1.45,.32-2.17-.67,0-1.34-.01-2.01-.02h0Z"/>
  <path class="cls-50" d="M959.59,1018.07s-.01,.05-.02,.09c0,.04,0,.08,0,.11,0,.02,.02,.05,.04,.07,.02,.02,.05,.03,.07,.03,.41,.09,.92,.09,.92,.09,0,0,.24,0,.68-.03,0,0,.1,0,.23-.04,.1-.03,.15-.04,.19-.09,.07-.09,.05-.24,.02-.25-.01,0-.02,.02-.05,.05-.06,.07-.15,.08-.25,.08-.28,.02-.32,.03-.32,.03-.43,0-.36,.01-.49,.01-.1,0-.22,0-.46-.01-.34-.01-.43,0-.53-.09-.02-.02-.04-.04-.05-.05h0Z"/>
  <ellipse class="cls-35" cx="960.67" cy="1018.08" rx="1.09" ry=".22"/>
  <path class="cls-50" d="M959.86,1017.88s0,.04-.01,.07c0,.03,0,.06,0,.08,0,.01,.01,.04,.03,.05s.04,.02,.05,.02c.3,.07,.66,.07,.66,.07,0,0,.17,0,.5-.02,0,0,.07,0,.17-.03,.07-.02,.11-.03,.14-.07,.05-.07,.04-.18,.01-.18,0,0-.01,.02-.03,.04-.04,.05-.11,.05-.18,.06-.2,.02-.23,.02-.23,.02-.31,0-.26,0-.35,0-.07,0-.16,0-.33-.01-.25,0-.31,0-.39-.06-.02-.01-.03-.03-.04-.04h0Z"/>
  <ellipse class="cls-35" cx="960.64" cy="1017.88" rx=".79" ry=".16"/>
  <ellipse class="cls-50" cx="960.18" cy="1017.88" rx=".13" ry=".06"/>
  <path class="cls-19" d="M959.74,1018.94c.03,.28,.06,.57,.09,.85,.07,.04,.15,.07,.23,.1,.57,.19,1.1,.07,1.41-.04,.05-.3,.1-.61,.15-.91-.14,.04-.29,.08-.46,.11-.59,.09-1.09,0-1.42-.11h0Z"/>
  <path class="cls-9" d="M342.91,924.5c-6.94-.43-13.01-.31-17.97,0-7.56,.47-13.3,1.42-21.97,2.89-6.69,1.13-12.57,2.31-17.47,3.37-.83,31.01-1.66,62.01-2.5,93.02,.57,2.02,1.76,5.1,4.49,7.71,3.72,3.56,8.34,4.38,10.98,4.82,16.02,2.64,40.59,4.71,41.94,4.82,.83-38.88,1.66-77.76,2.5-116.63Z"/>
  <path class="cls-40" d="M393.25,1041.13c-2.28-18.03-4.87-32.1-6.85-41.73-1.85-9-4-18.21-4.98-31.76-.31-4.27-.35-6.9-.63-16.91-.36-13-.7-23.58-.94-30.73h-7.53v10.98c-3.26-.57-6.72-1.28-10.35-2.2-3.11-.78-6.04-1.63-8.78-2.51-.42-3.97-.84-7.94-1.25-11.92-3.76-.21-7.53-.42-11.29-.63-.02,1.27-.16,10.27-.18,11.55-.32,20.28-.35,21.33-.44,27.65-.24,16.44-.38,24.67-.31,31.36,.12,11.88,.42,13.38,.31,23.21-.09,7.76-.39,17.1-.63,24.46-.12,3.81-.24,6.96-.31,9.09,18.06,.03,36.11,.05,54.17,.08Z"/>
  <path class="cls-9" d="M108.4,1074.13c2.28-18.03,4.87-32.1,6.85-41.73,1.85-9,4-18.21,4.98-31.76,.31-4.27,.35-6.9,.63-16.91,.36-13,.7-23.58,.94-30.73h7.53v10.98c3.26-.57,6.72-1.28,10.35-2.2,3.11-.78,6.04-1.63,8.78-2.51,.42-3.97,.84-7.94,1.25-11.92,3.76-.21,7.53-.42,11.29-.63,.02,1.27,.16,10.27,.18,11.55,.32,20.28,.35,21.33,.44,27.65,.24,16.44,.38,24.67,.31,31.36-.12,11.88-.42,13.38-.31,23.21,.09,7.76,.39,17.1,.63,24.46,.12,3.81,.24,6.96,.31,9.09-18.06,.03-36.11,.05-54.17,.08Z"/>
  <path class="cls-40" d="M209.25,1074.13c-2.28-18.03-4.87-32.1-6.85-41.73-1.85-9-4-18.21-4.98-31.76-.31-4.27-.35-6.9-.63-16.91-.36-13-.7-23.58-.94-30.73h-7.53v10.98c-3.26-.57-6.72-1.28-10.35-2.2-3.11-.78-6.04-1.63-8.78-2.51-.42-3.97-.84-7.94-1.25-11.92-3.76-.21-7.53-.42-11.29-.63-.02,1.27-.16,10.27-.18,11.55-.32,20.28-.35,21.33-.44,27.65-.24,16.44-.38,24.67-.31,31.36,.12,11.88,.42,13.38,.31,23.21-.09,7.76-.39,17.1-.63,24.46-.12,3.81-.24,6.96-.31,9.09,18.06,.03,36.11,.05,54.17,.08Z"/>
  <ellipse class="cls-55" cx="82.92" cy="1074.71" rx="6.59" ry="4.52" transform="translate(-194.13 33.02) rotate(-10.48)"/>
  <ellipse class="cls-48" cx="63.5" cy="1085.98" rx="7.82" ry="5.37" transform="translate(-583.32 211.33) rotate(-33.14)"/>
  <ellipse class="cls-55" cx="105.37" cy="1067.89" rx="5.84" ry="4.01" transform="translate(-740.14 407.14) rotate(-46.36)"/>
  <ellipse class="cls-55" cx="182.07" cy="1096.28" rx="9.56" ry="6.56" transform="translate(-89.68 18.72) rotate(-4.72)"/>
  <ellipse class="cls-48" cx="231.16" cy="1084.79" rx="9.56" ry="6.56" transform="translate(-472.99 227.83) rotate(-27.38)"/>
  <ellipse class="cls-48" cx="198.91" cy="1092.54" rx="13.91" ry="6.99" transform="translate(-296.46 98.65) rotate(-16.17)"/>
  <ellipse class="cls-55" cx="216.66" cy="1088.12" rx="8.48" ry="5.82" transform="translate(-655.98 402.95) rotate(-40.6)"/>
  <ellipse class="cls-48" cx="167.8" cy="1099.72" rx="9.56" ry="6.56" transform="translate(-486.95 200.36) rotate(-27.38)"/>
  <ellipse class="cls-55" cx="247.52" cy="1081.98" rx="9.56" ry="6.56" transform="translate(-65.16 17) rotate(-3.48)"/>
  <ellipse class="cls-48" cx="296.84" cy="1071.56" rx="9.56" ry="6.56" transform="translate(-441.61 240.27) rotate(-26.13)"/>
  <ellipse class="cls-48" cx="264.43" cy="1078.61" rx="13.91" ry="6.99" transform="translate(-268.89 104.5) rotate(-14.93)"/>
  <ellipse class="cls-55" cx="282.27" cy="1074.58" rx="8.48" ry="5.82" transform="translate(-617.38 422.64) rotate(-39.35)"/>
  <ellipse class="cls-55" cx="311.73" cy="1069.56" rx="8.43" ry="5.78" transform="translate(-87.04 29.31) rotate(-4.72)"/>
  <ellipse class="cls-48" cx="355" cy="1059.44" rx="8.43" ry="5.78" transform="translate(-447.45 281.94) rotate(-27.38)"/>
  <ellipse class="cls-48" cx="326.58" cy="1066.26" rx="12.26" ry="6.16" transform="translate(-284.08 133.17) rotate(-16.17)"/>
  <ellipse class="cls-55" cx="342.22" cy="1062.37" rx="7.47" ry="5.13" transform="translate(-608.99 478.47) rotate(-40.6)"/>
  <ellipse class="cls-55" cx="366.89" cy="1057.85" rx="4.41" ry="6.42" transform="translate(-710.46 1362.79) rotate(-86.68)"/>
  <ellipse class="cls-48" cx="400.61" cy="1054.83" rx="6.42" ry="4.41" transform="translate(-326.59 192.09) rotate(-19.33)"/>
  <ellipse class="cls-48" cx="378.44" cy="1056.95" rx="9.34" ry="4.69" transform="translate(-145.59 64.1) rotate(-8.13)"/>
  <ellipse class="cls-55" cx="390.66" cy="1055.68" rx="5.69" ry="3.91" transform="translate(-506.66 376.05) rotate(-32.55)"/>
  <ellipse class="cls-55" cx="405.55" cy="1052.95" rx="2.83" ry="4.13" transform="translate(-669.13 1396.77) rotate(-86.68)"/>
  <ellipse class="cls-48" cx="427.23" cy="1051" rx="4.13" ry="2.83" transform="translate(-323.83 200.68) rotate(-19.33)"/>
  <ellipse class="cls-48" cx="412.98" cy="1052.37" rx="6.01" ry="3.02" transform="translate(-144.59 68.93) rotate(-8.13)"/>
  <ellipse class="cls-55" cx="420.83" cy="1051.55" rx="3.66" ry="2.51" transform="translate(-499.7 391.64) rotate(-32.55)"/>
  <ellipse class="cls-55" cx="433.08" cy="1051.03" rx="1.68" ry="2.44" transform="translate(-682.71 1268.36) rotate(-78.63)"/>
  <ellipse class="cls-48" cx="445.95" cy="1051.69" rx="2.44" ry="1.68" transform="translate(-197.14 107.57) rotate(-11.28)"/>
  <ellipse class="cls-48" cx="437.48" cy="1051.3" rx="3.55" ry="1.79" transform="translate(-1.4 .59) rotate(-.08)"/>
  <ellipse class="cls-55" cx="442.15" cy="1051.48" rx="2.17" ry="1.49" transform="translate(-396.28 278.09) rotate(-24.5)"/>
  <ellipse class="cls-55" cx="449" cy="1051.96" rx="1.68" ry="2.44" transform="translate(-670.84 1284.71) rotate(-78.63)"/>
  <ellipse class="cls-48" cx="461.86" cy="1052.61" rx="2.44" ry="1.68" transform="translate(-197.02 110.71) rotate(-11.28)"/>
  <ellipse class="cls-48" cx="453.4" cy="1052.23" rx="3.55" ry="1.79" transform="translate(-1.4 .61) rotate(-.08)"/>
  <ellipse class="cls-55" cx="458.07" cy="1052.4" rx="2.17" ry="1.49" transform="translate(-395.23 284.77) rotate(-24.5)"/>
  <ellipse class="cls-55" cx="465.99" cy="1053.34" rx="1.68" ry="2.44" transform="translate(-641.8 1368.74) rotate(-82.03)"/>
  <ellipse class="cls-48" cx="478.87" cy="1053.23" rx="2.44" ry="1.68" transform="translate(-251.32 155.77) rotate(-14.68)"/>
  <ellipse class="cls-48" cx="470.4" cy="1053.35" rx="3.55" ry="1.79" transform="translate(-63.01 30.47) rotate(-3.48)"/>
  <ellipse class="cls-55" cx="475.07" cy="1053.25" rx="2.17" ry="1.49" transform="translate(-437.68 344.79) rotate(-27.9)"/>
  <ellipse class="cls-55" cx="482.09" cy="1053.62" rx="2.44" ry="1.68" transform="translate(-60.04 29.6) rotate(-3.31)"/>
  <ellipse class="cls-48" cx="494.7" cy="1050.99" rx="2.44" ry="1.68" transform="translate(-410.22 322.69) rotate(-25.97)"/>
  <ellipse class="cls-48" cx="486.42" cy="1052.77" rx="3.55" ry="1.79" transform="translate(-252.15 158.66) rotate(-14.76)"/>
  <ellipse class="cls-55" cx="490.98" cy="1051.75" rx="2.17" ry="1.49" transform="translate(-554.12 546.77) rotate(-39.19)"/>
  <ellipse class="cls-55" cx="497.79" cy="1049.96" rx="2.16" ry="1.49" transform="translate(-59.8 30.5) rotate(-3.31)"/>
  <ellipse class="cls-48" cx="508.96" cy="1047.64" rx="2.16" ry="1.49" transform="translate(-407.31 328.59) rotate(-25.97)"/>
  <ellipse class="cls-48" cx="501.62" cy="1049.21" rx="3.15" ry="1.58" transform="translate(-250.75 162.41) rotate(-14.76)"/>
  <ellipse class="cls-55" cx="505.66" cy="1048.31" rx="1.92" ry="1.32" transform="translate(-548.65 555.28) rotate(-39.19)"/>
  <ellipse class="cls-55" cx="510.55" cy="1046.82" rx="1.62" ry="1.11" transform="translate(-260.25 173.69) rotate(-15.44)"/>
  <ellipse class="cls-48" cx="513.24" cy="1045.67" rx="2.36" ry="1.19" transform="translate(-417.41 345.15) rotate(-26.89)"/>
  <ellipse class="cls-55" cx="516.06" cy="1044.37" rx="1.44" ry=".99" transform="translate(-621.73 794.43) rotate(-51.32)"/>
  <path class="cls-32" d="M593.59,1108.86c1.25,2.38,2.5,4.75,3.74,7.13,9.46,.04,18.92,.08,28.38,.12,.22-2.45,.43-4.9,.65-7.35-10.93,.03-21.85,.07-32.78,.1Z"/>
  <path class="cls-32" d="M862.46,1109.82c-11.49-.11-22.97-.22-34.46-.33-1.03-1.95-2.06-3.9-3.09-5.85h40.15c-.87,2.06-1.73,4.12-2.6,6.18Z"/>
  <g>
    <path class="cls-28" d="M801.22,1103.46c2.07,.39,4.14,.78,6.21,1.16,.28,.88,.57,1.76,.85,2.64-1.99,.08-3.98,.16-5.97,.23-.36-1.34-.72-2.69-1.09-4.03Z"/>
    <path class="cls-62" d="M804.3,1110.49c-.85-3.33-1.71-6.65-2.56-9.98-17.43-.67-34.87-1.35-52.3-2.02,2.16,3.91,4.31,7.82,6.47,11.73,16.13,.09,32.26,.18,48.39,.27Z"/>
    <path class="cls-19" d="M802.92,1105.11c-.3-1.16-.6-2.31-.9-3.47-17.33-.7-34.66-1.39-52-2.09,.78,1.45,1.56,2.89,2.34,4.34,16.85,.41,33.7,.81,50.56,1.22Z"/>
    <path class="cls-24" d="M802.81,1104.68c.13,.49,.26,.98,.39,1.47-16.88-.65-33.75-1.29-50.63-1.94-.26-.46-.52-.93-.78-1.39,17.01,.62,34.01,1.24,51.02,1.86Z"/>
    <path class="cls-28" d="M793.08,1100.14c-1.35-2.68-2.7-5.36-4.05-8.03,1.57-.43,3.14-.87,4.7-1.3-1.04-1.06-2.07-2.12-3.11-3.18-7.14,1.35-14.28,2.7-21.42,4.05-2.65,2.41-5.31,4.82-7.96,7.24"/>
    <path class="cls-62" d="M785.91,1094.58c.94,1.3,1.88,2.61,2.82,3.91-7.21-.22-14.42-.43-21.64-.65,1.25-1.3,2.51-2.61,3.76-3.91,5.02,.22,10.03,.43,15.05,.65Z"/>
    <path class="cls-2" d="M753.78,1099.21c-.93-1.46-1.86-2.93-2.78-4.39,15.27,1.13,30.55,2.25,45.82,3.38,.42,.82,.84,1.63,1.27,2.45"/>
    <path class="cls-2" d="M789.67,1097.73l1.35,2.53"/>
    <path class="cls-2" d="M783.25,1097.22l1.35,2.92"/>
    <path class="cls-2" d="M776.96,1096.64c.45,1.09,.9,2.18,1.35,3.28"/>
    <path class="cls-2" d="M770.85,1096.28c.45,1.09,.9,2.18,1.35,3.28"/>
    <path class="cls-2" d="M765.47,1095.89l1.35,3.66"/>
    <path class="cls-2" d="M758.92,1095.39c.45,1.22,.9,2.44,1.35,3.66"/>
  </g>
  <rect class="cls-69" x="52.32" y="0" width="1084" height="1920"/>
</svg>