<?xml version="1.0" encoding="utf-8"?>
<!-- Generator: Adobe Illustrator 27.0.0, SVG Export Plug-In . SVG Version: 6.00 Build 0)  -->
<svg version="1.1" id="Lager_1" xmlns="http://www.w3.org/2000/svg" xmlns:xlink="http://www.w3.org/1999/xlink" x="0px" y="0px"
	 viewBox="0 0 1080 1459.48" style="enable-background:new 0 0 1080 1459.48;" xml:space="preserve">
<style type="text/css">
	.st0{fill:#F3DBBB;}
	.st1{opacity:0.85;fill:#1E2D57;}
	.st2{fill:#CE6430;}
	.st3{fill:#F6E4CF;}
	.st4{fill:#605352;}
	.st5{fill:#E77849;}
	.st6{fill:#E3DACF;}
	.st7{fill:#D9C3A7;}
	.st8{fill:#CB672A;}
	.st9{fill:#FFFFFF;}
	.st10{fill:#002D62;}
	.st11{fill:#D06428;}
	.st12{fill:#CDC8B8;}
	.st13{fill:#B19B87;}
	.st14{fill:#E3C9A6;}
	.st15{fill:#A66A50;}
	.st16{fill:#AF9985;}
	.st17{fill:#E47748;}
	.st18{fill:#FAF0E3;}
	.st19{fill:#DAC4A7;}
	.st20{fill:#AF9E8A;}
	.st21{fill:#F5DBBE;}
	.st22{fill:#E3DAD0;}
	.st23{fill:#E37546;}
	.st24{fill:#BFBEB0;}
	.st25{fill:#695861;}
	.st26{fill:#CBC6BB;}
	.st27{fill:#E4DAD2;}
	.st28{fill:#8E889E;}
	.st29{fill:#FFE7C1;}
	.st30{fill:#0B0706;}
	.st31{fill:#212023;}
	.st32{fill:#815330;}
	.st33{fill:#7E6E6A;}
	.st34{fill:#0EB3AD;}
	.st35{fill:#7B5540;}
	.st36{fill:#BC9680;stroke:#B38870;stroke-width:0.25;stroke-miterlimit:10;}
	.st37{fill:#B38870;}
	.st38{fill:#FFFCF5;}
	.st39{fill:#FFFBEE;}
	.st40{fill:#BC9680;}
	.st41{fill:#EAEAEA;stroke:#FFFFFF;stroke-width:0.25;stroke-miterlimit:10;}
	.st42{fill:#EAEAEA;}
	.st43{fill:#D0D0D0;}
	.st44{fill:none;}
	.st45{fill:#68472E;}
	.st46{fill:#754C33;}
	.st47{fill:#B7B7B7;}
	.st48{fill:#AAAAAA;}
	.st49{fill:#919191;}
	.st50{fill:#FFF5E0;}
	.st51{fill:#8C644B;}
	.st52{fill:#DDDDDD;}
	.st53{fill:#D6BFB2;}
	.st54{fill:#AA7D60;}
	.st55{fill:#BB9680;}
	.st56{fill:#F78D84;}
	.st57{fill:#F7F6F7;}
	.st58{fill:#FFFFFF;stroke:#000000;stroke-width:0.25;stroke-miterlimit:10;}
	.st59{fill:#AEDEE4;}
	.st60{fill:#494349;}
	.st61{fill:#716871;}
	.st62{fill:#494349;stroke:#FFFFFF;stroke-width:0.25;stroke-miterlimit:10;}
	.st63{fill:#E6F5DE;}
	.st64{fill:#FDFDFD;}
	.st65{fill:#1B415C;}
	.st66{fill:#E85050;}
	.st67{fill:none;stroke:#000000;stroke-miterlimit:10;}
</style>
<path class="st0" d="M-1,2079"/>
<rect x="-0.5" y="0.85" class="st1" width="1081" height="1920"/>
<polygon class="st2" points="343.33,836.8 331.12,836.8 306.69,858.42 367.75,858.42 "/>
<rect x="307.16" y="859.21" class="st3" width="60.59" height="160.06"/>
<rect x="307.16" y="857.99" class="st4" width="60.59" height="1.22"/>
<path class="st5" d="M481.64,863.59H418.7v-23.76c13.25,0,26.49,0,39.74,0C466.17,847.75,473.9,855.67,481.64,863.59z"/>
<polygon class="st6" points="443.65,863.66 418.57,839.83 393.49,863.66 393.49,928.51 443.91,928.51 443.91,863.66 "/>
<rect x="443.73" y="863.66" class="st7" width="37.91" height="64.85"/>
<polygon class="st3" points="414.16,870.02 414.16,910.6 414.41,910.6 414.41,1022.92 414.16,1022.92 371.99,1022.92 
	365.15,1022.92 365.15,870.02 "/>
<polygon class="st8" points="389.31,845.1 365.15,869.97 413.47,869.97 "/>
<path class="st9" d="M414.36,870.87h-50.85c-0.18,0-0.32-0.14-0.32-0.32v-1.15c0-0.18,0.14-0.32,0.32-0.32h50.85
	c0.18,0,0.32,0.14,0.32,0.32v1.15C414.68,870.72,414.54,870.87,414.36,870.87z"/>
<path class="st10" d="M1016,1921.74c-339,0-678,0-1017,0c0-275,0-550,0-825c218.12-32.9,383-54.51,456-63.13
	c65.01-7.68,122.03-12.72,186.47-15.23c12.86-0.5,21.76-0.7,27.01-0.88c156.52-5.43,285.89,4.75,375.52,15.24
	C1034.67,1329.07,1025.33,1625.41,1016,1921.74z"/>
<path class="st10" d="M26,1921.74c46.83-26.49,67.64-56.04,78-78c15.94-33.79,26.01-89.12,48-125c25.07-40.89,34.95-35.76,64-79
	c38.07-56.65,27.23-74.56,62-136c24.03-42.46,47.01-83.07,93-114c0,0,93.61-62.97,115.77-86.42c4.14-4.38,7.91-9.02,7.91-9.02
	c35.22-43.47,20.05-62.67,61.53-110.75c37.81-43.83,89.84-73.59,127.79-91.84c63.1,0.9,126.21,1.8,189.31,2.7
	c6.9,275.44,13.8,550.88,20.7,826.32c-193.33,0.33-386.67,0.67-580,1C218,1921.74,122,1921.74,26,1921.74z"/>
<path class="st10" d="M323,1878.74c4.12-38.44-4.69-52.3,3-81c5.67-21.15,16.12-35.64,24.17-46.08
	c26.11-33.81,55.83-37.9,78.83-101.92c9.23-25.68,39.83-123.56,72.21-149.72c0.6-0.48,4.02-3.22,7.41-5.92
	c9.14-7.3,26.04-20.71,47.01-36.89c10.22-7.89,22.87-17.97,39.76-32.14c64.13-53.81,75.17-70.33,82.64-86.49
	c14.3-30.93,8.14-44.59,24.99-78.8c15.35-31.19,36.48-52.36,51.89-65.35c25.63,0.64,51.25,1.28,76.88,1.92
	c2.07,241.46,4.14,482.93,6.21,724.39c-174.67,0.33-349.33,0.67-524,1C316.85,1912.7,320.97,1897.69,323,1878.74z"/>
<path class="st0" d="M488.49,1100.91c15.72-0.11,38.09-0.3,64.94-0.59c23.8-0.26,55.75-0.66,129.84-1.88
	c74.46-1.23,111.68-1.84,124.22-2.29c33.23-1.18,64.7-2.78,122.92-5.74c24.23-1.23,44.3-2.3,58.09-3.04
	c0.43-6.12,0.85-12.23,1.28-18.35c-29.67,2.57-74.59,5.97-129.51,8.19c-54.37,2.2-88.12,2-183.57,2.59
	c-37.95,0.23-93.87,0.64-162.66,1.39c-2.49,0.04-9.78,0.35-16.3,3.77C486.41,1090.89,488.38,1100.46,488.49,1100.91z"/>
<path class="st11" d="M1039.23,876.8c-7.34-0.09-14.68-0.17-22.03-0.26V858.4h18.33C1036.77,864.53,1038,870.67,1039.23,876.8z"/>
<polygon class="st12" points="1017.21,858.4 1014.05,876.42 1020.37,876.42 "/>
<rect x="1018.62" y="876.42" class="st13" width="20.61" height="64.92"/>
<rect x="1014.05" y="876.42" class="st12" width="6.32" height="64.92"/>
<polygon class="st0" points="1023.51,887.6 1023.51,919.63 1023.26,919.63 1023.26,1008.28 1023.51,1008.28 1065.68,1008.28 
	1072.52,1008.28 1072.52,887.6 "/>
<polygon class="st8" points="1048.36,862.68 1072.52,887.56 1024.2,887.56 "/>
<path class="st9" d="M1022.46,888.45h50.85c0.18,0,0.32-0.14,0.32-0.32v-1.15c0-0.18-0.14-0.32-0.32-0.32h-50.85
	c-0.18,0-0.32,0.14-0.32,0.32v1.15C1022.14,888.31,1022.29,888.45,1022.46,888.45z"/>
<rect x="946.99" y="891.87" class="st14" width="67.06" height="140.87"/>
<path class="st15" d="M1018.24,891.87H942.8c2.87-4.81,5.75-9.62,8.62-14.42c19.87,0,39.74,0,59.61,0
	C1013.43,882.26,1015.84,887.07,1018.24,891.87z"/>
<path class="st16" d="M1079,948.74c-53.82,61.18-87.53,89.43-108.78,103.84c-6.38,4.33-29.75,21.09-59.33,46.06
	c-6.23,5.26-12.95,11.52-21.07,20.03c-43.25,45.25-68.93,93.73-87.71,129.73c-9.58,18.37-9.43,31.11-22.48,48.16
	c-13.33,17.41-22.7,20.13-37.32,36.45c-20.21,22.56-20.19,37.31-31.57,58.41c-17.03,31.61-47.64,34.62-75.27,68.85
	c-28.83,35.71-6.43,56.02-30.46,103.54c-25.49,50.42-57.92,41.83-91,86.64c-37.32,50.56-1.58,109.42-40,186.62
	c-11.92,23.94-35.08,55.35-85,82.66c230.67,0.67,461.33,1.33,692,2C1080.33,1597.41,1079.67,1273.07,1079,948.74z"/>
<rect x="998.77" y="941.58" transform="matrix(-1 -4.498591e-11 4.498591e-11 -1 2028.7587 1953.9108)" class="st13" width="31.22" height="70.76"/>
<path class="st6" d="M982.68,1012.33h17.04v-90.05c-2.68,0-5.35,0-8.03,0c-3,6.32-6,12.64-9.01,18.96
	C982.68,964.94,982.68,988.63,982.68,1012.33z"/>
<path class="st17" d="M998.77,941.58h31.22c-2.87-6.43-5.74-12.87-8.61-19.3c-9.9,0-19.8,0-29.7,0
	C994.04,928.71,996.41,935.14,998.77,941.58z"/>
<rect x="1010.83" y="953.13" transform="matrix(-1 -4.547752e-11 4.547752e-11 -1 2030.0677 1918.8118)" class="st18" width="8.4" height="12.55"/>
<rect x="1031.68" y="949.56" class="st3" width="31.22" height="70.76"/>
<path class="st19" d="M1078.99,1020.32h-17.04v-90.05c2.68,0,5.35,0,8.03,0c3,6.32,6,12.64,9.01,18.96
	C1078.99,972.92,1078.99,996.62,1078.99,1020.32z"/>
<path class="st17" d="M1062.9,949.56h-31.22c2.87-6.43,5.74-12.87,8.61-19.3c9.9,0,19.8,0,29.7,0
	C1067.62,936.7,1065.26,943.13,1062.9,949.56z"/>
<rect x="1042.43" y="961.12" class="st20" width="8.4" height="12.55"/>
<path class="st5" d="M846.16,851.81h62.94v-23.76c-13.25,0-26.49,0-39.74,0C861.62,835.97,853.89,843.89,846.16,851.81z"/>
<polygon class="st6" points="884.15,851.88 909.23,828.05 934.31,851.88 934.31,916.73 883.88,916.73 883.88,851.88 "/>
<rect x="846.16" y="851.88" transform="matrix(-1 -7.619473e-11 7.619473e-11 -1 1730.2278 1768.6052)" class="st7" width="37.91" height="64.85"/>
<polygon class="st0" points="897.87,870.93 897.87,911.51 897.61,911.51 897.61,1023.83 897.87,1023.83 940.03,1023.83 
	946.87,1023.83 946.87,870.93 "/>
<polygon class="st8" points="922.71,846.01 946.87,870.88 898.55,870.88 "/>
<path class="st9" d="M896.81,871.78h50.85c0.18,0,0.32-0.14,0.32-0.32v-1.15c0-0.18-0.14-0.32-0.32-0.32h-50.85
	c-0.18,0-0.32,0.14-0.32,0.32v1.15C896.5,871.63,896.64,871.78,896.81,871.78z"/>
<rect x="285.45" y="860.46" transform="matrix(-1 -4.859902e-11 4.859902e-11 -1 602.1221 1797.1954)" class="st13" width="31.22" height="76.28"/>
<path class="st19" d="M269.36,931.21h17.04v-90.05c-2.68,0-5.35,0-8.03,0c-3,6.32-6,12.64-9.01,18.96
	C269.36,883.81,269.36,907.51,269.36,931.21z"/>
<path class="st17" d="M285.45,860.46h31.22c-2.87-6.43-5.74-12.87-8.61-19.3c-9.9,0-19.8,0-29.7,0
	C280.73,847.59,283.09,854.02,285.45,860.46z"/>
<rect x="297.52" y="867.01" transform="matrix(-1 -4.504453e-11 4.504453e-11 -1 603.4312 1746.5691)" class="st18" width="8.4" height="12.55"/>
<rect x="814.18" y="868.58" class="st14" width="43.89" height="170.5"/>
<path class="st15" d="M860.81,868.58h-49.37c1.88-4.81,3.76-9.62,5.64-14.42c13.01,0,26.01,0,39.02,0
	C857.67,858.96,859.24,863.77,860.81,868.58z"/>
<path class="st11" d="M620.11,820.37c-7.34-0.07-14.68-0.15-22.03-0.22v-15.42h18.33C617.64,809.95,618.87,815.16,620.11,820.37z"/>
<polygon class="st12" points="598.08,804.74 594.92,820.05 601.24,820.05 "/>
<rect x="599.49" y="820.05" class="st13" width="20.61" height="58.89"/>
<rect x="594.92" y="820.05" class="st12" width="6.32" height="58.89"/>
<polygon class="st13" points="221.61,879.12 221.61,917.24 221.35,917.24 221.35,1022.74 221.61,1022.74 263.78,1022.74 
	270.61,1022.74 270.61,879.12 "/>
<polygon class="st8" points="245.98,854.24 270.61,879.12 221.35,879.12 "/>
<rect x="184.3" y="916.5" class="st3" width="31.22" height="70.76"/>
<path class="st19" d="M231.61,987.25h-17.04V897.2c2.68,0,5.35,0,8.03,0c3,6.32,6,12.64,9.01,18.96
	C231.61,939.85,231.61,963.55,231.61,987.25z"/>
<path class="st17" d="M215.51,916.5H184.3c2.87-6.43,5.74-12.87,8.61-19.3c9.9,0,19.8,0,29.7,0
	C220.24,903.63,217.87,910.06,215.51,916.5z"/>
<rect x="195.05" y="928.05" class="st20" width="8.4" height="12.55"/>
<path class="st19" d="M175.81,947.4c6.94-0.43,13.01-0.31,17.97,0c7.56,0.47,13.3,1.42,21.97,2.89c6.69,1.13,12.57,2.31,17.47,3.37
	c0.83,31.01,1.66,62.01,2.5,93.02c-0.57,2.02-1.76,5.1-4.49,7.71c-3.72,3.56-8.34,4.38-10.98,4.82
	c-16.02,2.64-40.59,4.71-41.94,4.82C177.48,1025.15,176.64,986.27,175.81,947.4z"/>
<path class="st21" d="M125.47,1064.03c2.28-18.03,4.87-32.1,6.85-41.73c1.85-9,4-18.21,4.98-31.76c0.31-4.27,0.35-6.9,0.63-16.91
	c0.36-13,0.7-23.58,0.94-30.73c2.51,0,5.02,0,7.53,0c0,3.66,0,7.32,0,10.98c3.26-0.57,6.72-1.28,10.35-2.2
	c3.11-0.78,6.04-1.63,8.78-2.51c0.42-3.97,0.84-7.94,1.25-11.92c3.76-0.21,7.53-0.42,11.29-0.63c0.02,1.27,0.16,10.27,0.18,11.55
	c0.32,20.28,0.35,21.33,0.44,27.65c0.24,16.44,0.38,24.67,0.31,31.36c-0.12,11.88-0.42,13.38-0.31,23.21
	c0.09,7.76,0.39,17.1,0.63,24.46c0.12,3.81,0.24,6.96,0.31,9.09C161.58,1063.98,143.53,1064,125.47,1064.03z"/>
<rect x="623.09" y="840.99" class="st19" width="40.87" height="143.43"/>
<path class="st17" d="M643.29,821.8c-11.42,0-20.67,6.71-20.67,14.99h41.34C663.96,828.51,654.71,821.8,643.29,821.8z"/>
<path class="st13" d="M666.02,841.5h-45c-0.46,0-0.84-0.38-0.84-0.84v-3.04c0-0.46,0.38-0.84,0.84-0.84h45
	c0.46,0,0.84,0.38,0.84,0.84v3.04C666.86,841.13,666.49,841.5,666.02,841.5z"/>
<rect x="526.12" y="828.23" class="st14" width="67.06" height="170.5"/>
<path class="st15" d="M597.37,828.23h-75.43c2.87-4.81,5.75-9.62,8.62-14.42c19.87,0,39.74,0,59.61,0
	C592.57,818.62,594.97,823.42,597.37,828.23z"/>
<polygon class="st0" points="777.7,906.06 777.7,938.08 777.45,938.08 777.45,1026.73 777.7,1026.73 819.87,1026.73 826.71,1026.73 
	826.71,906.06 "/>
<polygon class="st8" points="802.55,881.13 826.71,906.01 778.39,906.01 "/>
<path class="st9" d="M776.65,906.9h50.85c0.18,0,0.32-0.14,0.32-0.32v-1.15c0-0.18-0.14-0.32-0.32-0.32h-50.85
	c-0.18,0-0.32,0.14-0.32,0.32v1.15C776.33,906.76,776.48,906.9,776.65,906.9z"/>
<rect x="679.96" y="856.23" class="st14" width="107.67" height="170.5"/>
<path class="st15" d="M794.35,856.23H673.24c4.61-4.81,9.22-9.62,13.84-14.42c31.9,0,63.8,0,95.7,0
	C786.64,846.62,790.5,851.43,794.35,856.23z"/>
<rect x="664.14" y="899.48" class="st13" width="31.22" height="83.27"/>
<path class="st19" d="M711.45,982.75h-17.04V876.76c2.68,0,5.35,0,8.03,0c3,7.44,6,14.88,9.01,22.31
	C711.45,926.97,711.45,954.86,711.45,982.75z"/>
<path class="st17" d="M695.35,899.48h-31.22c2.87-7.57,5.74-15.14,8.61-22.71c9.9,0,19.8,0,29.7,0
	C700.08,884.33,697.72,891.91,695.35,899.48z"/>
<rect x="674.89" y="913.07" class="st18" width="8.4" height="14.77"/>
<path class="st11" d="M664.14,900.25c-7.34-0.09-14.68-0.17-22.03-0.26v-18.14h18.33C661.68,887.98,662.91,894.12,664.14,900.25z"/>
<polygon class="st12" points="642.11,881.85 638.95,899.87 645.27,899.87 "/>
<rect x="643.53" y="899.87" class="st3" width="20.61" height="64.92"/>
<rect x="638.95" y="899.87" class="st12" width="6.32" height="64.92"/>
<polygon class="st13" points="585.01,887.34 585.01,908.61 584.75,908.61 584.75,967.49 585.01,967.49 627.18,967.49 634.01,967.49 
	634.01,887.34 "/>
<polygon class="st8" points="609.86,861.57 634.01,886.44 585.7,886.44 "/>
<path class="st9" d="M584.19,887.34h50.85c0.18,0,0.32-0.14,0.32-0.32v-1.15c0-0.18-0.14-0.32-0.32-0.32h-50.85
	c-0.18,0-0.32,0.14-0.32,0.32v1.15C583.87,887.19,584.01,887.34,584.19,887.34z"/>
<rect x="600.55" y="897.61" transform="matrix(4.486018e-11 -1 1 4.486018e-11 -292.896 1512.6073)" class="st9" width="18.61" height="10.27"/>
<rect x="601.94" y="898.74" transform="matrix(4.503604e-11 -1 1 4.503604e-11 -292.896 1512.6073)" class="st20" width="15.83" height="8.03"/>
<path class="st22" d="M613.04,938.28v21.65h15.91v-21.65c0-1.56-1.27-2.83-2.83-2.83h-10.25
	C614.31,935.45,613.04,936.71,613.04,938.28z"/>
<rect x="413" y="927.74" class="st6" width="60.67" height="98.99"/>
<rect x="516.79" y="916.73" transform="matrix(-1 -4.498591e-11 4.498591e-11 -1 1064.7916 1904.2068)" class="st13" width="31.22" height="70.76"/>
<path class="st19" d="M500.69,987.48h17.04v-90.05c-2.68,0-5.35,0-8.03,0c-3,6.32-6,12.64-9.01,18.96
	C500.69,940.08,500.69,963.78,500.69,987.48z"/>
<path class="st17" d="M516.79,916.73H548c-2.87-6.43-5.74-12.87-8.61-19.3c-9.9,0-19.8,0-29.7,0
	C512.06,903.86,514.42,910.29,516.79,916.73z"/>
<rect x="528.85" y="928.28" transform="matrix(-1 -4.417812e-11 4.417812e-11 -1 1066.1007 1869.1078)" class="st18" width="8.4" height="12.55"/>
<rect x="394.54" y="943.61" transform="matrix(6.123234e-17 -1 1 6.123234e-17 -501.0012 1417.2812)" class="st0" width="127.2" height="31.05"/>
<polygon class="st23" points="458.14,879.1 442.61,895.54 473.67,895.54 "/>
<rect x="547.7" y="924.71" class="st3" width="31.22" height="70.76"/>
<path class="st19" d="M595.01,995.47h-17.04v-90.05c2.68,0,5.35,0,8.03,0c3,6.32,6,12.64,9.01,18.96
	C595.01,948.07,595.01,971.77,595.01,995.47z"/>
<path class="st17" d="M578.91,924.71H547.7c2.87-6.43,5.74-12.87,8.61-19.3c9.9,0,19.8,0,29.7,0
	C583.64,911.85,581.28,918.28,578.91,924.71z"/>
<rect x="558.45" y="936.26" class="st20" width="8.4" height="12.55"/>
<rect x="470.42" y="883.04" class="st24" width="40.87" height="143.43"/>
<polygon class="st25" points="490.67,818.13 498.44,840.7 482.91,840.7 "/>
<rect x="490.3" y="807.38" class="st9" width="0.74" height="13.88"/>
<rect x="490.3" y="807.58" transform="matrix(-1.836970e-16 1 -1 -1.836970e-16 1301.724 320.3804)" class="st9" width="0.74" height="6.94"/>
<rect x="470.27" y="886.13" class="st26" width="7.23" height="140.35"/>
<rect x="478.82" y="886.13" class="st27" width="11.22" height="140.35"/>
<rect x="491.49" y="886.13" class="st27" width="11.22" height="140.35"/>
<rect x="504.22" y="886.13" class="st26" width="7.23" height="140.35"/>
<polygon class="st28" points="490.67,817.32 492.54,840.7 488.8,840.7 "/>
<circle class="st29" cx="490.73" cy="819.29" r="1.97"/>
<g>
	<path class="st26" d="M490.59,844.06c0.29,0,0.52,0.24,0.52,0.54h0.32c0-0.48-0.37-0.88-0.84-0.88c-0.46,0-0.84,0.39-0.84,0.88
		h0.32C490.07,844.3,490.3,844.06,490.59,844.06z"/>
	<path class="st27" d="M493.94,849.81c-0.35-0.36-0.58-0.71-0.73-0.96c-0.32-0.55-0.45-1.03-0.53-1.35
		c-0.11-0.45-0.17-0.95-0.17-0.95c-0.04-0.29-0.03-0.36-0.08-0.57c-0.05-0.25-0.11-0.52-0.31-0.81c-0.21-0.3-0.45-0.46-0.53-0.51
		c-0.22-0.14-0.43-0.19-0.57-0.23c-0.17-0.05-0.32-0.07-0.43-0.08c0,0.01,0,0.01,0,0.02c0-0.01,0-0.01,0-0.02
		c-0.11,0.01-0.26,0.03-0.43,0.08c-0.15,0.04-0.35,0.09-0.57,0.23c-0.08,0.05-0.32,0.21-0.53,0.51c-0.2,0.29-0.26,0.56-0.31,0.81
		c-0.05,0.21-0.04,0.28-0.08,0.57c0,0-0.06,0.5-0.17,0.95c-0.08,0.32-0.21,0.8-0.53,1.35c-0.15,0.25-0.38,0.6-0.73,0.96
		c1.12-0.02,2.23-0.04,3.35-0.06C491.71,849.77,492.82,849.79,493.94,849.81z"/>
	<path class="st27" d="M494.69,850.03c-0.02-0.04-0.1-0.18-0.29-0.34c-0.18-0.14-0.35-0.21-0.53-0.28c-0.41-0.15-0.61-0.23-0.9-0.29
		c-0.53-0.12-0.94-0.14-1.6-0.17c-0.32-0.01-0.59-0.02-0.78-0.02c-0.19,0-0.46,0-0.78,0.02c-0.66,0.03-1.07,0.05-1.6,0.17
		c-0.29,0.07-0.49,0.14-0.9,0.29c-0.18,0.07-0.35,0.13-0.53,0.28c-0.19,0.16-0.27,0.3-0.29,0.34c-0.07,0.14-0.1,0.27-0.11,0.36
		c0.47,0.09,3.77,0.72,4.21-0.18c0.44,0.89,3.73,0.27,4.21,0.18C494.79,850.3,494.76,850.17,494.69,850.03z"/>
	<ellipse class="st26" cx="490.59" cy="850.42" rx="4.21" ry="0.82"/>
	<ellipse class="st27" cx="490.73" cy="850.09" rx="0.76" ry="0.5"/>
</g>
<path class="st9" d="M488.68,908.08h-8.52v-14.23c0-0.84,0.68-1.51,1.51-1.51h5.49c0.84,0,1.51,0.68,1.51,1.51V908.08z"/>
<rect x="484.84" y="899.25" class="st30" width="2.91" height="3.42"/>
<rect x="481.1" y="899.25" class="st30" width="2.91" height="3.42"/>
<rect x="481.1" y="903.62" class="st30" width="2.91" height="3.7"/>
<rect x="484.84" y="903.62" class="st30" width="2.91" height="3.7"/>
<path class="st9" d="M501.36,908.08h-8.52v-14.23c0-0.84,0.68-1.51,1.51-1.51h5.49c0.84,0,1.51,0.68,1.51,1.51V908.08z"/>
<rect x="497.55" y="899.25" class="st30" width="2.91" height="3.42"/>
<rect x="493.8" y="899.25" class="st30" width="2.91" height="3.42"/>
<rect x="493.8" y="903.62" class="st30" width="2.91" height="3.7"/>
<rect x="497.55" y="903.62" class="st30" width="2.91" height="3.7"/>
<path class="st9" d="M510.93,906.31c-2.06,0.59-4.12,1.18-6.18,1.77c0-4.55,0-9.11,0-13.66c0-1.71,1.38-3.09,3.09-3.09h0
	c1.71,0,3.09,1.38,3.09,3.09V906.31z"/>
<rect x="508.16" y="898.37" class="st31" width="2.1" height="3.68"/>
<path class="st31" d="M507.51,902.05h-2.09c0-1.23,0-2.46,0-3.68h2.09V902.05z"/>
<path class="st31" d="M508.16,902.78h2.1v2.77c-0.7,0.22-1.4,0.44-2.1,0.67V902.78z"/>
<path class="st31" d="M507.51,902.78v3.65c-0.7,0.22-1.4,0.44-2.1,0.67c0-1.44,0-2.87,0-4.31H507.51z"/>
<path class="st9" d="M470.79,906.37c2.06,0.59,4.12,1.18,6.18,1.77c0-4.55,0-9.11,0-13.66c0-1.71-1.38-3.09-3.09-3.09h0
	c-1.71,0-3.09,1.38-3.09,3.09V906.37z"/>
<rect x="471.46" y="898.42" class="st31" width="2.1" height="3.68"/>
<path class="st31" d="M474.21,902.1h2.09c0-1.23,0-2.46,0-3.68h-2.09V902.1z"/>
<path class="st31" d="M473.56,902.83h-2.1v2.77c0.7,0.22,1.4,0.44,2.1,0.67V902.83z"/>
<path class="st31" d="M474.21,902.83v3.65c0.7,0.22,1.4,0.44,2.1,0.67c0-1.44,0-2.87,0-4.31H474.21z"/>
<path d="M482.55,894.46c-0.8,0-1.46,0.51-1.46,1.14h0v2.7h2.91v-2.7C484.01,894.97,483.36,894.46,482.55,894.46z"/>
<path d="M487.75,895.6c0-0.63-0.65-1.14-1.46-1.14c-0.8,0-1.46,0.51-1.46,1.14h0v2.7h2.91L487.75,895.6L487.75,895.6z"/>
<path d="M495.23,894.58c-0.8,0-1.46,0.51-1.46,1.14h0v2.7h2.91v-2.7C496.69,895.09,496.04,894.58,495.23,894.58z"/>
<path d="M500.43,895.72c0-0.63-0.65-1.14-1.46-1.14s-1.46,0.51-1.46,1.14h0v2.7h2.91L500.43,895.72L500.43,895.72z"/>
<path d="M472.51,893.65c-0.58,0-1.05,0.36-1.05,0.81c0,0,0,0.01,0,0.01c0,1.07,0,2.15,0,3.22h2.09v-3.24
	C473.55,894.01,473.08,893.65,472.51,893.65z"/>
<path d="M476.3,894.46c0-0.45-0.47-0.81-1.05-0.81c-0.58,0-1.05,0.36-1.05,0.81h0v3.24h2.1L476.3,894.46L476.3,894.46z"/>
<path d="M506.46,893.65c-0.58,0-1.05,0.36-1.05,0.81c0,0,0,0.01,0,0.01c0,1.07,0,2.15,0,3.22h2.09v-3.24
	C507.51,894.01,507.04,893.65,506.46,893.65z"/>
<path d="M510.25,894.46c0-0.45-0.47-0.81-1.05-0.81c-0.58,0-1.05,0.36-1.05,0.81h0v3.24h2.1L510.25,894.46L510.25,894.46z"/>
<path class="st27" d="M482.91,840.7v31.48h2.04v-22.64c0-3.7,2.58-6.7,5.76-6.7h0c3.18,0,5.76,3,5.76,6.7v22.64h1.96V840.7H482.91z"
	/>
<path class="st25" d="M490.86,853.02c-10.77,0-19.5,10.63-19.5,23.75h38.99C510.35,863.65,501.63,853.02,490.86,853.02z"/>
<path class="st9" d="M512.76,883.55h-43.81c-0.79,0-1.43-0.64-1.43-1.43v-5.2c0-0.79,0.64-1.43,1.43-1.43h43.81
	c0.79,0,1.43,0.64,1.43,1.43v5.2C514.2,882.91,513.55,883.55,512.76,883.55z"/>
<path class="st0" d="M27,1077.74c14.05-4.08,19.48-4.77,34.86-9.15c9.56-2.72,10.93-3.4,26.27-6.86
	c46.26-10.44,87.08-16.27,112.47-22.23c34.29-8.05,30.55-8.52,49.99-12.26c40.54-7.8,73.62-8.96,106.22-9.96
	c18.12-0.56,20.46-0.18,78.1,0c29.99,0.1,30.44,0,87.48,0c166.35,0.01,249.52,0.01,343.66,1.53c24.76,0.4,62.66,1.1,109.34,2.3
	c6.25,0.77,12.5,1.53,18.74,2.3c0.35,3.58,0.69,7.15,1.04,10.73c-6.17,0.82-15.57,1.98-27.08,3.07
	c-36.95,3.48-62.66,3.02-101.01,3.07c-8.27,0.01-31.55,0.26-78.1,0.77c-55.04,0.6-56.84,1.01-103.1,1.53
	c-65.34,0.74-74.72,0.05-127.05,0.77c-42.29,0.58-76.46,1.58-97.89,2.3c-7.87,3.03-19.99,6.88-35.41,8.43
	c-15.4,1.55-25.83-0.01-36.45-0.77c-17.77-1.26-34.41,0.95-67.69,5.37c-20.99,2.79-48.13,7.38-79.14,15.33
	c-48.6,8.94-97.2,17.89-145.79,26.83C19.71,1094.93,3,1090.13,3,1086.74C3,1084.7,11,1082.38,27,1077.74z"/>
<rect x="340.5" y="898.74" class="st19" width="12.58" height="11.66"/>
<rect x="361.5" y="898.74" class="st19" width="12.58" height="11.66"/>
<rect x="382.5" y="898.74" class="st19" width="12.58" height="11.66"/>
<rect x="403.5" y="898.74" class="st19" width="12.58" height="11.66"/>
<path class="st19" d="M432.57,1030.61l-16.73-101.06h-75.12L324,1030.61c-0.18,1.11,0.67,2.13,1.8,2.13h104.97
	C431.9,1032.73,432.76,1031.72,432.57,1030.61z"/>
<path class="st19" d="M416.08,930.65c-10.24,2.02-22.98,3.69-37.64,3.7c-14.8,0.01-27.64-1.66-37.94-3.7c0-7.73,0-15.47,0-23.2
	c11.22,1.17,23.63,1.93,37.07,1.96c14,0.03,26.9-0.75,38.52-1.96C416.08,915.18,416.08,922.92,416.08,930.65z"/>
<path class="st13" d="M416.08,930.72c-10.84,1.52-23.35,2.6-37.22,2.63c-14.34,0.03-27.24-1.07-38.37-2.63c0-1.66,0-3.32,0-4.98
	c11.04,1.47,23.72,2.51,37.76,2.51c14.06,0,26.77-1.04,37.83-2.51C416.08,927.4,416.08,929.06,416.08,930.72z"/>
<polygon class="st8" points="636.36,920.81 612.2,945.69 660.51,945.69 "/>
<path class="st6" d="M612.2,1026.73h-31.13c0-15.95,0-31.9,0-47.85c10.38-9.59,20.75-19.17,31.13-28.76
	C612.2,975.66,612.2,1001.19,612.2,1026.73z"/>
<path class="st32" d="M581.07,978.77c12.18-10.82,24.36-21.64,36.54-32.45c-1.64-0.37-3.27-0.73-4.91-1.1
	C602.16,956.4,591.61,967.59,581.07,978.77z"/>
<path class="st6" d="M688.6,946.58c-25.47,0-50.94,0-76.4,0v80.15h6.84h42.17h26.59v-58.88
	C688.06,960.76,688.33,953.67,688.6,946.58z"/>
<path class="st9" d="M662.03,946.58h-50.85c-0.18,0-0.32-0.14-0.32-0.32v-1.15c0-0.18,0.14-0.32,0.32-0.32h50.85
	c0.18,0,0.32,0.14,0.32,0.32v1.15C662.34,946.44,662.2,946.58,662.03,946.58z"/>
<rect x="585.05" y="980.4" class="st13" width="10.32" height="8.03"/>
<rect x="632.45" y="1001.51" transform="matrix(6.123234e-17 -1 1 6.123234e-17 -363.2769 1651.6239)" class="st9" width="23.44" height="11.89"/>
<rect x="634.2" y="1002.39" transform="matrix(6.123234e-17 -1 1 6.123234e-17 -362.8268 1651.1737)" class="st13" width="19.94" height="9.22"/>
<rect x="627.05" y="956.86" transform="matrix(6.123234e-17 -1 1 6.123234e-17 -325.6364 1598.3501)" class="st9" width="18.61" height="10.27"/>
<rect x="628.44" y="957.98" transform="matrix(6.123234e-17 -1 1 6.123234e-17 -325.6364 1598.3501)" class="st13" width="15.83" height="8.03"/>
<rect x="648.79" y="1001.51" transform="matrix(6.123234e-17 -1 1 6.123234e-17 -346.9357 1667.9651)" class="st9" width="23.44" height="11.89"/>
<rect x="650.54" y="1002.39" transform="matrix(6.123234e-17 -1 1 6.123234e-17 -346.4855 1667.5149)" class="st13" width="19.94" height="9.22"/>
<rect x="665.14" y="1001.51" transform="matrix(6.123234e-17 -1 1 6.123234e-17 -330.5945 1684.3064)" class="st9" width="23.44" height="11.89"/>
<rect x="666.89" y="1002.39" transform="matrix(6.123234e-17 -1 1 6.123234e-17 -330.1443 1683.8561)" class="st13" width="19.94" height="9.22"/>
<path class="st22" d="M633.17,997.52v21.65h-15.91v-21.65c0-1.56,1.27-2.83,2.83-2.83h10.25
	C631.9,994.69,633.17,995.96,633.17,997.52z"/>
<path class="st5" d="M582.95,988.51h-62.94v-13.99c13.25,0,26.49,0,39.74,0C567.48,979.19,575.21,983.85,582.95,988.51z"/>
<polygon class="st3" points="544.96,988.56 519.88,974.53 494.8,988.56 494.8,1026.73 545.22,1026.73 545.22,988.56 "/>
<rect x="545.04" y="988.56" class="st7" width="37.91" height="38.17"/>
<rect x="522.43" y="992.14" class="st18" width="5.01" height="8.49"/>
<rect x="554.65" y="999.16" class="st18" width="5.01" height="8.49"/>
<rect x="572.04" y="999.16" class="st18" width="5.01" height="8.49"/>
<polygon class="st2" points="884.27,891.21 864.84,891.21 825.96,925.62 923.15,925.62 "/>
<rect x="826.71" y="926.88" class="st20" width="96.44" height="100.32"/>
<rect x="826.71" y="924.94" class="st4" width="96.44" height="1.94"/>
<ellipse transform="matrix(0.8872 -0.4615 0.4615 0.8872 -490.9168 139.7762)" class="st26" cx="40.34" cy="1073.67" rx="8.41" ry="5.19"/>
<ellipse transform="matrix(0.8872 -0.4615 0.4615 0.8872 -496.8492 130.1658)" class="st26" cx="17.73" cy="1080.99" rx="8.41" ry="5.19"/>
<rect x="952.56" y="946.58" class="st6" width="31.09" height="80.62"/>
<rect x="685.43" y="946.58" class="st6" width="25.47" height="80.62"/>
<path class="st5" d="M439.35,998.99h44.94v-9.99c-9.46,0-18.91,0-28.37,0C450.39,992.34,444.87,995.67,439.35,998.99z"/>
<polygon class="st7" points="466.47,999.02 484.38,989.01 502.28,999.02 502.28,1026.28 466.28,1026.28 466.28,999.02 "/>
<rect x="439.35" y="999.02" transform="matrix(-1 -4.502588e-11 4.502588e-11 -1 905.7615 2025.3043)" class="st3" width="27.07" height="27.26"/>
<path class="st16" d="M913.58,1201.85c-94.13,9.07-141.64,6.42-165.38,3.52c-23.23-2.83-26.6-6.24-26.65-8.22
	c-0.17-6.5,32.74-14.6,35.54-15.27c23.54-5.7,29.76-2.11,43.05-11.75c12.57-9.12,10.19-14.65,21.18-22.32
	c16.1-11.25,22.23-0.11,54.67-1.17c20.65-0.68,26.95-5.48,32.8,3.52C916.92,1162.64,915.19,1187.85,913.58,1201.85z"/>
<path class="st19" d="M1010.96,1152.3c-49.43-1.11-98.87-2.21-148.3-3.32c1.97-21.03,3.93-42.06,5.9-63.08h142.4V1152.3z"/>
<rect x="1010.96" y="1074.46" class="st19" width="68.04" height="77.84"/>
<rect x="1017" y="1074.46" class="st33" width="10.84" height="77.84"/>
<path class="st34" d="M745.05,1018.07"/>
<path class="st5" d="M1055.03,1022.26h-62.94v-13.99c13.25,0,26.49,0,39.74,0C1039.57,1012.94,1047.3,1017.6,1055.03,1022.26z"/>
<polygon class="st3" points="1017.04,1022.31 991.96,1008.28 966.88,1022.31 966.88,1060.48 1017.31,1060.48 1017.31,1022.31 "/>
<rect x="1017.12" y="1022.31" class="st7" width="37.91" height="38.17"/>
<rect x="994.52" y="1025.89" class="st18" width="5.01" height="8.49"/>
<rect x="1026.73" y="1032.91" class="st18" width="5.01" height="8.49"/>
<rect x="1044.13" y="1032.91" class="st18" width="5.01" height="8.49"/>
<path class="st13" d="M1079,1058.6h-54.66c-37.72-0.25-75.44-0.49-113.15-0.74c-16.79,9.47-33.58,18.94-50.37,28.41
	c52.32,1.23,104.64,2.46,156.96,3.69c0.93-4.43,1.86-8.85,2.78-13.28H1079V1058.6z"/>
<ellipse transform="matrix(0.9982 -0.0593 0.0593 0.9982 -64.3478 31.016)" class="st26" cx="490.31" cy="1099.49" rx="5.3" ry="2.66"/>
<ellipse transform="matrix(0.9982 -0.0593 0.0593 0.9982 -64.3362 31.4062)" class="st26" cx="496.89" cy="1099.49" rx="3.88" ry="2.66"/>
<ellipse transform="matrix(0.9982 -0.0593 0.0593 0.9982 -64.336 31.7069)" class="st24" cx="501.96" cy="1099.64" rx="3.23" ry="2.22"/>
<ellipse transform="matrix(0.14 -0.9901 0.9901 0.14 -652.1683 1448.403)" class="st26" cx="507.73" cy="1099.64" rx="2.5" ry="3.64"/>
<ellipse transform="matrix(0.9677 -0.2522 0.2522 0.9677 -260.7057 165.049)" class="st24" cx="513.57" cy="1099.64" rx="3.64" ry="2.5"/>
<ellipse transform="matrix(0.9982 -0.0593 0.0593 0.9982 -64.3026 32.8302)" class="st24" cx="520.9" cy="1099.64" rx="5.3" ry="2.66"/>
<ellipse transform="matrix(0.8844 -0.4668 0.4668 0.8844 -452.2121 373.5609)" class="st26" cx="527.86" cy="1099.49" rx="3.23" ry="2.22"/>
<ellipse transform="matrix(0.9982 -0.0593 0.0593 0.9982 -64.2687 33.6792)" class="st26" cx="535.22" cy="1099.49" rx="5.3" ry="2.66"/>
<ellipse transform="matrix(0.14 -0.9901 0.9901 0.14 -623.1254 1481.549)" class="st24" cx="541.33" cy="1099.49" rx="2.5" ry="3.64"/>
<ellipse transform="matrix(0.9982 -0.0593 0.0593 0.9982 -64.2494 34.4773)" class="st26" cx="548.67" cy="1099.57" rx="5.3" ry="2.66"/>
<ellipse transform="matrix(0.9982 -0.0593 0.0593 0.9982 -64.2378 34.8674)" class="st26" cx="555.25" cy="1099.57" rx="3.88" ry="2.66"/>
<ellipse transform="matrix(0.9982 -0.0593 0.0593 0.9982 -64.2376 35.1681)" class="st24" cx="560.31" cy="1099.71" rx="3.23" ry="2.22"/>
<ellipse transform="matrix(0.14 -0.9901 0.9901 0.14 -602.0548 1506.2477)" class="st26" cx="566.09" cy="1099.71" rx="2.5" ry="3.64"/>
<ellipse transform="matrix(0.9677 -0.2522 0.2522 0.9677 -258.8381 179.7675)" class="st24" cx="571.92" cy="1099.71" rx="3.64" ry="2.5"/>
<ellipse transform="matrix(0.9982 -0.0593 0.0593 0.9982 -64.2042 36.2914)" class="st24" cx="579.25" cy="1099.71" rx="5.3" ry="2.66"/>
<ellipse transform="matrix(0.8844 -0.4668 0.4668 0.8844 -445.4977 400.8109)" class="st26" cx="586.22" cy="1099.57" rx="3.23" ry="2.22"/>
<ellipse transform="matrix(0.9982 -0.0593 0.0593 0.9982 -64.1703 37.1405)" class="st26" cx="593.57" cy="1099.57" rx="5.3" ry="2.66"/>
<ellipse transform="matrix(0.14 -0.9901 0.9901 0.14 -573.0119 1539.3937)" class="st24" cx="599.69" cy="1099.57" rx="2.5" ry="3.64"/>
<ellipse transform="matrix(0.9982 -0.0593 0.0593 0.9982 -64.1403 37.8599)" class="st26" cx="605.71" cy="1099.42" rx="5.3" ry="2.66"/>
<ellipse transform="matrix(0.9982 -0.0593 0.0593 0.9982 -64.1287 38.2501)" class="st26" cx="612.29" cy="1099.42" rx="3.88" ry="2.66"/>
<ellipse transform="matrix(0.9982 -0.0593 0.0593 0.9982 -64.1285 38.5508)" class="st24" cx="617.35" cy="1099.57" rx="3.23" ry="2.22"/>
<ellipse transform="matrix(0.14 -0.9901 0.9901 0.14 -552.8583 1562.5977)" class="st26" cx="623.12" cy="1099.57" rx="2.5" ry="3.64"/>
<ellipse transform="matrix(0.9677 -0.2522 0.2522 0.9677 -256.9579 194.1463)" class="st24" cx="628.96" cy="1099.57" rx="3.64" ry="2.5"/>
<ellipse transform="matrix(0.9982 -0.0593 0.0593 0.9982 -64.0951 39.6741)" class="st24" cx="636.29" cy="1099.57" rx="5.3" ry="2.66"/>
<ellipse transform="matrix(0.8844 -0.4668 0.4668 0.8844 -438.8334 427.4198)" class="st26" cx="643.26" cy="1099.42" rx="3.23" ry="2.22"/>
<ellipse transform="matrix(0.9982 -0.0593 0.0593 0.9982 -64.0613 40.5231)" class="st26" cx="650.61" cy="1099.42" rx="5.3" ry="2.66"/>
<ellipse transform="matrix(0.14 -0.9901 0.9901 0.14 -523.8154 1595.7437)" class="st24" cx="656.73" cy="1099.42" rx="2.5" ry="3.64"/>
<ellipse transform="matrix(0.9982 -0.0593 0.0593 0.9982 -64.0339 41.2981)" class="st26" cx="663.68" cy="1099.35" rx="5.3" ry="2.66"/>
<ellipse transform="matrix(0.9982 -0.0593 0.0593 0.9982 -64.0223 41.6883)" class="st26" cx="670.26" cy="1099.35" rx="3.88" ry="2.66"/>
<ellipse transform="matrix(0.9982 -0.0593 0.0593 0.9982 -64.0221 41.989)" class="st24" cx="675.32" cy="1099.49" rx="3.23" ry="2.22"/>
<ellipse transform="matrix(0.14 -0.9901 0.9901 0.14 -502.93 1619.9365)" class="st26" cx="681.1" cy="1099.49" rx="2.5" ry="3.64"/>
<ellipse transform="matrix(0.9677 -0.2522 0.2522 0.9677 -255.0658 208.7634)" class="st24" cx="686.94" cy="1099.49" rx="3.64" ry="2.5"/>
<ellipse transform="matrix(0.9982 -0.0593 0.0593 0.9982 -63.9887 43.1123)" class="st24" cx="694.26" cy="1099.49" rx="5.3" ry="2.66"/>
<ellipse transform="matrix(0.8844 -0.4668 0.4668 0.8844 -432.0951 454.4738)" class="st26" cx="701.23" cy="1099.35" rx="3.23" ry="2.22"/>
<ellipse transform="matrix(0.9982 -0.0593 0.0593 0.9982 -63.9549 43.9614)" class="st26" cx="708.58" cy="1099.35" rx="5.3" ry="2.66"/>
<ellipse transform="matrix(0.14 -0.9901 0.9901 0.14 -473.8871 1653.0826)" class="st24" cx="714.7" cy="1099.35" rx="2.5" ry="3.64"/>
<ellipse transform="matrix(0.9982 -0.0593 0.0593 0.9982 -63.6776 47.8205)" class="st26" cx="773.73" cy="1096.61" rx="5.3" ry="2.66"/>
<ellipse transform="matrix(0.9982 -0.0593 0.0593 0.9982 -63.666 48.2107)" class="st26" cx="780.31" cy="1096.61" rx="3.88" ry="2.66"/>
<ellipse transform="matrix(0.9982 -0.0593 0.0593 0.9982 -63.6658 48.5114)" class="st24" cx="785.38" cy="1096.75" rx="3.23" ry="2.22"/>
<ellipse transform="matrix(0.14 -0.9901 0.9901 0.14 -405.5727 1726.5471)" class="st26" cx="791.15" cy="1096.75" rx="2.5" ry="3.64"/>
<ellipse transform="matrix(0.9677 -0.2522 0.2522 0.9677 -250.8178 236.4274)" class="st24" cx="796.99" cy="1096.75" rx="3.64" ry="2.5"/>
<ellipse transform="matrix(0.9982 -0.0593 0.0593 0.9982 -63.6324 49.6347)" class="st24" cx="804.32" cy="1096.75" rx="5.3" ry="2.66"/>
<ellipse transform="matrix(0.8844 -0.4668 0.4668 0.8844 -418.0888 505.5302)" class="st26" cx="811.28" cy="1096.61" rx="3.23" ry="2.22"/>
<ellipse transform="matrix(0.9982 -0.0593 0.0593 0.9982 -63.5986 50.4837)" class="st26" cx="818.64" cy="1096.61" rx="5.3" ry="2.66"/>
<ellipse transform="matrix(0.14 -0.9901 0.9901 0.14 -376.5298 1759.6932)" class="st24" cx="824.75" cy="1096.61" rx="2.5" ry="3.64"/>
<ellipse transform="matrix(0.993 -0.1184 0.1184 0.993 -123.9702 106.2291)" class="st26" cx="831.98" cy="1096.38" rx="5.3" ry="2.66"/>
<ellipse transform="matrix(0.993 -0.1184 0.1184 0.993 -123.8778 107.0039)" class="st26" cx="838.55" cy="1095.99" rx="3.88" ry="2.66"/>
<ellipse transform="matrix(0.993 -0.1184 0.1184 0.993 -123.8239 107.6026)" class="st24" cx="843.61" cy="1095.83" rx="3.23" ry="2.22"/>
<ellipse transform="matrix(0.081 -0.9967 0.9967 0.081 -311.3502 1853.2921)" class="st26" cx="849.37" cy="1095.49" rx="2.5" ry="3.64"/>
<ellipse transform="matrix(0.951 -0.3091 0.3091 0.951 -296.6512 318.0043)" class="st24" cx="855.2" cy="1095.15" rx="3.64" ry="2.5"/>
<ellipse transform="matrix(0.993 -0.1184 0.1184 0.993 -123.5579 109.8334)" class="st24" cx="862.52" cy="1094.71" rx="5.3" ry="2.66"/>
<ellipse transform="matrix(0.9954 -0.0959 0.0959 0.9954 -101.8465 76.4764)" class="st26" cx="744.47" cy="1097.49" rx="5.3" ry="2.66"/>
<ellipse transform="matrix(0.9954 -0.0959 0.0959 0.9954 -101.793 77.1059)" class="st26" cx="751.04" cy="1097.25" rx="3.88" ry="2.66"/>
<ellipse transform="matrix(0.9954 -0.0959 0.0959 0.9954 -101.7659 77.5919)" class="st24" cx="756.11" cy="1097.21" rx="3.23" ry="2.22"/>
<ellipse transform="matrix(0.1036 -0.9946 0.9946 0.1036 -408.1206 1741.1727)" class="st26" cx="761.88" cy="1097" rx="2.5" ry="3.64"/>
<ellipse transform="matrix(0.9578 -0.2875 0.2875 0.9578 -282.9491 267.0689)" class="st24" cx="767.71" cy="1096.78" rx="3.64" ry="2.5"/>
<ellipse transform="matrix(0.9954 -0.0959 0.0959 0.9954 -101.8918 75.8156)" class="st24" cx="737.57" cy="1097.63" rx="3.23" ry="2.22"/>
<ellipse transform="matrix(0.9954 -0.0959 0.0959 0.9954 -101.9838 75.3561)" class="st26" cx="732.75" cy="1098.36" rx="3.88" ry="2.66"/>
<path class="st35" d="M754.46,1018.07h0.36c0.06,0,0.11,0.05,0.11,0.11v12.22c0,0.06-0.05,0.11-0.11,0.11h-0.36
	c-0.06,0-0.11-0.05-0.11-0.11v-12.22C754.35,1018.12,754.4,1018.07,754.46,1018.07z"/>
<ellipse class="st36" cx="754.83" cy="1019.31" rx="8.71" ry="3.07"/>
<path class="st37" d="M742.81,1017.54l0.26-0.13c0.06-0.03,0.13-0.01,0.16,0.05l6.59,13.07c0.03,0.06,0.01,0.13-0.05,0.16
	l-0.26,0.13c-0.06,0.03-0.13,0.01-0.16-0.05l-6.59-13.07C742.73,1017.64,742.75,1017.57,742.81,1017.54z"/>
<path class="st38" d="M742.12,1004.16c-0.14,0.31-0.25,0.67-0.27,1.1c-0.02,0.36-0.03,0.55,0.1,0.71c0.19,0.24,0.55,0.24,1.25,0.21
	c0.34-0.01,0.75-0.03,1.29-0.17c0.69-0.18,0.88-0.22,1.01-0.38c0.08-0.11,0.13-0.24,0.21-0.52c0.1-0.35,0.08-0.49,0.14-0.83
	c0.09-0.45,0.23-0.79,0.3-0.93c0.08-0.17,0.22-0.44,0.5-0.81c1.13-1.5,2.47-2.4,2.47-2.4c0.65-0.42,1.64-0.97,2.92-1.36
	c1.41-0.42,2.56-0.47,2.56-0.51c-0.01-0.05-1.38-0.02-3.01,0.27c-0.75,0.13-1.68,0.34-2.75,0.7c-1.58,0.53-3.05,1.02-4.45,2.19
	c-0.68,0.57-1.13,1.12-1.57,1.66C742.57,1003.37,742.33,1003.69,742.12,1004.16L742.12,1004.16z"/>
<path class="st38" d="M745.12,1005.32c0.07,0.15,0.19,0.29,0.51,0.49c0.34,0.21,0.92,0.49,1.97,0.62c0.88,0.1,1.46,0.01,2.41-0.13
	c0.36-0.05,0.87-0.15,1.18-0.51c0.15-0.17,0.23-0.38,0.23-0.38c0.1-0.24,0.1-0.43,0.1-0.64c0.01-0.31,0.05-0.62,0.05-0.92
	c0.01-0.84,0.29-1.72,0.41-2.07c0.18-0.55,0.41-0.99,0.87-1.87c0.34-0.64,0.47-0.83,0.67-1c0,0,0.23-0.2,1.08-0.64
	c0,0-1.34,0.04-2.56,0.31c-0.37,0.08-1.15,0.27-2.07,0.69c-1.1,0.5-1.84,1.08-2,1.2c-0.26,0.21-0.91,0.75-1.56,1.61
	c-0.55,0.72-0.81,1.29-1,1.72C744.97,1004.74,745,1005.08,745.12,1005.32L745.12,1005.32z"/>
<path class="st38" d="M764.22,1005.35c0.09,0.17,0.1,0.25,0.14,0.32c0.11,0.21,0.35,0.31,0.9,0.43c0.98,0.22,1.61,0.22,1.77,0.22
	c0.49,0,0.74-0.01,0.87-0.14c0.31-0.32,0.07-1-0.07-1.41c-0.45-1.27-1.25-2.08-1.44-2.28c-0.52-0.51-1.69-1.58-3.68-2.49
	c-1.46-0.67-2.65-0.92-4.08-1.23c-1.61-0.35-3.02-0.5-3.03-0.43c-0.01,0.07,1.21,0.2,2.78,0.83c0.84,0.34,2.14,0.87,3.4,2.06
	c0.84,0.8,1.61,1.52,1.73,2.35c0.02,0.12,0.13,0.96,0.43,1.34C763.97,1004.96,764.1,1005.11,764.22,1005.35L764.22,1005.35z"/>
<path class="st38" d="M758.93,1005.87c0.5,0.25,0.74,0.38,0.94,0.44c0.42,0.13,0.74,0.15,1.24,0.18c0.41,0.02,0.9,0.04,1.54-0.05
	c0.6-0.09,0.97-0.23,1.36-0.39c0.46-0.18,0.63-0.31,0.72-0.49c0.1-0.21,0.06-0.43,0-0.67c-0.18-0.74-0.27-1.11-0.49-1.55
	c-0.51-1-1.12-1.68-1.34-1.91c-0.14-0.15-0.77-0.78-1.76-1.37c-0.66-0.39-1.24-0.61-1.72-0.79c-0.46-0.18-0.79-0.27-1.32-0.43
	c-0.56-0.16-1.18-0.32-1.93-0.43c-0.48-0.07-0.87-0.11-0.91,0c-0.06,0.14,0.44,0.39,0.83,0.73c0.84,0.73,0.47,1.29,1.34,3.13
	c0.38,0.8,1.16,2.21,0.97,2.79c-0.01,0.04-0.07,0.19-0.02,0.35C758.44,1005.61,758.62,1005.72,758.93,1005.87L758.93,1005.87z"/>
<path class="st38" d="M751.21,1005.37c0.08,0.21,0.21,0.35,0.29,0.42c0.23,0.22,0.48,0.3,0.75,0.37c0.7,0.2,1.27,0.26,1.31,0.27
	c0.56,0.06,0.98,0.07,1.47,0.07c0.7,0.01,1.06,0.01,1.47-0.06c0.25-0.04,0.58-0.14,1.23-0.35c0.48-0.15,0.76-0.26,0.9-0.53
	c0.04-0.08,0.06-0.16,0.07-0.28c0.08-0.61-0.06-1.14-0.07-1.21c-0.24-0.96-0.09-0.77-0.35-1.74c-0.2-0.75-0.33-1.23-0.62-1.83
	c-0.22-0.46-0.49-0.98-1.03-1.5c-0.31-0.3-0.71-0.68-1.34-0.79c-0.41-0.07-0.74,0-0.81,0.02c-0.47,0.12-0.81,0.4-1.12,0.75
	c-0.19,0.21-0.95,1.09-1.49,2.7c-0.23,0.69-0.17,0.76-0.53,2.2c0,0-0.05,0.19-0.13,0.75
	C751.15,1005.04,751.14,1005.19,751.21,1005.37L751.21,1005.37z"/>
<path class="st35" d="M754.6,998.25c0-0.27,0-0.51,0.01-0.72c0-0.07,0.01-0.22,0.09-0.37c0.04-0.07,0.1-0.18,0.18-0.18
	c0.09,0,0.15,0.1,0.2,0.17c0.04,0.07,0.1,0.19,0.11,0.37c0,0.24,0.01,0.48,0.01,0.73L754.6,998.25L754.6,998.25z"/>
<path class="st38" d="M741.9,1004.87c-0.01,0.07-0.03,0.16-0.04,0.27c-0.01,0.1-0.02,0.22-0.01,0.36c0.01,0.13,0.02,0.33,0.12,0.46
	c0.09,0.13,0.25,0.19,0.6,0.23c0.16,0.02,0.67,0.06,1.42-0.08c0.04-0.01,0.31-0.07,0.87-0.2c0,0,0,0,0.26-0.07
	c0.07-0.02,0.19-0.05,0.26-0.1c0.01,0,0.07-0.05,0.07-0.05l0,0c0,0-0.1-0.07-0.18-0.16c-0.03-0.03-0.09-0.1-0.14-0.2
	c-0.02-0.04-0.05-0.09-0.06-0.17c-0.01-0.06-0.03-0.15-0.01-0.26C744,1004.88,742.95,1004.87,741.9,1004.87L741.9,1004.87z"/>
<path class="st39" d="M745.05,1004.89c-0.01,0.06-0.02,0.15-0.01,0.26c0.03,0.15,0.12,0.38,0.49,0.64c0.5,0.34,1.01,0.45,1.67,0.58
	c0.29,0.06,0.53,0.1,0.87,0.12c0.31,0.02,0.65-0.01,1.33-0.07c0.23-0.02,0.61-0.06,1.06-0.17c0.07-0.02,0.35-0.09,0.63-0.29
	c0.27-0.2,0.25-0.32,0.25-0.34c-0.01-0.04-0.03-0.04-0.07-0.12c-0.08-0.14-0.09-0.28-0.1-0.38c0-0.06,0-0.12,0-0.17
	C749.13,1004.93,747.09,1004.91,745.05,1004.89L745.05,1004.89z"/>
<path class="st39" d="M758.71,1005.02c0,0.03,0.01,0.06,0.01,0.11c0.01,0.08,0,0.15,0,0.2c0,0.08-0.01,0.12-0.01,0.18
	c-0.01,0.05-0.02,0.12-0.06,0.2c0.04,0.03,0.09,0.07,0.15,0.11c0,0,0.18,0.13,0.4,0.24c0.45,0.22,0.95,0.34,0.95,0.34
	c0.26,0.05,0.71,0.12,1.33,0.12c0.17,0,0.73-0.01,1.45-0.14c0.07-0.01,0.67-0.12,1.33-0.43c0.17-0.08,0.36-0.18,0.46-0.4
	c0.1-0.21,0.06-0.42,0.04-0.51C762.74,1005.04,760.72,1005.03,758.71,1005.02L758.71,1005.02z"/>
<path class="st38" d="M764.76,1005.05c0.01,0.04,0.03,0.09,0.03,0.15c0.01,0.1-0.01,0.17-0.02,0.22c-0.03,0.13-0.09,0.21-0.11,0.24
	c-0.03,0.04-0.05,0.08-0.1,0.11c-0.05,0.04-0.07,0.04-0.08,0.05c0,0.01,0.01,0.06,0.31,0.15c0.21,0.07,0.33,0.09,0.33,0.09
	c0.57,0.11,0.86,0.17,0.98,0.19c0.47,0.06,0.77,0.06,1.19,0.06c0.4,0,0.56-0.02,0.66-0.14c0.11-0.13,0.11-0.32,0.1-0.52
	c-0.01-0.26-0.07-0.46-0.12-0.59C766.87,1005.06,765.81,1005.05,764.76,1005.05L764.76,1005.05z"/>
<path class="st40" d="M738.56,1018.99l0.28-0.14c0.06-0.03,0.13-0.01,0.16,0.05l5.99,11.89c0.03,0.06,0.01,0.13-0.05,0.16
	l-0.28,0.14c-0.06,0.03-0.13,0.01-0.16-0.05l-5.99-11.89C738.48,1019.09,738.5,1019.02,738.56,1018.99z"/>
<rect x="742.8" y="1026.84" class="st37" width="5.18" height="0.51"/>
<rect x="738.52" y="1023.12" class="st40" width="7.65" height="0.71"/>
<path class="st39" d="M739.59,1023.1c3.27,0.01,6.55,0.01,9.82,0.02c0.01-0.04,0.02-0.1,0-0.16c-0.07-0.29-0.52-0.41-1.22-0.55
	c-0.79-0.16-1.18-0.25-1.65-0.29c-0.59-0.06-1-0.07-1.63-0.08c-0.9-0.01-1.58,0.02-1.94,0.04c-0.29,0.02-0.52,0.04-0.97,0.08
	c-0.76,0.07-1.34,0.13-1.75,0.36c-0.26,0.14-0.46,0.34-0.46,0.34C739.71,1022.95,739.64,1023.04,739.59,1023.1L739.59,1023.1z"/>
<path class="st40" d="M744.93,1023.43l0.26,0.17c0.05,0.03,0.07,0.11,0.04,0.16l-4.41,6.88c-0.03,0.05-0.11,0.07-0.16,0.04
	l-0.26-0.17c-0.05-0.03-0.07-0.11-0.04-0.16l4.41-6.88C744.81,1023.41,744.88,1023.39,744.93,1023.43z"/>
<path class="st40" d="M749.95,1023.22l0.25,0.13c0.06,0.03,0.08,0.1,0.05,0.16l-4.06,7.51c-0.03,0.06-0.1,0.08-0.16,0.05l-0.25-0.13
	c-0.06-0.03-0.08-0.1-0.05-0.16l4.06-7.51C749.82,1023.21,749.89,1023.19,749.95,1023.22z"/>
<rect x="745.63" y="1023.12" class="st37" width="4.91" height="0.71"/>
<path class="st40" d="M736.58,1016.12l1.92,3.84c0.05,0.1,0.14,0.15,0.25,0.15h6.41c0.21,0,0.34-0.22,0.25-0.4l-1.87-3.84
	c-0.05-0.1-0.14-0.16-0.25-0.16h-6.46C736.62,1015.72,736.49,1015.94,736.58,1016.12L736.58,1016.12L736.58,1016.12z"/>
<path class="st37" d="M759.71,1031.25l-0.26-0.13c-0.06-0.03-0.08-0.1-0.05-0.16l6.59-13.07c0.03-0.06,0.1-0.08,0.16-0.05l0.26,0.13
	c0.06,0.03,0.08,0.1,0.05,0.16l-6.59,13.07C759.84,1031.25,759.77,1031.28,759.71,1031.25z"/>
<path class="st40" d="M764.56,1031.51l-0.28-0.14c-0.06-0.03-0.08-0.1-0.05-0.16l5.99-11.89c0.03-0.06,0.1-0.08,0.16-0.05l0.28,0.14
	c0.06,0.03,0.08,0.1,0.05,0.16l-5.99,11.89C764.69,1031.52,764.62,1031.54,764.56,1031.51z"/>
<rect x="761.24" y="1027.27" class="st37" width="5.18" height="0.51"/>
<rect x="763.05" y="1023.55" class="st40" width="7.65" height="0.71"/>
<path class="st39" d="M769.63,1023.53c-3.27,0.01-6.55,0.01-9.82,0.02c-0.01-0.04-0.02-0.1,0-0.16c0.07-0.29,0.52-0.41,1.22-0.55
	c0.79-0.16,1.18-0.25,1.65-0.29c0.59-0.06,1-0.07,1.63-0.08c0.9-0.01,1.58,0.02,1.94,0.04c0.29,0.02,0.52,0.04,0.97,0.08
	c0.76,0.07,1.34,0.13,1.75,0.36c0.26,0.14,0.46,0.34,0.46,0.34C769.51,1023.38,769.58,1023.47,769.63,1023.53L769.63,1023.53z"/>
<path class="st40" d="M768.82,1030.94l-0.26,0.17c-0.05,0.04-0.13,0.02-0.16-0.04l-4.41-6.88c-0.04-0.05-0.02-0.13,0.04-0.16
	l0.26-0.17c0.05-0.03,0.13-0.02,0.16,0.04l4.41,6.88C768.89,1030.83,768.87,1030.91,768.82,1030.94z"/>
<path class="st40" d="M763.45,1031.36l-0.25,0.13c-0.06,0.03-0.13,0.01-0.16-0.05l-4.06-7.51c-0.03-0.06-0.01-0.13,0.05-0.16
	l0.25-0.13c0.06-0.03,0.13-0.01,0.16,0.05l4.06,7.51C763.53,1031.25,763.51,1031.33,763.45,1031.36z"/>
<rect x="758.67" y="1023.55" class="st37" width="4.91" height="0.71"/>
<path class="st40" d="M772.64,1016.55l-1.92,3.84c-0.05,0.1-0.14,0.15-0.25,0.15h-6.41c-0.21,0-0.34-0.22-0.25-0.4l1.87-3.84
	c0.05-0.1,0.14-0.16,0.25-0.16h6.46C772.6,1016.15,772.73,1016.36,772.64,1016.55L772.64,1016.55L772.64,1016.55z"/>
<ellipse class="st41" cx="752.28" cy="1019.42" rx="1.34" ry="0.55"/>
<path class="st42" d="M751.36,1018.2c0,0.03,0,0.05,0,0.06c0.01,0.11,0.05,0.26,0.05,0.26c0.06,0.22,0.08,0.28,0.1,0.34
	c0.03,0.07,0.05,0.12,0.05,0.13c0.11,0.25,0.16,0.37,0.25,0.44c0.11,0.08,0.24,0.08,0.49,0.09c0.24,0.01,0.31-0.04,0.35-0.08
	c0.03-0.03,0.05-0.06,0.08-0.11c0.05-0.09,0.08-0.16,0.1-0.19c0.11-0.28,0.12-0.26,0.19-0.46c0.02-0.07,0.1-0.3,0.09-0.49
	c0-0.03-0.01-0.07-0.04-0.11c-0.04-0.05-0.09-0.08-0.2-0.11c-0.16-0.05-0.28-0.06-0.28-0.06c-0.27-0.03-0.48-0.02-0.52-0.02
	c-0.07,0-0.12,0.01-0.17,0.02c-0.06,0.01-0.12,0.02-0.19,0.04c-0.19,0.05-0.32,0.14-0.33,0.2
	C751.36,1018.17,751.36,1018.2,751.36,1018.2L751.36,1018.2z"/>
<path class="st42" d="M752.77,1019.13c0.18-0.08,0.33-0.16,0.43-0.22c0.08-0.04,0.15-0.09,0.21-0.18c0.03-0.04,0.07-0.11,0.06-0.2
	c0-0.02-0.01-0.11-0.09-0.17c-0.06-0.05-0.13-0.05-0.17-0.05c-0.09,0-0.15,0.03-0.18,0.05c-0.08,0.17-0.1,0.26-0.08,0.28
	c0.01,0.01,0.04-0.01,0.09-0.05c0-0.02,0-0.05,0.02-0.09c0.04-0.06,0.11-0.07,0.13-0.07c0.03,0,0.1-0.01,0.14,0.03
	c0.05,0.06,0.01,0.16,0.01,0.18c-0.02,0.06-0.07,0.1-0.16,0.17c-0.08,0.06-0.14,0.09-0.21,0.13c-0.07,0.04-0.13,0.07-0.18,0.09
	c-0.04,0.01-0.07,0.04-0.07,0.07C752.74,1019.12,752.77,1019.13,752.77,1019.13L752.77,1019.13z"/>
<path class="st43" d="M751.75,1019.37c0.01,0.02,0.02,0.05,0.05,0.07c0.02,0.02,0.06,0.05,0.2,0.07c0.02,0,0.07,0.01,0.16,0.01
	c0.09,0,0.16,0.01,0.25,0c0.13-0.01,0.18-0.04,0.21-0.05c0.04-0.02,0.07-0.05,0.08-0.06c0.03-0.03,0.05-0.06,0.06-0.08
	c0.06-0.1,0.1-0.19,0.1-0.19c0.04-0.09,0.06-0.14,0.09-0.21c0.05-0.14,0.09-0.26,0.1-0.28c0.05-0.16,0.06-0.24,0.06-0.26
	c0.01-0.07,0.01-0.13,0.01-0.17c-0.01,0.02-0.03,0.04-0.06,0.06c-0.04,0.03-0.08,0.05-0.11,0.06c0,0.01,0,0.03,0,0.05
	c0,0.05-0.01,0.09-0.02,0.13c-0.03,0.11-0.07,0.23-0.07,0.23c-0.05,0.13-0.09,0.24-0.12,0.29c-0.08,0.16-0.12,0.22-0.14,0.24
	c-0.03,0.04-0.06,0.07-0.11,0.1c-0.08,0.05-0.15,0.06-0.23,0.06c-0.13,0.01-0.23-0.01-0.3-0.03
	C751.86,1019.41,751.8,1019.38,751.75,1019.37L751.75,1019.37z"/>
<ellipse class="st44" cx="752.23" cy="1018.16" rx="0.87" ry="0.28"/>
<path class="st45" d="M751.42,1018.24c0-0.09,0.41-0.19,0.78-0.2c0.46-0.01,0.88,0.12,0.88,0.19c0,0.02-0.03,0.04-0.08,0.06
	c-0.06,0.04-0.12,0.05-0.14,0.05c-0.19,0.04-0.29,0.06-0.32,0.06c-0.1,0.01-0.25,0.02-0.43,0.01c-0.16-0.01-0.27-0.01-0.42-0.06
	C751.55,1018.33,751.42,1018.29,751.42,1018.24L751.42,1018.24z"/>
<path class="st46" d="M751.38,1018.19c0,0.01,0.01,0.03,0.03,0.04c0.02,0.02,0.04,0.03,0.05,0.04c0.06,0.04,0.14,0.06,0.17,0.07
	c0.02-0.03,0.06-0.07,0.11-0.11c0,0,0.01-0.01,0.02-0.01c0.12-0.09,0.33-0.14,0.33-0.14c0.16-0.04,0.26-0.04,0.26-0.05
	c0-0.01-0.17-0.01-0.31,0c-0.15,0.01-0.24,0.02-0.3,0.04c-0.05,0.01-0.1,0.02-0.12,0.03c-0.06,0.02-0.1,0.03-0.15,0.05
	C751.43,1018.17,751.4,1018.18,751.38,1018.19L751.38,1018.19z"/>
<path class="st37" d="M746.16,1018.95c-0.09,0.02-0.07,0.52-0.01,0.79c0.07,0.3,0.37,1.14,2.94,1.95c0.92,0.29,2.37,0.65,4.74,0.73
	c1.04,0.04,2.28,0.02,3.68-0.12c1.43-0.08,2.57-0.36,3.34-0.62c1.4-0.45,1.93-0.9,2.26-1.32c0.24-0.3,0.38-0.6,0.46-0.81
	c-0.26,0.2-0.65,0.49-1.15,0.78c-1.55,0.88-2.95,1.07-4.57,1.27c-1.89,0.24-3.34,0.18-4.16,0.14c-0.84-0.04-2.2-0.15-3.78-0.52
	c0,0-1.04-0.25-2.38-0.93c-0.53-0.27-0.82-0.48-1.05-0.81C746.31,1019.21,746.22,1018.94,746.16,1018.95L746.16,1018.95z"/>
<path class="st35" d="M754.46,1006.49h0.36c0.06,0,0.11,0.05,0.11,0.11v12.39c0,0.06-0.05,0.11-0.11,0.11h-0.36
	c-0.06,0-0.11-0.05-0.11-0.11v-12.39C754.35,1006.54,754.4,1006.49,754.46,1006.49z"/>
<path class="st38" d="M751.16,1004.94c-0.02,0.11-0.06,0.36,0.05,0.65c0.1,0.28,0.28,0.45,0.37,0.53c0.17,0.15,0.46,0.35,1.24,0.47
	c0.35,0.05,0.58,0.06,1.78,0.05c1.12,0,0.9-0.01,1.09-0.01c1.14,0.01,1.45,0.05,1.99-0.1c0.26-0.07,0.58-0.2,0.8-0.49
	c0.02-0.03,0.13-0.17,0.19-0.39c0.08-0.27,0.06-0.51,0.04-0.64C756.19,1005,753.68,1004.97,751.16,1004.94z"/>
<g>
	<path class="st47" d="M749.76,1019.95c-0.1-0.06-0.14-0.09-0.21-0.13c-0.08-0.05-0.21-0.13-0.36-0.22
		c-0.03-0.02-0.05-0.02-0.06-0.02c-0.07,0-0.14,0.09-0.11,0.16c0.01,0.03,0.04,0.05,0.06,0.06c0.1,0.05,0.46,0.21,0.95,0.44
		c0.01,0.01,0.03,0.01,0.04,0.02c0,0.02-0.01,0.04-0.01,0.07c0,0.07,0.03,0.11,0.04,0.13c0.04,0.08,0.11,0.12,0.18,0.15
		c0.06,0.03,0.15,0.07,0.27,0.07c0.05,0,0.12-0.01,0.18-0.06c0.05-0.05,0.05-0.12,0.05-0.13c0-0.1-0.07-0.16-0.13-0.22
		c-0.01-0.01-0.1-0.1-0.24-0.15c-0.04-0.01-0.08-0.02-0.11-0.02c-0.06,0-0.1,0.02-0.12,0.03c-0.04,0.02-0.06,0.04-0.08,0.06
		c-0.02-0.01-0.04-0.02-0.05-0.03c-0.02-0.01-0.03-0.02-0.05-0.03C749.95,1020.08,749.86,1020.03,749.76,1019.95L749.76,1019.95z"/>
	
		<ellipse transform="matrix(0.2348 -0.972 0.972 0.2348 -417.6925 1510.5)" class="st42" cx="750.56" cy="1020.55" rx="0.08" ry="0.11"/>
	<path class="st48" d="M750.6,1020.27c-0.01-0.05-0.06-0.08-0.1-0.1c-0.04-0.02-0.09-0.05-0.16-0.05c-0.02,0-0.07,0-0.12,0.03
		c-0.01,0.01-0.05,0.04-0.05,0.07c0,0,0,0.02,0.02,0.03c0.02,0.01,0.03,0,0.05,0c0.02-0.01,0.03-0.01,0.03-0.01
		c0.03-0.02,0.09-0.01,0.12,0c0.04,0.01,0.09,0.02,0.13,0.06c0,0,0.01,0.02,0.03,0.02c0,0,0.03,0.01,0.04-0.01
		C750.6,1020.31,750.6,1020.28,750.6,1020.27L750.6,1020.27z"/>
	<path class="st49" d="M749.06,1019.67c-0.02,0.01-0.03,0.03-0.02,0.05c0,0.01,0.01,0.02,0.01,0.03c0.01,0.01,0.02,0.01,0.04,0.02
		c0.03,0.01,0.05,0.02,0.06,0.03c0.01,0,0.04,0.02,0.11,0.05c0.12,0.06,0.18,0.09,0.22,0.1c0.04,0.02,0.09,0.04,0.13,0.07
		c0.02,0.01,0.05,0.03,0.05,0.02c0,0,0-0.01-0.01-0.02c-0.01-0.01-0.03-0.01-0.05-0.03c-0.06-0.03-0.1-0.05-0.14-0.07
		c-0.05-0.03-0.13-0.07-0.21-0.11c-0.01-0.01-0.06-0.03-0.11-0.06c-0.01-0.01-0.03-0.01-0.03-0.01c0,0-0.01-0.01-0.01-0.01
		c-0.01-0.02-0.01-0.04-0.01-0.04c0-0.01,0.01-0.02,0-0.03C749.08,1019.66,749.07,1019.66,749.06,1019.67L749.06,1019.67z"/>
</g>
<path class="st44" d="M756.97,1016.17c0.03,0.02,0.12,0.06,0.18,0.17c0.07,0.14,0.04,0.27,0.03,0.3"/>
<path class="st50" d="M749.62,1016.15c0.09-0.31,0.36-0.52,0.65-0.52c0.3,0,0.57,0.22,0.65,0.53"/>
<path class="st51" d="M751.13,1015.11L751.13,1015.11c0.04,0.03,0.05,0.09,0.02,0.13l-0.43,0.63c-0.03,0.04-0.09,0.05-0.13,0.02l0,0
	c-0.04-0.03-0.05-0.09-0.02-0.13l0.43-0.63C751.03,1015.09,751.09,1015.08,751.13,1015.11z"/>
<path class="st42" d="M749.14,1016.58c0.07,0.48,0.13,0.97,0.2,1.45c0.05,0.01,0.13,0.03,0.23,0.04c0.41,0.06,0.74,0.04,1.02,0.03
	c0.14-0.01,0.33-0.02,0.56-0.05c0.07-0.49,0.13-0.98,0.2-1.47c-0.41,0.01-0.82,0.02-1.25,0.02
	C749.78,1016.59,749.46,1016.59,749.14,1016.58L749.14,1016.58z"/>
<path class="st50" d="M750.03,1016.54c0.09-0.34,0.38-0.56,0.68-0.54c0.27,0.02,0.5,0.24,0.58,0.55"/>
<path class="st50" d="M749.24,1016.57c0.04-0.27,0.21-0.49,0.44-0.56c0.32-0.1,0.73,0.12,0.86,0.54"/>
<path class="st52" d="M749.11,1016.53h2.28c0.02,0,0.04,0.02,0.04,0.04l0,0c0,0.02-0.02,0.04-0.04,0.04h-2.28
	c-0.02,0-0.04-0.02-0.04-0.04l0,0C749.07,1016.55,749.08,1016.53,749.11,1016.53z"/>
<rect x="750.82" y="1015.45" transform="matrix(0.5311 -0.8473 0.8473 0.5311 -508.4082 1112.3721)" class="st9" width="0.04" height="0.18"/>
<rect x="750.89" y="1015.35" transform="matrix(0.5311 -0.8473 0.8473 0.5311 -508.2894 1112.3828)" class="st9" width="0.04" height="0.18"/>
<rect x="750.95" y="1015.25" transform="matrix(0.5311 -0.8473 0.8473 0.5311 -508.1742 1112.3958)" class="st9" width="0.04" height="0.18"/>
<rect x="751.02" y="1015.16" transform="matrix(0.5311 -0.8473 0.8473 0.5311 -508.0676 1112.4055)" class="st9" width="0.04" height="0.18"/>
<rect x="751.07" y="1015.07" transform="matrix(0.5311 -0.8473 0.8473 0.5311 -507.9694 1112.4158)" class="st9" width="0.04" height="0.18"/>
<rect x="750.75" y="1015.53" transform="matrix(0.5311 -0.8473 0.8473 0.5311 -508.5099 1112.3599)" class="st9" width="0.04" height="0.18"/>
<rect x="750.69" y="1015.64" transform="matrix(0.5311 -0.8473 0.8473 0.5311 -508.6284 1112.3505)" class="st9" width="0.04" height="0.18"/>
<rect x="750.62" y="1015.73" transform="matrix(0.5311 -0.8473 0.8473 0.5311 -508.7365 1112.3398)" class="st9" width="0.04" height="0.18"/>
<path class="st53" d="M759.52,1016.71c0.15,1.08,0.26,1.85,0.27,2.05c0,0.02,0.01,0.09,0.05,0.15c0.04,0.06,0.11,0.11,0.36,0.15
	c0.18,0.03,0.35,0.03,0.68,0.03c0.07,0,0.17,0,0.25-0.07c0.04-0.04,0.07-0.09,0.08-0.12c0.11-0.72,0.21-1.45,0.32-2.17
	C760.86,1016.72,760.19,1016.71,759.52,1016.71L759.52,1016.71z"/>
<path class="st54" d="M759.45,1016.44c-0.01,0.02-0.01,0.05-0.02,0.09c0,0.04,0,0.08,0.01,0.11c0.01,0.02,0.02,0.05,0.04,0.07
	c0.02,0.02,0.05,0.03,0.07,0.03c0.41,0.09,0.92,0.09,0.92,0.09s0.24,0,0.68-0.03c0,0,0.1-0.01,0.23-0.04
	c0.1-0.03,0.15-0.04,0.19-0.09c0.07-0.09,0.05-0.24,0.02-0.25c-0.01,0-0.02,0.02-0.05,0.05c-0.06,0.07-0.15,0.08-0.25,0.08
	c-0.28,0.02-0.32,0.03-0.32,0.03c-0.43,0.01-0.36,0.01-0.49,0.01c-0.1,0-0.22-0.01-0.46-0.01c-0.34-0.01-0.43,0-0.53-0.09
	C759.47,1016.47,759.46,1016.45,759.45,1016.44L759.45,1016.44z"/>
<ellipse class="st55" cx="760.53" cy="1016.45" rx="1.09" ry="0.22"/>
<path class="st54" d="M759.72,1016.25c-0.01,0.02-0.01,0.04-0.01,0.07c0,0.03,0,0.06,0.01,0.08c0,0.01,0.01,0.04,0.03,0.05
	c0.02,0.02,0.04,0.02,0.05,0.02c0.3,0.07,0.66,0.07,0.66,0.07s0.17,0,0.5-0.02c0,0,0.07,0,0.17-0.03c0.07-0.02,0.11-0.03,0.14-0.07
	c0.05-0.07,0.04-0.18,0.01-0.18c-0.01,0-0.01,0.02-0.03,0.04c-0.04,0.05-0.11,0.05-0.18,0.06c-0.2,0.02-0.23,0.02-0.23,0.02
	c-0.32,0.01-0.26,0.01-0.35,0.01c-0.07,0-0.16,0-0.33-0.01c-0.25-0.01-0.32,0-0.39-0.06
	C759.73,1016.27,759.72,1016.25,759.72,1016.25L759.72,1016.25z"/>
<ellipse class="st55" cx="760.5" cy="1016.25" rx="0.79" ry="0.16"/>
<ellipse class="st54" cx="760.04" cy="1016.25" rx="0.13" ry="0.06"/>
<path class="st9" d="M759.6,1017.31c0.03,0.28,0.06,0.57,0.09,0.85c0.07,0.04,0.15,0.07,0.23,0.1c0.57,0.19,1.1,0.07,1.41-0.04
	c0.05-0.3,0.1-0.61,0.15-0.91c-0.14,0.04-0.29,0.08-0.46,0.11C760.43,1017.5,759.93,1017.41,759.6,1017.31L759.6,1017.31z"/>
<ellipse transform="matrix(0.5 -0.866 0.866 0.5 -501.2171 1167.6989)" class="st56" cx="760.65" cy="1017.92" rx="0.16" ry="0.1"/>
<ellipse transform="matrix(0.866 -0.5 0.5 0.866 -407.0664 516.64)" class="st56" cx="760.53" cy="1017.92" rx="0.1" ry="0.16"/>
<path class="st35" d="M833.89,1019.35h0.36c0.06,0,0.11,0.05,0.11,0.11v12.25c0,0.06-0.05,0.11-0.11,0.11h-0.36
	c-0.06,0-0.11-0.05-0.11-0.11v-12.25C833.77,1019.4,833.82,1019.35,833.89,1019.35z"/>
<ellipse class="st36" cx="834.26" cy="1020.59" rx="8.73" ry="3.08"/>
<path class="st37" d="M822.21,1018.81l0.26-0.13c0.06-0.03,0.13-0.01,0.16,0.05l6.61,13.1c0.03,0.06,0.01,0.13-0.05,0.16l-0.26,0.13
	c-0.06,0.03-0.13,0.01-0.16-0.05l-6.61-13.1C822.13,1018.92,822.15,1018.84,822.21,1018.81z"/>
<path class="st39" d="M821.52,1005.4c-0.14,0.31-0.25,0.68-0.27,1.1c-0.02,0.36-0.03,0.55,0.1,0.72c0.19,0.24,0.55,0.24,1.26,0.21
	c0.34-0.01,0.75-0.03,1.29-0.17c0.69-0.19,0.89-0.22,1.01-0.38c0.08-0.11,0.13-0.24,0.21-0.52c0.1-0.36,0.08-0.49,0.14-0.83
	c0.09-0.45,0.23-0.79,0.3-0.94c0.08-0.17,0.22-0.45,0.5-0.82c1.14-1.5,2.48-2.41,2.48-2.41c0.65-0.42,1.64-0.97,2.93-1.36
	c1.42-0.43,2.57-0.47,2.56-0.51c-0.01-0.05-1.38-0.02-3.02,0.27c-0.75,0.13-1.69,0.34-2.76,0.7c-1.59,0.53-3.06,1.02-4.46,2.2
	c-0.69,0.57-1.13,1.13-1.57,1.66C821.97,1004.61,821.72,1004.94,821.52,1005.4L821.52,1005.4z"/>
<path class="st38" d="M824.52,1006.57c0.07,0.15,0.19,0.29,0.51,0.49c0.34,0.21,0.93,0.5,1.98,0.62c0.88,0.1,1.46,0.01,2.41-0.13
	c0.36-0.05,0.87-0.15,1.18-0.51c0.15-0.17,0.23-0.39,0.23-0.39c0.1-0.24,0.1-0.43,0.1-0.64c0.01-0.31,0.05-0.62,0.05-0.93
	c0.01-0.84,0.3-1.73,0.41-2.08c0.18-0.55,0.41-0.99,0.87-1.87c0.34-0.64,0.47-0.83,0.67-1c0,0,0.23-0.2,1.08-0.64
	c0,0-1.34,0.04-2.57,0.31c-0.37,0.08-1.15,0.27-2.08,0.69c-1.11,0.5-1.84,1.08-2,1.21c-0.26,0.21-0.91,0.75-1.57,1.62
	c-0.55,0.73-0.81,1.29-1,1.72C824.37,1005.98,824.41,1006.33,824.52,1006.57L824.52,1006.57z"/>
<path class="st39" d="M843.67,1006.6c0.09,0.17,0.1,0.25,0.14,0.33c0.11,0.21,0.35,0.31,0.91,0.43c0.98,0.22,1.61,0.22,1.77,0.22
	c0.49,0,0.74-0.01,0.87-0.14c0.31-0.32,0.07-1.01-0.07-1.41c-0.45-1.27-1.25-2.09-1.45-2.28c-0.52-0.52-1.69-1.59-3.69-2.5
	c-1.46-0.67-2.66-0.92-4.09-1.23c-1.62-0.35-3.03-0.5-3.04-0.43c-0.01,0.07,1.21,0.2,2.79,0.83c0.85,0.34,2.14,0.87,3.4,2.06
	c0.85,0.8,1.61,1.52,1.74,2.35c0.02,0.13,0.13,0.96,0.43,1.34C843.41,1006.21,843.54,1006.36,843.67,1006.6L843.67,1006.6z"/>
<path class="st38" d="M838.36,1007.12c0.5,0.25,0.75,0.38,0.94,0.44c0.42,0.13,0.74,0.15,1.24,0.18c0.41,0.02,0.9,0.04,1.54-0.05
	c0.6-0.09,0.97-0.24,1.36-0.39c0.46-0.18,0.64-0.31,0.73-0.5c0.1-0.22,0.06-0.43,0-0.67c-0.18-0.74-0.27-1.11-0.5-1.56
	c-0.51-1.01-1.12-1.68-1.35-1.91c-0.14-0.15-0.77-0.79-1.76-1.37c-0.66-0.39-1.24-0.61-1.73-0.79c-0.46-0.18-0.8-0.27-1.32-0.43
	c-0.56-0.16-1.18-0.33-1.93-0.43c-0.48-0.07-0.87-0.11-0.91,0c-0.06,0.14,0.45,0.39,0.83,0.73c0.84,0.73,0.47,1.3,1.35,3.13
	c0.38,0.8,1.17,2.21,0.97,2.8c-0.01,0.04-0.07,0.19-0.02,0.35C837.88,1006.86,838.06,1006.97,838.36,1007.12L838.36,1007.12z"/>
<path class="st39" d="M830.62,1006.61c0.08,0.22,0.21,0.35,0.29,0.42c0.23,0.22,0.48,0.3,0.75,0.38c0.7,0.2,1.27,0.26,1.31,0.27
	c0.56,0.06,0.98,0.07,1.47,0.07c0.71,0.01,1.06,0.01,1.47-0.06c0.25-0.04,0.58-0.14,1.23-0.35c0.48-0.15,0.76-0.26,0.9-0.53
	c0.04-0.08,0.06-0.16,0.07-0.28c0.08-0.61-0.06-1.15-0.07-1.21c-0.24-0.97-0.09-0.78-0.35-1.75c-0.2-0.75-0.33-1.23-0.63-1.84
	c-0.22-0.46-0.49-0.99-1.03-1.51c-0.31-0.3-0.72-0.68-1.34-0.79c-0.41-0.07-0.74,0-0.81,0.02c-0.47,0.12-0.81,0.4-1.12,0.75
	c-0.19,0.21-0.95,1.09-1.49,2.7c-0.23,0.7-0.17,0.77-0.53,2.21c0,0-0.05,0.19-0.13,0.75
	C830.56,1006.29,830.56,1006.44,830.62,1006.61L830.62,1006.61z"/>
<path class="st35" d="M834.02,999.48c0-0.27,0-0.51,0.01-0.72c0-0.07,0.01-0.22,0.09-0.37c0.04-0.07,0.1-0.18,0.19-0.19
	c0.09,0,0.15,0.1,0.2,0.17c0.04,0.07,0.1,0.19,0.11,0.38c0,0.24,0.01,0.48,0.01,0.73L834.02,999.48L834.02,999.48z"/>
<path class="st38" d="M821.29,1006.11c-0.01,0.07-0.03,0.16-0.04,0.27c-0.01,0.1-0.02,0.22-0.01,0.36c0.01,0.13,0.02,0.33,0.12,0.46
	c0.09,0.13,0.25,0.19,0.61,0.23c0.16,0.02,0.67,0.06,1.43-0.08c0.04-0.01,0.31-0.07,0.87-0.2c0,0,0,0,0.26-0.07
	c0.07-0.02,0.19-0.05,0.26-0.1c0.01,0,0.07-0.05,0.07-0.05l0,0c0,0-0.1-0.07-0.18-0.16c-0.03-0.03-0.09-0.1-0.14-0.2
	c-0.02-0.04-0.05-0.09-0.06-0.17c-0.01-0.06-0.03-0.15-0.01-0.26C823.4,1006.13,822.34,1006.12,821.29,1006.11L821.29,1006.11z"/>
<path class="st39" d="M824.45,1006.13c-0.01,0.06-0.02,0.16-0.01,0.26c0.03,0.16,0.12,0.38,0.49,0.64c0.5,0.34,1.01,0.45,1.67,0.58
	c0.29,0.06,0.53,0.1,0.87,0.12c0.31,0.02,0.66-0.01,1.33-0.07c0.23-0.02,0.61-0.06,1.07-0.17c0.07-0.02,0.35-0.09,0.63-0.3
	c0.27-0.2,0.25-0.32,0.25-0.34c-0.01-0.04-0.03-0.04-0.07-0.12c-0.08-0.14-0.09-0.28-0.1-0.38c0-0.06,0-0.12,0-0.17
	C828.54,1006.17,826.49,1006.15,824.45,1006.13L824.45,1006.13z"/>
<path class="st39" d="M838.14,1006.27c0,0.03,0.01,0.06,0.01,0.11c0.01,0.08,0,0.15,0,0.2c0,0.08-0.01,0.12-0.01,0.18
	c-0.01,0.05-0.02,0.12-0.06,0.2c0.04,0.03,0.09,0.07,0.15,0.11c0,0,0.18,0.13,0.4,0.24c0.45,0.22,0.95,0.34,0.95,0.34
	c0.26,0.05,0.71,0.13,1.33,0.13c0.17,0,0.73-0.01,1.46-0.14c0.07-0.01,0.67-0.13,1.33-0.43c0.17-0.08,0.36-0.18,0.47-0.4
	c0.1-0.21,0.06-0.42,0.04-0.51C842.19,1006.29,840.16,1006.28,838.14,1006.27L838.14,1006.27z"/>
<path class="st38" d="M844.21,1006.29c0.01,0.04,0.03,0.09,0.03,0.16c0.01,0.1-0.01,0.17-0.02,0.22c-0.03,0.13-0.09,0.21-0.11,0.24
	c-0.03,0.04-0.05,0.08-0.1,0.11c-0.05,0.04-0.07,0.04-0.08,0.05c0,0.01,0.01,0.06,0.31,0.16c0.21,0.07,0.33,0.09,0.33,0.09
	c0.58,0.11,0.86,0.17,0.98,0.19c0.47,0.06,0.77,0.06,1.19,0.06c0.4,0,0.56-0.02,0.67-0.14c0.11-0.13,0.11-0.32,0.1-0.53
	c-0.01-0.26-0.07-0.46-0.12-0.59C846.33,1006.3,845.27,1006.3,844.21,1006.29L844.21,1006.29z"/>
<path class="st40" d="M817.94,1020.27l0.28-0.14c0.06-0.03,0.13-0.01,0.16,0.05l6.01,11.92c0.03,0.06,0.01,0.13-0.05,0.16
	l-0.28,0.14c-0.06,0.03-0.13,0.01-0.16-0.05l-6.01-11.92C817.86,1020.37,817.88,1020.3,817.94,1020.27z"/>
<rect x="822.19" y="1028.14" class="st37" width="5.2" height="0.51"/>
<rect x="817.9" y="1024.41" class="st40" width="7.67" height="0.71"/>
<path class="st39" d="M818.98,1024.4c3.28,0.01,6.57,0.01,9.85,0.02c0.01-0.04,0.02-0.1,0-0.16c-0.07-0.29-0.52-0.41-1.22-0.55
	c-0.79-0.16-1.19-0.25-1.66-0.29c-0.59-0.06-1.01-0.07-1.64-0.08c-0.9-0.01-1.58,0.02-1.94,0.04c-0.3,0.02-0.52,0.04-0.97,0.08
	c-0.77,0.07-1.34,0.13-1.75,0.36c-0.26,0.14-0.46,0.34-0.46,0.34C819.09,1024.24,819.02,1024.33,818.98,1024.4L818.98,1024.4z"/>
<path class="st40" d="M824.33,1024.72l0.26,0.17c0.05,0.04,0.07,0.11,0.04,0.16l-4.42,6.9c-0.04,0.05-0.11,0.07-0.16,0.04
	l-0.26-0.17c-0.05-0.04-0.07-0.11-0.04-0.16l4.42-6.9C824.21,1024.7,824.28,1024.69,824.33,1024.72z"/>
<path class="st40" d="M829.36,1024.51l0.25,0.13c0.06,0.03,0.08,0.1,0.05,0.16l-4.07,7.52c-0.03,0.06-0.1,0.08-0.16,0.05l-0.25-0.13
	c-0.06-0.03-0.08-0.1-0.05-0.16l4.07-7.52C829.23,1024.5,829.3,1024.48,829.36,1024.51z"/>
<rect x="825.03" y="1024.41" class="st37" width="4.93" height="0.71"/>
<path class="st40" d="M815.96,1017.4l1.92,3.85c0.05,0.1,0.14,0.16,0.25,0.16h6.43c0.21,0,0.34-0.22,0.25-0.4l-1.87-3.85
	c-0.05-0.1-0.14-0.16-0.25-0.16h-6.48C816,1016.99,815.87,1017.21,815.96,1017.4L815.96,1017.4L815.96,1017.4z"/>
<path class="st37" d="M839.15,1032.56l-0.26-0.13c-0.06-0.03-0.08-0.1-0.05-0.16l6.61-13.1c0.03-0.06,0.1-0.08,0.16-0.05l0.26,0.13
	c0.06,0.03,0.08,0.1,0.05,0.16l-6.6,13.1C839.28,1032.57,839.21,1032.59,839.15,1032.56z"/>
<path class="st40" d="M844.01,1032.82l-0.28-0.14c-0.06-0.03-0.08-0.1-0.05-0.16l6.01-11.92c0.03-0.06,0.1-0.08,0.16-0.05l0.28,0.14
	c0.06,0.03,0.08,0.1,0.05,0.16l-6.01,11.92C844.14,1032.83,844.07,1032.85,844.01,1032.82z"/>
<rect x="840.68" y="1028.57" class="st37" width="5.2" height="0.51"/>
<rect x="842.5" y="1024.84" class="st40" width="7.67" height="0.71"/>
<path class="st39" d="M849.09,1024.82c-3.28,0.01-6.57,0.01-9.85,0.02c-0.01-0.04-0.02-0.1,0-0.16c0.07-0.29,0.52-0.41,1.22-0.55
	c0.79-0.16,1.19-0.25,1.66-0.29c0.59-0.06,1.01-0.07,1.64-0.08c0.9-0.01,1.58,0.02,1.94,0.04c0.3,0.02,0.52,0.04,0.97,0.08
	c0.77,0.07,1.34,0.13,1.75,0.36c0.26,0.14,0.46,0.34,0.46,0.34C848.98,1024.67,849.05,1024.76,849.09,1024.82L849.09,1024.82z"/>
<path class="st40" d="M848.28,1032.25l-0.26,0.17c-0.05,0.04-0.13,0.02-0.16-0.04l-4.42-6.9c-0.04-0.05-0.02-0.13,0.04-0.16
	l0.26-0.17c0.05-0.04,0.13-0.02,0.16,0.04l4.42,6.9C848.35,1032.15,848.33,1032.22,848.28,1032.25z"/>
<path class="st40" d="M842.9,1032.67l-0.25,0.13c-0.06,0.03-0.13,0.01-0.16-0.05l-4.07-7.52c-0.03-0.06-0.01-0.13,0.05-0.16
	l0.25-0.13c0.06-0.03,0.13-0.01,0.16,0.05l4.07,7.52C842.97,1032.57,842.95,1032.64,842.9,1032.67z"/>
<rect x="838.11" y="1024.84" class="st37" width="4.93" height="0.71"/>
<path class="st40" d="M852.11,1017.83l-1.92,3.85c-0.05,0.1-0.14,0.16-0.25,0.16h-6.43c-0.21,0-0.34-0.22-0.25-0.4l1.87-3.85
	c0.05-0.1,0.14-0.16,0.25-0.16h6.48C852.07,1017.42,852.2,1017.64,852.11,1017.83L852.11,1017.83L852.11,1017.83z"/>
<path class="st37" d="M825.56,1020.24c-0.09,0.02-0.07,0.52-0.01,0.79c0.07,0.3,0.37,1.15,2.95,1.95c0.92,0.29,2.37,0.65,4.75,0.73
	c1.05,0.04,2.29,0.02,3.69-0.12c1.44-0.08,2.57-0.37,3.35-0.62c1.4-0.46,1.93-0.9,2.27-1.33c0.24-0.3,0.38-0.6,0.47-0.81
	c-0.26,0.2-0.65,0.49-1.15,0.78c-1.55,0.88-2.95,1.07-4.58,1.28c-1.9,0.24-3.34,0.18-4.17,0.14c-0.85-0.04-2.2-0.15-3.79-0.52
	c0,0-1.04-0.25-2.39-0.93c-0.53-0.27-0.83-0.48-1.05-0.82C825.71,1020.49,825.63,1020.22,825.56,1020.24L825.56,1020.24z"/>
<path class="st35" d="M833.89,1007.74h0.36c0.06,0,0.11,0.05,0.11,0.11v12.42c0,0.06-0.05,0.11-0.11,0.11h-0.36
	c-0.06,0-0.11-0.05-0.11-0.11v-12.42C833.77,1007.79,833.82,1007.74,833.89,1007.74z"/>
<path class="st38" d="M830.58,1006.19c-0.02,0.11-0.06,0.36,0.05,0.66c0.1,0.28,0.28,0.45,0.37,0.53c0.17,0.15,0.46,0.35,1.24,0.47
	c0.35,0.05,0.58,0.06,1.78,0.05c1.12,0,0.91-0.01,1.09-0.01c1.14,0.01,1.46,0.05,2-0.1c0.26-0.07,0.58-0.2,0.8-0.49
	c0.02-0.03,0.13-0.17,0.19-0.4c0.08-0.27,0.06-0.51,0.04-0.64C835.62,1006.24,833.1,1006.22,830.58,1006.19z"/>
<polyline class="st57" points="835.6,1017.15 835.6,1016.33 836.83,1016.31 836.84,1017.12 "/>
<path class="st58" d="M835.29,1016.96l0.19,0c0.04,0,0.07,0.03,0.07,0.06l0,0.02c0,0.04-0.03,0.07-0.06,0.07l-0.19,0
	c-0.04,0-0.07-0.03-0.07-0.06l0-0.02C835.22,1016.99,835.25,1016.96,835.29,1016.96z"/>
<path class="st59" d="M835.03,1017.25c0.01,0.4,0.02,0.79,0.02,1.19c0,0.02,0.01,0.05,0.04,0.08c0.05,0.05,0.12,0.04,0.14,0.04
	c0.12-0.01,0.92-0.02,2.05-0.03c0.01,0,0.05-0.01,0.08-0.03c0.04-0.04,0.04-0.09,0.04-0.1c-0.01-0.4-0.02-0.81-0.02-1.21
	c0-0.02,0-0.05-0.02-0.08c-0.04-0.07-0.13-0.07-0.14-0.07c-0.2,0-0.41,0-0.61,0c-0.01,0-0.02,0-0.03,0c0-0.01,0-0.03-0.01-0.06
	c-0.01-0.04-0.03-0.11-0.09-0.13c-0.01,0-0.03-0.01-0.05-0.01l-0.5,0.01c-0.02,0.01-0.04,0.01-0.05,0.02
	c-0.07,0.05-0.05,0.16-0.05,0.17c-0.23,0.01-0.47,0.01-0.7,0.02c-0.01,0-0.04,0.01-0.06,0.02c-0.03,0.02-0.03,0.05-0.04,0.07
	C835.03,1017.19,835.02,1017.22,835.03,1017.25L835.03,1017.25z"/>
<circle class="st58" cx="836.25" cy="1017.8" r="0.58"/>
<circle class="st60" cx="836.25" cy="1017.8" r="0.47"/>
<circle class="st61" cx="836.04" cy="1017.67" r="0.11"/>
<circle class="st61" cx="835.95" cy="1017.9" r="0.05"/>
<circle class="st62" cx="835.33" cy="1017.34" r="0.09"/>
<circle class="st62" cx="837.13" cy="1017.31" r="0.13"/>
<path class="st9" d="M836.06,1016.94l0.31,0c0.03,0,0.06,0.03,0.06,0.06l0,0.02c0,0.03-0.03,0.06-0.06,0.06l-0.31,0
	c-0.03,0-0.06-0.03-0.06-0.06l0-0.02C836,1016.96,836.03,1016.94,836.06,1016.94z"/>
<path class="st63" d="M837.04,1019.42c0.09-0.31,0.36-0.52,0.65-0.52c0.3,0,0.57,0.22,0.65,0.54"/>
<path class="st51" d="M838.55,1018.38L838.55,1018.38c0.04,0.03,0.05,0.09,0.02,0.13l-0.43,0.63c-0.03,0.04-0.09,0.05-0.13,0.02l0,0
	c-0.04-0.03-0.05-0.09-0.02-0.13l0.43-0.63C838.45,1018.37,838.5,1018.36,838.55,1018.38z"/>
<path class="st42" d="M836.55,1019.85c0.07,0.48,0.13,0.97,0.2,1.45c0.05,0.01,0.13,0.03,0.23,0.04c0.41,0.06,0.74,0.04,1.02,0.03
	c0.14-0.01,0.34-0.02,0.56-0.05c0.07-0.49,0.13-0.98,0.2-1.48c-0.41,0.01-0.82,0.02-1.25,0.02
	C837.19,1019.87,836.87,1019.86,836.55,1019.85L836.55,1019.85z"/>
<path class="st63" d="M837.45,1019.82c0.09-0.34,0.38-0.57,0.68-0.54c0.27,0.02,0.51,0.24,0.58,0.55"/>
<path class="st63" d="M836.65,1019.85c0.04-0.27,0.22-0.49,0.44-0.56c0.32-0.1,0.74,0.12,0.86,0.54"/>
<path class="st52" d="M836.52,1019.81h2.29c0.02,0,0.04,0.02,0.04,0.04l0,0c0,0.02-0.02,0.04-0.04,0.04h-2.29
	c-0.02,0-0.04-0.02-0.04-0.04l0,0C836.48,1019.83,836.49,1019.81,836.52,1019.81z"/>
<rect x="838.23" y="1018.72" transform="matrix(0.5311 -0.8473 0.8473 0.5311 -470.1927 1187.9746)" class="st9" width="0.04" height="0.18"/>
<rect x="838.3" y="1018.62" transform="matrix(0.5311 -0.8473 0.8473 0.5311 -470.0736 1187.9854)" class="st9" width="0.04" height="0.18"/>
<rect x="838.37" y="1018.52" transform="matrix(0.5311 -0.8473 0.8473 0.5311 -469.9581 1187.9983)" class="st9" width="0.04" height="0.18"/>
<rect x="838.43" y="1018.43" transform="matrix(0.5311 -0.8473 0.8473 0.5311 -469.8512 1188.0081)" class="st9" width="0.04" height="0.18"/>
<rect x="838.49" y="1018.34" transform="matrix(0.5311 -0.8473 0.8473 0.5311 -469.7528 1188.0184)" class="st9" width="0.04" height="0.18"/>
<rect x="838.17" y="1018.81" transform="matrix(0.5311 -0.8473 0.8473 0.5311 -470.2947 1187.9623)" class="st9" width="0.04" height="0.18"/>
<rect x="838.1" y="1018.91" transform="matrix(0.5311 -0.8473 0.8473 0.5311 -470.4134 1187.953)" class="st9" width="0.04" height="0.18"/>
<rect x="838.04" y="1019" transform="matrix(0.5311 -0.8473 0.8473 0.5311 -470.5219 1187.9423)" class="st9" width="0.04" height="0.18"/>
<ellipse transform="matrix(0.0218 -0.9998 0.9998 0.0218 -1083.7086 1083.4164)" class="st24" cx="11.79" cy="1095.5" rx="5.82" ry="8.48"/>
<ellipse transform="matrix(0.2198 -0.9755 0.9755 0.2198 -1050.6874 881.6989)" class="st26" cx="25.88" cy="1097.73" rx="6.56" ry="9.56"/>
<ellipse transform="matrix(0.9849 -0.1729 0.1729 0.9849 -189.4638 23.1542)" class="st24" cx="38.16" cy="1098.97" rx="9.56" ry="6.56"/>
<ellipse transform="matrix(0.0218 -0.9998 0.9998 0.0218 -1044.1862 1133.8658)" class="st24" cx="57.33" cy="1100.53" rx="6.99" ry="13.91"/>
<ellipse transform="matrix(0.9193 -0.3936 0.3936 0.9193 -427.5049 118.673)" class="st26" cx="75.58" cy="1101.62" rx="8.48" ry="5.82"/>
<ellipse transform="matrix(0.0218 -0.9998 0.9998 0.0218 -1010.1761 1173.9508)" class="st26" cx="94.82" cy="1103.19" rx="6.99" ry="13.91"/>
<rect x="531.71" y="853.31" transform="matrix(4.480689e-11 -1 1 4.480689e-11 -317.6964 1396.9535)" class="st20" width="15.83" height="8.03"/>
<rect x="552.43" y="853.31" transform="matrix(4.457685e-11 -1 1 4.457685e-11 -296.974 1417.6759)" class="st20" width="15.83" height="8.03"/>
<rect x="573.16" y="853.31" transform="matrix(4.492146e-11 -1 1 4.492146e-11 -276.2515 1438.3984)" class="st20" width="15.83" height="8.03"/>
<rect x="790.9" y="1064.81" class="st33" width="1.46" height="41.61"/>
<path class="st9" d="M791.63,1062c-5.19,13.54-10.38,27.08-15.57,40.62c5.19,0.05,10.38,0.08,15.57,0.13V1062L791.63,1062z"/>
<polygon class="st9" points="792.59,1072.79 792.36,1103.04 807.29,1103.59 "/>
<rect x="554.66" y="1067.96" class="st33" width="2.02" height="45.69"/>
<path class="st9" d="M555.93,1069.29c-2.37,1.09-6.54,3.42-9.89,8.01c-1.56,2.14-6.01,8.23-4.47,15.78c0.28,1.37,1.37,6.7,6.36,9.89
	c3.71,2.37,7.53,2.24,8.95,2.12c-1.3-4.05-2.38-8.8-2.83-14.13c-0.16-1.87-0.46-6.62,0.24-12.72
	C554.69,1074.68,555.33,1071.65,555.93,1069.29z"/>
<g>
	
		<rect x="709.56" y="878.18" transform="matrix(4.505558e-11 -1 1 4.505558e-11 -164.4434 1602.1823)" class="st9" width="18.61" height="10.27"/>
	
		<rect x="710.95" y="879.3" transform="matrix(4.503604e-11 -1 1 4.503604e-11 -164.4434 1602.1823)" class="st20" width="15.83" height="8.03"/>
</g>
<g>
	
		<rect x="732.53" y="878.18" transform="matrix(4.476248e-11 -1 1 4.476248e-11 -141.4738 1625.1519)" class="st9" width="18.61" height="10.27"/>
	
		<rect x="733.92" y="879.3" transform="matrix(4.526608e-11 -1 1 4.526608e-11 -141.4738 1625.1519)" class="st20" width="15.83" height="8.03"/>
</g>
<g>
	
		<rect x="755.5" y="878.18" transform="matrix(4.476248e-11 -1 1 4.476248e-11 -118.5041 1648.1216)" class="st9" width="18.61" height="10.27"/>
	
		<rect x="756.89" y="879.3" transform="matrix(4.457685e-11 -1 1 4.457685e-11 -118.5041 1648.1216)" class="st20" width="15.83" height="8.03"/>
</g>
<g>
	
		<rect x="709.56" y="908.37" transform="matrix(4.486018e-11 -1 1 4.486018e-11 -194.6413 1632.3801)" class="st9" width="18.61" height="10.27"/>
	
		<rect x="710.95" y="909.5" transform="matrix(4.492146e-11 -1 1 4.492146e-11 -194.6413 1632.3801)" class="st20" width="15.83" height="8.03"/>
</g>
<g>
	
		<rect x="732.53" y="908.37" transform="matrix(4.515328e-11 -1 1 4.515328e-11 -171.6716 1655.3497)" class="st9" width="18.61" height="10.27"/>
	
		<rect x="733.92" y="909.5" transform="matrix(4.503604e-11 -1 1 4.503604e-11 -171.6716 1655.3497)" class="st20" width="15.83" height="8.03"/>
</g>
<g>
	
		<rect x="755.5" y="908.37" transform="matrix(4.505558e-11 -1 1 4.505558e-11 -148.702 1678.3193)" class="st9" width="18.61" height="10.27"/>
	
		<rect x="756.89" y="909.5" transform="matrix(4.492146e-11 -1 1 4.492146e-11 -148.702 1678.3193)" class="st20" width="15.83" height="8.03"/>
</g>
<rect x="792.79" y="927.17" class="st18" width="8.4" height="14.77"/>
<rect x="812.72" y="927.17" class="st18" width="8.4" height="14.77"/>
<path class="st20" d="M649.92,867.95h-10.86v-14.3c0-1.07,0.86-1.93,1.93-1.93h7c1.07,0,1.93,0.86,1.93,1.93V867.95z"/>
<path class="st18" d="M233.11,905.98h8.4v-11.06c0-0.82-0.67-1.49-1.49-1.49h-5.41c-0.82,0-1.49,0.67-1.49,1.49V905.98z"/>
<path class="st18" d="M252.94,905.98h8.4v-11.06c0-0.82-0.67-1.49-1.49-1.49h-5.41c-0.82,0-1.49,0.67-1.49,1.49V905.98z"/>
<rect x="847.94" y="938.52" transform="matrix(-1 -2.945212e-11 2.945212e-11 -1 1704.2772 1885.0961)" class="st18" width="8.4" height="8.06"/>
<rect x="873.59" y="938.52" transform="matrix(-1 -2.945212e-11 2.945212e-11 -1 1755.5714 1885.0961)" class="st18" width="8.4" height="8.06"/>
<rect x="899.23" y="938.52" transform="matrix(-1 -2.945212e-11 2.945212e-11 -1 1806.8657 1885.0961)" class="st18" width="8.4" height="8.06"/>
<rect x="847.94" y="978.83" transform="matrix(-1 -4.287916e-11 4.287916e-11 -1 1704.2776 1969.6636)" class="st18" width="8.4" height="12"/>
<rect x="873.59" y="978.83" transform="matrix(-1 -4.287916e-11 4.287916e-11 -1 1755.5718 1969.6636)" class="st18" width="8.4" height="12"/>
<rect x="899.23" y="978.83" transform="matrix(-1 -4.287916e-11 4.287916e-11 -1 1806.866 1969.6636)" class="st18" width="8.4" height="12"/>
<path class="st6" d="M710.64,946.58v80.62h9.32v-31.71c0-17.51,15.06-31.71,33.65-31.71h0c18.58,0,33.65,14.2,33.65,31.71v31.71
	h10.7v-31.71c0-17.51,15.06-31.71,33.65-31.71s33.65,14.2,33.65,31.71v31.71h10.7v-31.71c0-17.51,15.06-31.71,33.65-31.71
	s33.65,14.2,33.65,31.71v31.71h9.32v-80.62H710.64z"/>
<rect x="962.68" y="906.43" transform="matrix(-1 -4.504453e-11 4.504453e-11 -1 1933.7656 1825.4144)" class="st18" width="8.4" height="12.55"/>
<rect x="986.99" y="906.43" transform="matrix(-1 -4.461155e-11 4.461155e-11 -1 1982.3889 1825.4144)" class="st18" width="8.4" height="12.55"/>
<rect x="632.49" y="1037.88" transform="matrix(-1 -4.456403e-11 4.456403e-11 -1 1266.2006 2110.5933)" class="st33" width="1.22" height="34.83"/>
<path class="st9" d="M633.1,1035.52v34.1c4.35-0.04,8.68-0.07,13.03-0.11C641.78,1058.19,637.45,1046.86,633.1,1035.52
	L633.1,1035.52z"/>
<polygon class="st9" points="619.99,1070.34 632.49,1069.88 632.3,1044.55 "/>
<path class="st33" d="M620.13,1077.01c9.61-0.09,19.23-0.18,28.84-0.27c0.86-1.63,1.72-3.27,2.59-4.9h-33.61
	C618.68,1073.56,619.4,1075.29,620.13,1077.01z"/>
<rect x="593.19" y="1047.44" transform="matrix(-1 -4.015600e-11 4.015600e-11 -1 1187.3776 2123.2258)" class="st33" width="1" height="28.35"/>
<path class="st9" d="M593.69,1045.52v27.76c3.54-0.03,7.07-0.05,10.61-0.09C600.76,1063.97,597.23,1054.74,593.69,1045.52
	L593.69,1045.52z"/>
<polygon class="st9" points="583.02,1073.85 593.19,1073.48 593.03,1052.87 "/>
<path class="st33" d="M583.13,1079.29c7.82-0.07,15.65-0.15,23.47-0.22c0.7-1.33,1.4-2.66,2.1-3.99h-27.35
	C581.95,1076.48,582.54,1077.88,583.13,1079.29z"/>
<path class="st35" d="M909.06,1020.82h0.36c0.06,0,0.11,0.05,0.11,0.11v12.25c0,0.06-0.05,0.11-0.11,0.11h-0.36
	c-0.06,0-0.11-0.05-0.11-0.11v-12.25C908.95,1020.87,909,1020.82,909.06,1020.82z"/>
<ellipse class="st36" cx="909.43" cy="1022.06" rx="8.73" ry="3.08"/>
<path class="st37" d="M897.38,1020.28l0.26-0.13c0.06-0.03,0.13-0.01,0.16,0.05l6.61,13.1c0.03,0.06,0.01,0.13-0.05,0.16l-0.26,0.13
	c-0.06,0.03-0.13,0.01-0.16-0.05l-6.61-13.1C897.3,1020.39,897.32,1020.31,897.38,1020.28z"/>
<path class="st39" d="M896.69,1006.87c-0.14,0.31-0.25,0.68-0.27,1.1c-0.02,0.36-0.03,0.55,0.1,0.72c0.19,0.24,0.55,0.24,1.26,0.21
	c0.34-0.01,0.75-0.03,1.29-0.17c0.69-0.19,0.89-0.22,1.01-0.38c0.08-0.11,0.13-0.24,0.21-0.52c0.1-0.36,0.08-0.49,0.14-0.83
	c0.09-0.45,0.23-0.79,0.3-0.94c0.08-0.17,0.22-0.45,0.5-0.82c1.14-1.5,2.48-2.41,2.48-2.41c0.65-0.42,1.64-0.97,2.93-1.36
	c1.42-0.43,2.57-0.47,2.56-0.51c-0.01-0.05-1.38-0.02-3.02,0.27c-0.75,0.13-1.69,0.34-2.76,0.7c-1.59,0.53-3.06,1.02-4.46,2.2
	c-0.69,0.57-1.13,1.13-1.57,1.66C897.14,1006.08,896.9,1006.41,896.69,1006.87L896.69,1006.87z"/>
<path class="st38" d="M899.69,1008.04c0.07,0.15,0.19,0.29,0.51,0.49c0.34,0.21,0.93,0.5,1.98,0.62c0.88,0.1,1.46,0.02,2.41-0.13
	c0.36-0.05,0.87-0.15,1.18-0.51c0.15-0.17,0.23-0.39,0.23-0.39c0.1-0.24,0.1-0.43,0.1-0.64c0.01-0.31,0.05-0.62,0.05-0.93
	c0.01-0.84,0.3-1.73,0.41-2.08c0.18-0.55,0.41-0.99,0.87-1.87c0.34-0.64,0.47-0.83,0.67-1c0,0,0.23-0.2,1.08-0.64
	c0,0-1.34,0.04-2.57,0.31c-0.37,0.08-1.15,0.27-2.08,0.69c-1.11,0.5-1.84,1.08-2,1.21c-0.26,0.21-0.91,0.75-1.57,1.62
	c-0.55,0.73-0.81,1.29-1,1.72C899.55,1007.45,899.58,1007.8,899.69,1008.04L899.69,1008.04z"/>
<path class="st39" d="M918.84,1008.07c0.09,0.17,0.1,0.25,0.14,0.33c0.11,0.21,0.35,0.31,0.91,0.43c0.98,0.22,1.61,0.22,1.77,0.22
	c0.49,0,0.74-0.01,0.87-0.14c0.31-0.32,0.07-1.01-0.07-1.41c-0.45-1.27-1.25-2.09-1.45-2.28c-0.52-0.52-1.69-1.59-3.69-2.5
	c-1.46-0.67-2.66-0.92-4.09-1.23c-1.62-0.35-3.03-0.5-3.04-0.43c-0.01,0.07,1.21,0.2,2.79,0.83c0.85,0.34,2.14,0.87,3.4,2.06
	c0.85,0.8,1.61,1.52,1.74,2.35c0.02,0.13,0.13,0.96,0.43,1.34C918.59,1007.68,918.72,1007.83,918.84,1008.07L918.84,1008.07z"/>
<path class="st38" d="M913.54,1008.59c0.5,0.25,0.75,0.38,0.94,0.44c0.42,0.13,0.74,0.15,1.24,0.18c0.41,0.02,0.9,0.04,1.54-0.05
	c0.6-0.09,0.97-0.24,1.36-0.39c0.46-0.18,0.64-0.31,0.73-0.5c0.1-0.22,0.06-0.43,0-0.67c-0.18-0.74-0.27-1.11-0.5-1.56
	c-0.51-1.01-1.12-1.68-1.35-1.91c-0.14-0.15-0.77-0.79-1.76-1.37c-0.66-0.39-1.24-0.61-1.73-0.79c-0.46-0.18-0.8-0.27-1.32-0.43
	c-0.56-0.16-1.18-0.33-1.93-0.43c-0.48-0.07-0.87-0.11-0.91,0c-0.06,0.14,0.45,0.39,0.83,0.73c0.84,0.73,0.47,1.3,1.35,3.13
	c0.38,0.8,1.17,2.21,0.97,2.8c-0.01,0.04-0.07,0.19-0.02,0.35C913.05,1008.33,913.23,1008.44,913.54,1008.59L913.54,1008.59z"/>
<path class="st39" d="M905.8,1008.08c0.08,0.22,0.21,0.35,0.29,0.42c0.23,0.22,0.48,0.3,0.75,0.38c0.7,0.2,1.27,0.26,1.31,0.27
	c0.56,0.06,0.98,0.07,1.47,0.07c0.71,0.01,1.06,0.01,1.47-0.06c0.25-0.04,0.58-0.14,1.23-0.35c0.48-0.15,0.76-0.26,0.9-0.53
	c0.04-0.08,0.06-0.16,0.07-0.28c0.08-0.61-0.06-1.15-0.07-1.21c-0.24-0.97-0.09-0.78-0.35-1.75c-0.2-0.75-0.33-1.23-0.63-1.84
	c-0.22-0.46-0.49-0.99-1.03-1.51c-0.31-0.3-0.72-0.68-1.34-0.79c-0.41-0.07-0.74,0-0.81,0.02c-0.47,0.12-0.81,0.4-1.12,0.75
	c-0.19,0.21-0.95,1.09-1.49,2.7c-0.23,0.7-0.17,0.77-0.53,2.21c0,0-0.05,0.19-0.13,0.75
	C905.74,1007.76,905.73,1007.91,905.8,1008.08L905.8,1008.08z"/>
<path class="st35" d="M909.2,1000.95c0-0.27,0-0.51,0.01-0.72c0-0.07,0.01-0.22,0.09-0.37c0.04-0.07,0.1-0.18,0.19-0.19
	c0.09,0,0.15,0.1,0.2,0.17c0.04,0.07,0.1,0.19,0.11,0.38c0,0.24,0.01,0.48,0.01,0.73L909.2,1000.95L909.2,1000.95z"/>
<path class="st38" d="M896.47,1007.58c-0.01,0.07-0.03,0.16-0.04,0.27c-0.01,0.1-0.02,0.22-0.01,0.36c0.01,0.13,0.02,0.33,0.12,0.46
	c0.09,0.13,0.25,0.19,0.61,0.23c0.16,0.02,0.67,0.06,1.43-0.08c0.04-0.01,0.31-0.07,0.87-0.2c0,0,0,0,0.26-0.07
	c0.07-0.02,0.19-0.05,0.26-0.1c0.01,0,0.07-0.05,0.07-0.05l0,0c0,0-0.1-0.07-0.18-0.16c-0.03-0.03-0.09-0.1-0.14-0.2
	c-0.02-0.04-0.05-0.09-0.06-0.17c-0.01-0.06-0.03-0.15-0.01-0.26C898.57,1007.6,897.52,1007.59,896.47,1007.58L896.47,1007.58z"/>
<path class="st39" d="M899.62,1007.6c-0.01,0.06-0.02,0.16-0.01,0.26c0.03,0.16,0.12,0.38,0.49,0.64c0.5,0.34,1.01,0.45,1.67,0.58
	c0.29,0.06,0.53,0.1,0.87,0.12c0.31,0.02,0.66-0.01,1.33-0.07c0.23-0.02,0.61-0.06,1.07-0.17c0.07-0.02,0.35-0.09,0.63-0.3
	c0.27-0.2,0.25-0.32,0.25-0.34c-0.01-0.04-0.03-0.04-0.07-0.12c-0.08-0.14-0.09-0.28-0.1-0.38c0-0.06,0-0.12,0-0.17
	C903.71,1007.64,901.67,1007.62,899.62,1007.6L899.62,1007.6z"/>
<path class="st39" d="M913.32,1007.74c0,0.03,0.01,0.06,0.01,0.11c0.01,0.08,0,0.15,0,0.2c0,0.08-0.01,0.12-0.01,0.18
	c-0.01,0.05-0.02,0.12-0.06,0.2c0.04,0.03,0.09,0.07,0.15,0.11c0,0,0.18,0.13,0.4,0.24c0.45,0.22,0.95,0.34,0.95,0.34
	c0.26,0.05,0.71,0.13,1.33,0.13c0.17,0,0.73-0.01,1.46-0.14c0.07-0.01,0.67-0.13,1.33-0.43c0.17-0.08,0.36-0.18,0.47-0.4
	c0.1-0.21,0.06-0.42,0.04-0.51C917.36,1007.76,915.34,1007.75,913.32,1007.74L913.32,1007.74z"/>
<path class="st38" d="M919.38,1007.76c0.01,0.04,0.03,0.09,0.03,0.16c0.01,0.1-0.01,0.17-0.02,0.22c-0.03,0.13-0.09,0.21-0.11,0.24
	c-0.03,0.04-0.05,0.08-0.1,0.11c-0.05,0.04-0.07,0.04-0.08,0.05c0,0.01,0.01,0.06,0.31,0.16c0.21,0.07,0.33,0.09,0.33,0.09
	c0.58,0.11,0.86,0.17,0.98,0.19c0.47,0.06,0.77,0.06,1.19,0.06c0.4,0,0.56-0.02,0.67-0.14c0.11-0.13,0.11-0.32,0.1-0.53
	c-0.01-0.26-0.07-0.46-0.12-0.59C921.5,1007.77,920.44,1007.77,919.38,1007.76L919.38,1007.76z"/>
<path class="st40" d="M893.12,1021.74l0.28-0.14c0.06-0.03,0.13-0.01,0.16,0.05l6.01,11.92c0.03,0.06,0.01,0.13-0.05,0.16
	l-0.28,0.14c-0.06,0.03-0.13,0.01-0.16-0.05l-6.01-11.92C893.03,1021.84,893.06,1021.77,893.12,1021.74z"/>
<rect x="897.37" y="1029.61" class="st37" width="5.2" height="0.51"/>
<rect x="893.08" y="1025.88" class="st40" width="7.67" height="0.71"/>
<path class="st39" d="M894.15,1025.87c3.28,0.01,6.57,0.01,9.85,0.02c0.01-0.04,0.02-0.1,0-0.16c-0.07-0.29-0.52-0.41-1.22-0.55
	c-0.79-0.16-1.19-0.25-1.66-0.29c-0.59-0.06-1.01-0.07-1.64-0.08c-0.9-0.01-1.58,0.02-1.94,0.04c-0.3,0.02-0.52,0.04-0.97,0.08
	c-0.77,0.07-1.34,0.13-1.75,0.36c-0.26,0.14-0.46,0.34-0.46,0.34C894.27,1025.71,894.2,1025.8,894.15,1025.87L894.15,1025.87z"/>
<path class="st40" d="M899.51,1026.19l0.26,0.17c0.05,0.04,0.07,0.11,0.04,0.16l-4.42,6.9c-0.04,0.05-0.11,0.07-0.16,0.04
	l-0.26-0.17c-0.05-0.04-0.07-0.11-0.04-0.16l4.42-6.9C899.38,1026.17,899.45,1026.16,899.51,1026.19z"/>
<path class="st40" d="M904.54,1025.98l0.25,0.13c0.06,0.03,0.08,0.1,0.05,0.16l-4.07,7.52c-0.03,0.06-0.1,0.08-0.16,0.05l-0.25-0.13
	c-0.06-0.03-0.08-0.1-0.05-0.16l4.07-7.52C904.41,1025.97,904.48,1025.95,904.54,1025.98z"/>
<rect x="900.21" y="1025.88" class="st37" width="4.93" height="0.71"/>
<path class="st40" d="M891.14,1018.87l1.92,3.85c0.05,0.1,0.14,0.16,0.25,0.16h6.43c0.21,0,0.34-0.22,0.25-0.4l-1.87-3.85
	c-0.05-0.1-0.14-0.16-0.25-0.16h-6.48C891.18,1018.46,891.04,1018.68,891.14,1018.87L891.14,1018.87L891.14,1018.87z"/>
<path class="st37" d="M914.32,1034.03l-0.26-0.13c-0.06-0.03-0.08-0.1-0.05-0.16l6.6-13.1c0.03-0.06,0.1-0.08,0.16-0.05l0.26,0.13
	c0.06,0.03,0.08,0.1,0.05,0.16l-6.6,13.1C914.45,1034.04,914.38,1034.06,914.32,1034.03z"/>
<path class="st40" d="M919.19,1034.29l-0.28-0.14c-0.06-0.03-0.08-0.1-0.05-0.16l6.01-11.92c0.03-0.06,0.1-0.08,0.16-0.05l0.28,0.14
	c0.06,0.03,0.08,0.1,0.05,0.16l-6.01,11.92C919.32,1034.3,919.25,1034.32,919.19,1034.29z"/>
<rect x="915.86" y="1030.04" class="st37" width="5.2" height="0.51"/>
<rect x="917.67" y="1026.31" class="st40" width="7.67" height="0.71"/>
<path class="st39" d="M924.27,1026.29c-3.28,0.01-6.57,0.01-9.85,0.02c-0.01-0.04-0.02-0.1,0-0.16c0.07-0.29,0.52-0.41,1.22-0.55
	c0.79-0.16,1.19-0.25,1.66-0.29c0.59-0.06,1.01-0.07,1.64-0.08c0.9-0.01,1.58,0.02,1.94,0.04c0.3,0.02,0.52,0.04,0.97,0.08
	c0.77,0.07,1.34,0.13,1.75,0.36c0.26,0.14,0.46,0.34,0.46,0.34C924.15,1026.14,924.22,1026.23,924.27,1026.29L924.27,1026.29z"/>
<path class="st40" d="M923.45,1033.72l-0.26,0.17c-0.05,0.04-0.13,0.02-0.16-0.04l-4.42-6.9c-0.04-0.05-0.02-0.13,0.04-0.16
	l0.26-0.17c0.05-0.04,0.13-0.02,0.16,0.04l4.42,6.9C923.52,1033.61,923.51,1033.69,923.45,1033.72z"/>
<path class="st40" d="M918.07,1034.14l-0.25,0.13c-0.06,0.03-0.13,0.01-0.16-0.05l-4.07-7.52c-0.03-0.06-0.01-0.13,0.05-0.16
	l0.25-0.13c0.06-0.03,0.13-0.01,0.16,0.05l4.07,7.52C918.15,1034.04,918.13,1034.11,918.07,1034.14z"/>
<rect x="913.28" y="1026.31" class="st37" width="4.93" height="0.71"/>
<path class="st40" d="M927.28,1019.3l-1.92,3.85c-0.05,0.1-0.14,0.16-0.25,0.16h-6.43c-0.21,0-0.34-0.22-0.25-0.4l1.87-3.85
	c0.05-0.1,0.14-0.16,0.25-0.16h6.48C927.24,1018.89,927.38,1019.11,927.28,1019.3L927.28,1019.3L927.28,1019.3z"/>
<path class="st37" d="M900.73,1021.71c-0.09,0.02-0.07,0.52-0.01,0.79c0.07,0.3,0.37,1.15,2.95,1.95c0.92,0.29,2.37,0.65,4.75,0.73
	c1.05,0.04,2.29,0.02,3.69-0.12c1.44-0.08,2.57-0.36,3.35-0.62c1.4-0.46,1.93-0.9,2.27-1.33c0.24-0.3,0.38-0.6,0.47-0.81
	c-0.26,0.2-0.65,0.49-1.15,0.78c-1.55,0.88-2.95,1.07-4.58,1.28c-1.9,0.24-3.34,0.18-4.17,0.14c-0.85-0.04-2.2-0.15-3.79-0.52
	c0,0-1.04-0.25-2.39-0.93c-0.53-0.27-0.83-0.48-1.05-0.82C900.88,1021.96,900.8,1021.69,900.73,1021.71L900.73,1021.71z"/>
<path class="st35" d="M909.06,1009.21h0.36c0.06,0,0.11,0.05,0.11,0.11v12.42c0,0.06-0.05,0.11-0.11,0.11h-0.36
	c-0.06,0-0.11-0.05-0.11-0.11v-12.42C908.95,1009.26,909,1009.21,909.06,1009.21z"/>
<path class="st38" d="M905.76,1007.66c-0.02,0.11-0.06,0.36,0.05,0.66c0.1,0.28,0.28,0.45,0.37,0.53c0.17,0.15,0.46,0.35,1.24,0.47
	c0.35,0.05,0.58,0.06,1.78,0.05c1.12,0,0.91-0.01,1.09-0.01c1.14,0.01,1.46,0.05,2-0.1c0.26-0.07,0.58-0.2,0.8-0.49
	c0.02-0.03,0.13-0.17,0.19-0.39c0.08-0.27,0.06-0.51,0.04-0.64C910.8,1007.71,908.28,1007.69,905.76,1007.66z"/>
<path class="st63" d="M912.21,1020.89c0.09-0.31,0.36-0.52,0.65-0.52c0.3,0,0.57,0.22,0.65,0.54"/>
<path class="st51" d="M913.72,1019.85L913.72,1019.85c0.04,0.03,0.05,0.09,0.02,0.13l-0.43,0.63c-0.03,0.04-0.09,0.05-0.13,0.02l0,0
	c-0.04-0.03-0.05-0.09-0.02-0.13l0.43-0.63C913.62,1019.84,913.68,1019.83,913.72,1019.85z"/>
<path class="st42" d="M911.73,1021.32c0.07,0.48,0.13,0.97,0.2,1.45c0.05,0.01,0.13,0.03,0.23,0.04c0.41,0.06,0.74,0.04,1.02,0.03
	c0.14-0.01,0.34-0.02,0.56-0.05c0.07-0.49,0.13-0.98,0.2-1.48c-0.41,0.01-0.82,0.02-1.25,0.02
	C912.37,1021.34,912.05,1021.33,911.73,1021.32L911.73,1021.32z"/>
<path class="st63" d="M912.62,1021.29c0.09-0.34,0.38-0.57,0.68-0.54c0.27,0.02,0.51,0.24,0.58,0.55"/>
<path class="st63" d="M911.83,1021.32c0.04-0.27,0.22-0.49,0.44-0.56c0.32-0.1,0.74,0.12,0.86,0.54"/>
<path class="st52" d="M911.69,1021.28h2.29c0.02,0,0.04,0.02,0.04,0.04l0,0c0,0.02-0.02,0.04-0.04,0.04h-2.29
	c-0.02,0-0.04-0.02-0.04-0.04l0,0C911.65,1021.29,911.67,1021.28,911.69,1021.28z"/>
<rect x="913.41" y="1020.19" transform="matrix(0.5311 -0.8473 0.8473 0.5311 -436.1888 1252.36)" class="st9" width="0.04" height="0.18"/>
<rect x="913.48" y="1020.09" transform="matrix(0.5311 -0.8473 0.8473 0.5311 -436.0697 1252.3706)" class="st9" width="0.04" height="0.18"/>
<rect x="913.54" y="1019.99" transform="matrix(0.5311 -0.8473 0.8473 0.5311 -435.9542 1252.3837)" class="st9" width="0.04" height="0.18"/>
<rect x="913.61" y="1019.9" transform="matrix(0.5311 -0.8473 0.8473 0.5311 -435.8473 1252.3934)" class="st9" width="0.04" height="0.18"/>
<rect x="913.67" y="1019.81" transform="matrix(0.5311 -0.8473 0.8473 0.5311 -435.7488 1252.4037)" class="st9" width="0.04" height="0.18"/>
<rect x="913.34" y="1020.28" transform="matrix(0.5311 -0.8473 0.8473 0.5311 -436.2907 1252.3477)" class="st9" width="0.04" height="0.18"/>
<rect x="913.28" y="1020.38" transform="matrix(0.5311 -0.8473 0.8473 0.5311 -436.4095 1252.3383)" class="st9" width="0.04" height="0.18"/>
<rect x="913.21" y="1020.47" transform="matrix(0.5311 -0.8473 0.8473 0.5311 -436.5179 1252.3276)" class="st9" width="0.04" height="0.18"/>
<path class="st53" d="M904.34,1020.07c0.15,1.08,0.26,1.85,0.27,2.05c0,0.02,0.01,0.09,0.05,0.15c0.04,0.06,0.11,0.11,0.36,0.15
	c0.18,0.03,0.35,0.03,0.68,0.03c0.07,0,0.17,0,0.25-0.07c0.04-0.04,0.07-0.09,0.08-0.12c0.11-0.72,0.21-1.45,0.32-2.17
	C905.68,1020.09,905.01,1020.08,904.34,1020.07L904.34,1020.07z"/>
<path class="st54" d="M904.26,1019.81c-0.01,0.02-0.01,0.05-0.02,0.09c0,0.04,0,0.08,0.01,0.11c0.01,0.02,0.02,0.05,0.04,0.07
	c0.02,0.02,0.05,0.03,0.07,0.03c0.41,0.09,0.92,0.09,0.92,0.09s0.24,0,0.68-0.03c0,0,0.1-0.01,0.23-0.04
	c0.1-0.03,0.15-0.04,0.19-0.09c0.07-0.09,0.05-0.24,0.02-0.25c-0.01,0-0.02,0.02-0.05,0.05c-0.06,0.07-0.15,0.08-0.25,0.08
	c-0.28,0.02-0.32,0.03-0.32,0.03c-0.43,0.01-0.36,0.01-0.49,0.01c-0.1,0-0.22-0.01-0.46-0.01c-0.34-0.01-0.43,0-0.53-0.09
	C904.29,1019.84,904.27,1019.81,904.26,1019.81L904.26,1019.81z"/>
<ellipse class="st55" cx="905.34" cy="1019.82" rx="1.09" ry="0.22"/>
<path class="st54" d="M904.53,1019.61c-0.01,0.02-0.01,0.04-0.01,0.07c0,0.03,0,0.06,0.01,0.08c0,0.01,0.01,0.04,0.03,0.05
	c0.02,0.02,0.04,0.02,0.05,0.02c0.3,0.07,0.66,0.07,0.66,0.07s0.17,0,0.5-0.02c0,0,0.07,0,0.17-0.03c0.07-0.02,0.11-0.03,0.14-0.07
	c0.05-0.07,0.04-0.18,0.01-0.18c-0.01,0-0.01,0.02-0.03,0.04c-0.04,0.05-0.11,0.05-0.18,0.06c-0.2,0.02-0.23,0.02-0.23,0.02
	c-0.32,0.01-0.26,0.01-0.35,0.01c-0.07,0-0.16,0-0.33-0.01c-0.25-0.01-0.32,0-0.39-0.06
	C904.55,1019.64,904.54,1019.62,904.53,1019.61L904.53,1019.61z"/>
<ellipse class="st55" cx="905.32" cy="1019.62" rx="0.79" ry="0.16"/>
<ellipse class="st54" cx="904.86" cy="1019.62" rx="0.13" ry="0.06"/>
<path class="st9" d="M904.41,1020.67c0.03,0.28,0.06,0.57,0.09,0.85c0.07,0.04,0.15,0.07,0.23,0.1c0.57,0.19,1.1,0.07,1.41-0.04
	c0.05-0.3,0.1-0.61,0.15-0.91c-0.14,0.04-0.29,0.08-0.46,0.11C905.24,1020.87,904.74,1020.77,904.41,1020.67L904.41,1020.67z"/>
<path class="st21" d="M287.58,926.24c-6.94-0.43-13.01-0.31-17.97,0c-7.56,0.47-13.3,1.42-21.97,2.89
	c-6.69,1.13-12.57,2.31-17.47,3.37c-0.83,31.01-1.66,62.01-2.5,93.02c0.57,2.02,1.76,5.1,4.49,7.71c3.72,3.56,8.34,4.38,10.98,4.82
	c16.02,2.64,40.59,4.71,41.94,4.82C285.92,1003.99,286.75,965.11,287.58,926.24z"/>
<path class="st19" d="M337.93,1042.87c-2.28-18.03-4.87-32.1-6.85-41.73c-1.85-9-4-18.21-4.98-31.76c-0.31-4.27-0.35-6.9-0.63-16.91
	c-0.36-13-0.7-23.58-0.94-30.73c-2.51,0-5.02,0-7.53,0c0,3.66,0,7.32,0,10.98c-3.26-0.57-6.72-1.28-10.35-2.2
	c-3.11-0.78-6.04-1.63-8.78-2.51c-0.42-3.97-0.84-7.94-1.25-11.92c-3.76-0.21-7.53-0.42-11.29-0.63
	c-0.02,1.27-0.16,10.27-0.18,11.55c-0.32,20.28-0.35,21.33-0.44,27.65c-0.24,16.44-0.38,24.67-0.31,31.36
	c0.12,11.88,0.42,13.38,0.31,23.21c-0.09,7.76-0.39,17.1-0.63,24.46c-0.12,3.81-0.24,6.96-0.31,9.09
	C301.81,1042.82,319.87,1042.84,337.93,1042.87z"/>
<path class="st21" d="M53.07,1075.87c2.28-18.03,4.87-32.1,6.85-41.73c1.85-9,4-18.21,4.98-31.76c0.31-4.27,0.35-6.9,0.63-16.91
	c0.36-13,0.7-23.58,0.94-30.73c2.51,0,5.02,0,7.53,0c0,3.66,0,7.32,0,10.98c3.26-0.57,6.72-1.28,10.35-2.2
	c3.11-0.78,6.04-1.63,8.78-2.51c0.42-3.97,0.84-7.94,1.25-11.92c3.76-0.21,7.53-0.42,11.29-0.63c0.02,1.27,0.16,10.27,0.18,11.55
	c0.32,20.28,0.35,21.33,0.44,27.65c0.24,16.44,0.38,24.67,0.31,31.36c-0.12,11.88-0.42,13.38-0.31,23.21
	c0.09,7.76,0.39,17.1,0.63,24.46c0.12,3.81,0.24,6.96,0.31,9.09C89.19,1075.82,71.13,1075.84,53.07,1075.87z"/>
<path class="st19" d="M153.93,1075.87c-2.28-18.03-4.87-32.1-6.85-41.73c-1.85-9-4-18.21-4.98-31.76c-0.31-4.27-0.35-6.9-0.63-16.91
	c-0.36-13-0.7-23.58-0.94-30.73c-2.51,0-5.02,0-7.53,0c0,3.66,0,7.32,0,10.98c-3.26-0.57-6.72-1.28-10.35-2.2
	c-3.11-0.78-6.04-1.63-8.78-2.51c-0.42-3.97-0.84-7.94-1.25-11.92c-3.76-0.21-7.53-0.42-11.29-0.63
	c-0.02,1.27-0.16,10.27-0.18,11.55c-0.32,20.28-0.35,21.33-0.44,27.65c-0.24,16.44-0.38,24.67-0.31,31.36
	c0.12,11.88,0.42,13.38,0.31,23.21c-0.09,7.76-0.39,17.1-0.63,24.46c-0.12,3.81-0.24,6.96-0.31,9.09
	C117.81,1075.82,135.87,1075.84,153.93,1075.87z"/>
<ellipse transform="matrix(0.9833 -0.1819 0.1819 0.9833 -195.3741 22.9841)" class="st26" cx="27.6" cy="1076.45" rx="6.59" ry="4.52"/>
<ellipse transform="matrix(0.8374 -0.5466 0.5466 0.8374 -593.2636 181.3712)" class="st24" cx="8.18" cy="1087.72" rx="7.82" ry="5.37"/>
<ellipse transform="matrix(0.6901 -0.7237 0.7237 0.6901 -758.5445 367.6436)" class="st26" cx="50.05" cy="1069.62" rx="5.84" ry="4.01"/>
<ellipse transform="matrix(0.9966 -0.0824 0.0824 0.9966 -90.0158 14.1721)" class="st26" cx="126.75" cy="1098.02" rx="9.56" ry="6.56"/>
<ellipse transform="matrix(0.888 -0.4599 0.4599 0.888 -479.9856 202.5801)" class="st24" cx="175.83" cy="1086.53" rx="9.56" ry="6.56"/>
<ellipse transform="matrix(0.9604 -0.2786 0.2786 0.9604 -299.1297 83.3074)" class="st24" cx="143.59" cy="1094.28" rx="13.91" ry="6.99"/>
<ellipse transform="matrix(0.7593 -0.6508 0.6508 0.7593 -670.4283 367.3688)" class="st26" cx="161.33" cy="1089.86" rx="8.48" ry="5.82"/>
<ellipse transform="matrix(0.888 -0.4599 0.4599 0.888 -493.95 175.1148)" class="st24" cx="112.47" cy="1101.46" rx="9.56" ry="6.56"/>
<ellipse transform="matrix(0.9982 -0.0606 0.0606 0.9982 -65.3662 13.6495)" class="st26" cx="192.19" cy="1083.72" rx="9.56" ry="6.56"/>
<ellipse transform="matrix(0.8978 -0.4404 0.4404 0.8978 -448.0351 216.0794)" class="st24" cx="241.51" cy="1073.3" rx="9.56" ry="6.56"/>
<ellipse transform="matrix(0.9663 -0.2576 0.2576 0.9663 -271.2032 90.3084)" class="st24" cx="209.11" cy="1080.35" rx="13.91" ry="6.99"/>
<ellipse transform="matrix(0.7733 -0.6341 0.6341 0.7733 -631.0279 387.9539)" class="st26" cx="226.95" cy="1076.32" rx="8.48" ry="5.82"/>
<ellipse transform="matrix(0.9966 -0.0824 0.0824 0.9966 -87.3745 24.7617)" class="st26" cx="256.41" cy="1071.3" rx="8.43" ry="5.78"/>
<ellipse transform="matrix(0.888 -0.4599 0.4599 0.888 -454.4519 256.6936)" class="st24" cx="299.67" cy="1061.17" rx="8.43" ry="5.78"/>
<ellipse transform="matrix(0.9604 -0.2786 0.2786 0.9604 -286.7586 117.8285)" class="st24" cx="271.25" cy="1068" rx="12.26" ry="6.16"/>
<ellipse transform="matrix(0.7593 -0.6508 0.6508 0.7593 -623.4433 442.8834)" class="st26" cx="286.9" cy="1064.11" rx="7.47" ry="5.13"/>
<ellipse transform="matrix(0.058 -0.9983 0.9983 0.058 -764.3088 1309.1964)" class="st26" cx="311.56" cy="1059.59" rx="4.41" ry="6.42"/>
<ellipse transform="matrix(0.9436 -0.331 0.331 0.9436 -330.2872 173.8694)" class="st24" cx="345.29" cy="1056.56" rx="6.42" ry="4.41"/>
<ellipse transform="matrix(0.99 -0.1413 0.1413 0.99 -146.3866 56.2951)" class="st24" cx="323.11" cy="1058.68" rx="9.34" ry="4.69"/>
<ellipse transform="matrix(0.8429 -0.5381 0.5381 0.8429 -516.2841 346.5536)" class="st26" cx="335.33" cy="1057.42" rx="5.69" ry="3.91"/>
<ellipse transform="matrix(0.058 -0.9983 0.9983 0.058 -722.9878 1343.179)" class="st26" cx="350.23" cy="1054.69" rx="2.83" ry="4.13"/>
<ellipse transform="matrix(0.9436 -0.331 0.331 0.9436 -327.5213 182.4641)" class="st24" cx="371.9" cy="1052.74" rx="4.13" ry="2.83"/>
<ellipse transform="matrix(0.99 -0.1413 0.1413 0.99 -145.3925 61.1307)" class="st24" cx="357.65" cy="1054.1" rx="6.01" ry="3.02"/>
<ellipse transform="matrix(0.8429 -0.5381 0.5381 0.8429 -509.3235 362.14)" class="st26" cx="365.5" cy="1053.29" rx="3.66" ry="2.51"/>
<ellipse transform="matrix(0.1972 -0.9804 0.9804 0.1972 -728.827 1215.5217)" class="st26" cx="377.76" cy="1052.77" rx="1.68" ry="2.44"/>
<ellipse transform="matrix(0.9807 -0.1956 0.1956 0.9807 -198.5526 96.7838)" class="st24" cx="390.62" cy="1053.42" rx="2.44" ry="1.68"/>
<ellipse transform="matrix(1 -1.335321e-03 1.335321e-03 1 -1.4058 0.5112)" class="st24" cx="382.16" cy="1053.04" rx="3.55" ry="1.79"/>
<ellipse transform="matrix(0.9099 -0.4148 0.4148 0.9099 -401.9844 255.2975)" class="st26" cx="386.83" cy="1053.22" rx="2.17" ry="1.49"/>
<ellipse transform="matrix(0.1972 -0.9804 0.9804 0.1972 -716.9592 1231.8706)" class="st26" cx="393.68" cy="1053.7" rx="1.68" ry="2.44"/>
<ellipse transform="matrix(0.9807 -0.1956 0.1956 0.9807 -198.4266 99.9157)" class="st24" cx="406.54" cy="1054.35" rx="2.44" ry="1.68"/>
<ellipse transform="matrix(1 -1.335321e-03 1.335321e-03 1 -1.407 0.5325)" class="st24" cx="398.08" cy="1053.97" rx="3.55" ry="1.79"/>
<ellipse transform="matrix(0.9099 -0.4148 0.4148 0.9099 -400.9359 261.9824)" class="st26" cx="402.74" cy="1054.14" rx="2.17" ry="1.49"/>
<ellipse transform="matrix(0.1387 -0.9903 0.9903 0.1387 -691.17 1315.4467)" class="st26" cx="410.67" cy="1055.08" rx="1.68" ry="2.44"/>
<ellipse transform="matrix(0.9673 -0.2535 0.2535 0.9673 -253.5704 141.8076)" class="st24" cx="423.55" cy="1054.97" rx="2.44" ry="1.68"/>
<ellipse transform="matrix(0.9982 -0.0606 0.0606 0.9982 -63.2198 27.1132)" class="st24" cx="415.08" cy="1055.09" rx="3.55" ry="1.79"/>
<ellipse transform="matrix(0.8837 -0.468 0.468 0.8837 -444.922 319.0982)" class="st26" cx="419.75" cy="1054.99" rx="2.17" ry="1.49"/>
<ellipse transform="matrix(0.9983 -0.0577 0.0577 0.9983 -60.232 26.406)" class="st26" cx="426.77" cy="1055.36" rx="2.44" ry="1.68"/>
<ellipse transform="matrix(0.8991 -0.4378 0.4378 0.8991 -416.5665 298.6393)" class="st24" cx="439.38" cy="1052.73" rx="2.44" ry="1.68"/>
<ellipse transform="matrix(0.967 -0.2548 0.2548 0.967 -254.4226 144.6202)" class="st24" cx="431.1" cy="1054.51" rx="3.55" ry="1.79"/>
<ellipse transform="matrix(0.7751 -0.6318 0.6318 0.7751 -567.6655 512.208)" class="st26" cx="435.66" cy="1053.49" rx="2.17" ry="1.49"/>
<ellipse transform="matrix(0.9983 -0.0577 0.0577 0.9983 -59.9946 27.3064)" class="st26" cx="442.47" cy="1051.7" rx="2.16" ry="1.49"/>
<ellipse transform="matrix(0.8991 -0.4378 0.4378 0.8991 -413.6575 304.5425)" class="st24" cx="453.64" cy="1049.38" rx="2.16" ry="1.49"/>
<ellipse transform="matrix(0.967 -0.2548 0.2548 0.967 -253.0139 148.3761)" class="st24" cx="446.3" cy="1050.95" rx="3.15" ry="1.58"/>
<ellipse transform="matrix(0.7751 -0.6318 0.6318 0.7751 -562.1872 520.7107)" class="st26" cx="450.34" cy="1050.05" rx="1.92" ry="1.32"/>
<ellipse transform="matrix(0.9639 -0.2662 0.2662 0.9639 -262.7129 159.0234)" class="st26" cx="455.22" cy="1048.56" rx="1.62" ry="1.11"/>
<ellipse transform="matrix(0.8919 -0.4522 0.4522 0.8919 -424.1813 320.3203)" class="st24" cx="457.91" cy="1047.41" rx="2.36" ry="1.19"/>
<ellipse transform="matrix(0.625 -0.7806 0.7806 0.625 -643.8303 751.899)" class="st26" cx="460.73" cy="1046.11" rx="1.44" ry="0.99"/>
<path class="st33" d="M538.27,1110.6c1.25,2.38,2.5,4.75,3.74,7.13c9.46,0.04,18.92,0.08,28.38,0.12c0.22-2.45,0.43-4.9,0.65-7.35
	C560.12,1110.53,549.2,1110.56,538.27,1110.6z"/>
<path class="st33" d="M807.13,1111.56c-11.49-0.11-22.97-0.22-34.46-0.33c-1.03-1.95-2.06-3.9-3.09-5.85h40.15
	C808.86,1107.45,808,1109.5,807.13,1111.56z"/>
<g>
	<path class="st64" d="M745.89,1105.2c2.07,0.39,4.14,0.78,6.21,1.16c0.28,0.88,0.57,1.76,0.85,2.64c-1.99,0.08-3.98,0.16-5.97,0.23
		C746.62,1107.89,746.26,1106.54,745.89,1105.2z"/>
	<path class="st65" d="M748.98,1112.23c-0.85-3.33-1.71-6.65-2.56-9.98c-17.43-0.67-34.87-1.35-52.3-2.02
		c2.16,3.91,4.31,7.82,6.47,11.73C716.72,1112.05,732.85,1112.14,748.98,1112.23z"/>
	<path class="st9" d="M747.6,1106.85c-0.3-1.16-0.6-2.31-0.9-3.47c-17.33-0.7-34.66-1.39-52-2.09c0.78,1.45,1.56,2.89,2.34,4.34
		C713.89,1106.04,730.74,1106.44,747.6,1106.85z"/>
	<path class="st66" d="M747.48,1106.42c0.13,0.49,0.26,0.98,0.39,1.47c-16.88-0.65-33.75-1.29-50.63-1.94
		c-0.26-0.46-0.52-0.93-0.78-1.39C713.47,1105.18,730.47,1105.8,747.48,1106.42z"/>
	<path class="st64" d="M737.76,1101.88c-1.35-2.68-2.7-5.35-4.05-8.03c1.57-0.43,3.14-0.87,4.7-1.3c-1.04-1.06-2.07-2.12-3.11-3.18
		c-7.14,1.35-14.28,2.7-21.42,4.05c-2.65,2.41-5.31,4.82-7.96,7.24"/>
	<path class="st65" d="M730.58,1096.32c0.94,1.3,1.88,2.61,2.82,3.91c-7.21-0.22-14.42-0.43-21.64-0.65
		c1.25-1.3,2.51-2.61,3.76-3.91C720.55,1095.89,725.57,1096.1,730.58,1096.32z"/>
	<path class="st67" d="M698.45,1100.95c-0.93-1.46-1.86-2.93-2.78-4.39c15.27,1.13,30.55,2.25,45.82,3.38
		c0.42,0.82,0.84,1.63,1.27,2.45"/>
	<path class="st67" d="M734.35,1099.47c0.45,0.84,0.9,1.69,1.35,2.53"/>
	<path class="st67" d="M727.93,1098.96c0.45,0.97,0.9,1.94,1.35,2.92"/>
	<path class="st67" d="M721.63,1098.38c0.45,1.09,0.9,2.18,1.35,3.28"/>
	<path class="st67" d="M715.53,1098.02c0.45,1.09,0.9,2.18,1.35,3.28"/>
	<path class="st67" d="M710.14,1097.63c0.45,1.22,0.9,2.44,1.35,3.66"/>
	<path class="st67" d="M703.6,1097.13c0.45,1.22,0.9,2.44,1.35,3.66"/>
</g>
</svg>
