<?xml version="1.0" encoding="utf-8"?>
<!-- Generator: Adobe Illustrator 27.0.0, SVG Export Plug-In . SVG Version: 6.00 Build 0)  -->
<svg version="1.1" id="Lager_1" xmlns="http://www.w3.org/2000/svg" xmlns:xlink="http://www.w3.org/1999/xlink" x="0px" y="0px"
	 viewBox="0 0 1366 768" style="enable-background:new 0 0 1366 768;" xml:space="preserve">
<style type="text/css">
	.st0{fill:#FFFAEC;}
</style>
<path class="st0" d="M873,378.71c0-31.09-25.21-56.3-56.3-56.3c-11.07,0-21.39,3.21-30.1,8.73c-11.79-21.51-37.19-36.39-66.63-36.39
	c-40.68,0-73.66,28.41-73.66,63.46c0,1.74,0.1,3.45,0.26,5.15c-4.46-3.23-9.92-5.15-15.84-5.15c-13.55,0-24.74,9.97-26.73,22.96
	c-1.27-0.18-2.56-0.31-3.87-0.31c-14.95,0-27.07,12.12-27.07,27.07c0,13.67,10.14,24.94,23.3,26.78v0.29h228.5v-0.6
	C852.09,430.45,873,407.03,873,378.71z"/>
</svg>
