<?xml version="1.0" encoding="UTF-8"?>
<svg id="Lager_1" data-name="Lager 1" xmlns="http://www.w3.org/2000/svg" viewBox="0 0 184.61 279.78">
  <defs>
    <style>
      .cls-1 {
        fill: #fff;
      }

      .cls-1, .cls-2 {
        opacity: .37;
      }

      .cls-2 {
        fill: #00b5ad;
      }
    </style>
  </defs>
  <path class="cls-1" d="M49.03,132c-15,22.04-25.43,42.29-32.71,58.59C2.72,221.07-3.95,236.62,2.45,252.03c6.4,15.41,23.96,27.79,43.6,27.75,18.93-.04,35.39-11.6,42.44-25.81,8.48-17.1,1.74-34.82-9.57-64.57-6.16-16.21-15.48-36.12-29.89-57.39Z"/>
  <path class="cls-2" d="M141.34,0c-15,22.04-25.43,42.29-32.71,58.59-13.6,30.48-20.27,46.04-13.87,61.44,6.4,15.41,23.96,27.79,43.6,27.75,18.93-.04,35.39-11.6,42.44-25.81,8.48-17.1,1.74-34.82-9.57-64.57-6.16-16.21-15.48-36.12-29.89-57.39Z"/>
</svg>