<?xml version="1.0" encoding="utf-8"?>
<!-- Generator: Adobe Illustrator 27.0.0, SVG Export Plug-In . SVG Version: 6.00 Build 0)  -->
<svg version="1.1" id="Lager_1" xmlns="http://www.w3.org/2000/svg" xmlns:xlink="http://www.w3.org/1999/xlink" x="0px" y="0px"
	 viewBox="0 0 1366 768" style="enable-background:new 0 0 1366 768;" xml:space="preserve">
<style type="text/css">
	.st0{fill:#FFFAEC;}
</style>
<path class="st0" d="M822.39,431.48l-25.72-14.85l24.39-14.08c6.52-3.77,8.76-12.11,4.99-18.63c-3.77-6.52-12.11-8.76-18.63-4.99
	l-38.03,21.96l-50.82-29.34l47.68-27.53l41.18,22.17c6.63,3.57,14.91,1.09,18.48-5.54l0,0c3.57-6.63,1.09-14.91-5.54-18.48
	l-26.35-14.19l28.38-16.38c6.58-3.8,8.83-12.21,5.03-18.78h0c-3.8-6.58-12.21-8.83-18.78-5.03l-27.91,16.11v-29.8
	c0-7.53-6.11-13.64-13.64-13.64c-7.53,0-13.64,6.11-13.64,13.64v45.55l-48.64,28.08v-55.98l39.04-24.11
	c6.41-3.96,8.4-12.36,4.44-18.77v0c-3.96-6.41-12.36-8.4-18.77-4.44l-24.7,15.26v-31.84c0-7.59-6.16-13.75-13.75-13.75h0
	c-7.59,0-13.75,6.16-13.75,13.75v32.2l-26.57-15.34c-6.52-3.77-14.87-1.53-18.63,4.99c-3.77,6.52-1.53,14.87,4.99,18.63l40.21,23.21
	v56.18l-49.16-28.38l-1.37-46.29c-0.22-7.53-6.51-13.45-14.04-13.23l0,0c-7.53,0.22-13.45,6.51-13.23,14.04l0.87,29.44l-26.89-15.53
	c-6.58-3.8-14.98-1.54-18.78,5.03s-1.54,14.98,5.03,18.78l26.83,15.49l-26.21,15.13c-6.52,3.77-8.76,12.11-4.99,18.63
	c3.77,6.52,12.11,8.76,18.63,4.99l39.85-23.01l49.71,28.7l-48.38,27.93L574,377.29c-6.63-3.57-14.91-1.09-18.48,5.54l0,0
	c-3.57,6.63-1.09,14.91,5.54,18.48l26.35,14.19l-27.67,15.98c-6.58,3.8-8.83,12.21-5.03,18.78c3.8,6.58,12.21,8.83,18.78,5.03
	l27.2-15.71v29.8c0,7.53,6.11,13.64,13.64,13.64c7.53,0,13.64-6.11,13.64-13.64l0-45.55l49.34-28.49v56.02l-39.8,24.58
	c-6.41,3.96-8.4,12.36-4.44,18.77v0c3.96,6.41,12.36,8.4,18.77,4.44l25.46-15.72v31.81c0,7.59,6.16,13.75,13.75,13.75h0
	c7.59,0,13.75-6.16,13.75-13.75v-31.26l25.81,14.9c6.52,3.77,14.87,1.53,18.63-4.99c3.77-6.52,1.53-14.87-4.99-18.63l-39.45-22.78
	v-57.12l48.39,27.94l1.44,48.42c0.22,7.53,6.51,13.45,14.04,13.23v0c7.53-0.22,13.45-6.51,13.23-14.04l-0.94-31.58l27.66,15.97
	c6.58,3.8,14.98,1.54,18.78-5.03l0,0C831.22,443.68,828.96,435.28,822.39,431.48z"/>
</svg>
