<?xml version="1.0" encoding="utf-8"?>
<!-- Generator: Adobe Illustrator 27.0.0, SVG Export Plug-In . SVG Version: 6.00 Build 0)  -->
<svg version="1.1" id="Lager_1" xmlns="http://www.w3.org/2000/svg" xmlns:xlink="http://www.w3.org/1999/xlink" x="0px" y="0px"
	 viewBox="0 0 1366 768" style="enable-background:new 0 0 1366 768;" xml:space="preserve">
<style type="text/css">
	.st0{fill:#FFFAEC;}
	.st1{opacity:0.37;fill:#00B5AD;}
	.st2{fill:#FDE3B6;}
</style>
<path class="st0" d="M859,387.14c0-22.61-18.33-40.94-40.94-40.94c-4.84,0-9.47,0.84-13.78,2.38c0.37-2.29,0.57-4.63,0.57-7.02
	c0-24.07-19.51-43.58-43.58-43.58c-2.32,0-4.6,0.19-6.83,0.54c0.05-1.24,0.05-2.49-0.03-3.75c-1.47-22.81-24.94-39.86-52.41-38.08
	c-24.18,1.56-43.4,17.19-46.65,36.47c-16.05-14.56-43.61-15.53-66.53-0.92c-19.59,12.49-30.29,32.85-28.98,51.42
	c-3.18-0.75-6.49-1.16-9.9-1.16c-23.63,0-42.79,19.16-42.79,42.79c0,23.63,19.16,42.79,42.79,42.79c1.22,0,2.43-0.06,3.62-0.16v0.16
	H820.7v-0.09C842.08,426.63,859,408.87,859,387.14z"/>
<path class="st1" d="M727.06,454.86c-5.82,8.55-9.87,16.41-12.69,22.73c-5.28,11.83-7.87,17.86-5.38,23.84
	c2.48,5.98,9.3,10.78,16.92,10.77c7.35-0.01,13.73-4.5,16.47-10.02c3.29-6.64,0.68-13.51-3.71-25.05
	C736.27,470.84,732.65,463.11,727.06,454.86z"/>
<path class="st2" d="M712.06,432.6c-5.75-1.19-11.5-2.38-17.25-3.58l7.97-35.28l-33.46-7.56c-5.38,21.67-10.76,43.34-16.13,65
	c7.37,0.63,14.73,1.26,22.1,1.89l-14.62,58.77C677.79,485.45,694.92,459.02,712.06,432.6z"/>
</svg>
